<?xml version="1.0" encoding="UTF-8"?>
<svg version="1.1" viewBox="0 0 600 200" xmlns="http://www.w3.org/2000/svg">
	<g stroke-width=".264">
		<path d="m144 18c-3.4 0-6.7 0.62-10.1 2.12-3 1.27-5.6 3.01-7.8 5.19-2.4 2.35-4.3 5-5.6 8.09h-4.9c-4.2 0.1-8.2 1.49-11.5 3.98-3.3-2.5-7.38-3.89-11.6-3.98h-8.15c-1.31 0.15-2.6 0.43-3.86 0.84-0.1 0-0.16-0.1-0.24-0.1-1.91-0.4-3.95-0.73-6.03-1.01-2.8-0.38-5.75-0.53-8.65-0.53-3.99 0-8.2 0.43-12.4 1.62h-0.1c-3.71 1.09-7.63 2.81-11.2 5.47-3.56 2.65-6.57 5.95-8.81 10.4-2.13 4.18-3.17 8.55-3.17 13.2 0 2.99 0.43 6.37 1.54 9.79-1.01 2.43-1.54 5.04-1.54 7.68v7.74c0 9.19 6.26 17.2 15.2 19.4 2.77 0.7 5.59 1.2 8.46 1.5 3.04 0.4 6.21 0.6 9.44 0.6 3.37 0 6.69-0.5 9.99-1.1 2.32-0.5 4.64-1.3 6.91-2.2 2.9 1.5 6.16 2.4 9.47 2.5h9.56c1.7-0.2 3.3-0.5 4.9-1.1 1.6 0.6 3.2 0.9 4.9 1.1h9.5c1.6-0.2 3.2-0.6 4.7-1.2 1.9 0.7 3.8 1 5.8 1.2h30.4c1.5-0.2 3-0.5 4.5-1 1.5 0.5 3 0.8 4.5 1h8.6c2.2-0.1 4.3-0.5 6.3-1.3 2.1 0.8 4.2 1.2 6.4 1.3h8.6c2.5-0.1 4.9-0.6 7.2-1.5 0.5 0 0.9 0.3 1.4 0.4-2.2 1-4.5 2.2-6.6 3.9-3.3 2.5-6.3 5.7-8.5 9.9-0.1 0.2-0.3 0.5-0.4 0.7-1.9 4.2-2.8 8.3-2.8 12.7 0 2.9 0.4 6.4 1.5 9.8-1 2.5-1.5 5.1-1.5 7.7v7.7c0 9.2 6.2 17.2 15.1 19.4 2.7 0.7 5.5 1.2 8.2 1.5h0.1c3.1 0.4 6.3 0.6 9.6 0.6 3.5 0 6.9-0.4 10.3-1.2 2.2-0.5 4.4-1.3 6.6-2.2 2.9 1.6 6 2.5 9.3 2.6h30.4c1-0.1 2.1-0.3 3.1-0.6 0.9 0.3 2 0.5 3 0.6h7.4c1.1-0.1 2.3-0.3 3.4-0.7 1 0.4 2.2 0.6 3.3 0.7h7.3c1.1-0.1 2.2-0.3 3.3-0.7 1.1 0.4 2.2 0.6 3.3 0.7h7.5c2.2-0.1 4.3-0.5 6.4-1.3 3.8 1.5 7.7 2.1 11.4 2.1 2.7 0 5.8-0.4 8.9-1.3h0.1c0.1 0 0.2-0.1 0.3-0.1 0.2-0.1 0.3-0.1 0.5-0.1l-0.8 0.2c0.8 0.2 1.7 0.4 2.5 0.5h7.4c1.7-0.1 3.4-0.5 5-1 1.6 0.5 3.3 0.9 5 1h30.4c2.4 0 4.8-0.5 7-1.4 4.2 1.7 8.4 2.2 12.1 2.2 2.6 0 5.5-0.5 8.4-1.1 0.3-0.1 0.7-0.2 1-0.4 1 0.4 1.9 0.5 2.9 0.6h7.3c4.1-0.1 8-1.5 11.3-3.9 2.3 1.3 4.7 2.3 7.1 3 4 1.3 8 1.7 11.8 1.7 2.5 0 5-0.2 7.4-0.6 2-0.3 4-0.6 5.9-1.1 1.6-0.3 3.2-0.8 4.6-1.5 0.5 0.2 1 0.4 1.6 0.7 4.8 1.8 9.6 2.5 14.3 2.5 5.1 0 10.3-0.8 15.3-3 0.1 0 0.1 0 0.2-0.1 0.5-0.2 0.9-0.4 1.3-0.6 2.9 1.8 6.3 2.8 9.7 2.9h8.8c11 0 20-9 20-20v-1.9h1.4c10.8 0 19.7-8.6 20-19.4 0.1-3.8-0.2-7.9-1.2-11.9-1.1-4-2.9-8.2-5.9-12-3-3.9-6.7-6.8-11.2-8.7-4.4-2-8.9-2.6-12.8-2.6-2.7 0-5.4 0.3-8.2 0.9-0.1 0.1-0.2 0.1-0.3 0.1s-0.3 0.1-0.4 0.2c-0.8-0.2-1.6-0.4-2.4-0.5h-7.8c-3.3 0.1-6.5 1-9.4 2.7-0.8-0.3-1.6-0.7-2.4-1-4.6-1.7-9.4-2.4-14-2.4-4.9 0-9.9 0.8-14.7 2.7-0.3 0.1-0.5 0.2-0.7 0.3-0.2 0-0.3 0.1-0.4 0.2-1.6-0.9-3.4-1.5-5.2-1.9-3.9-8.91-13.8-13.7-23.3-11.2l-8.8 2.3c-5.3 1.47-9.7 5.05-12.3 9.95-0.8-0.3-1.5-0.6-2.3-0.8-0.1 0-0.3-0.1-0.4-0.1-3.9-1-7.9-1.3-11.7-1.3-3.5 0-7 0.3-10.5 0.9-0.2 0-0.4 0.1-0.7 0.1-1.1 0.3-2.2 0.6-3.4 0.9-0.1-0.5-0.2-1.1-0.4-1.6 6-3.5 9.8-9.84 10-16.8v-6.82-0.24c0.8-1.92 1.4-3.96 1.6-6.05 0.1-1.4 0.2-2.83 0.2-4.26v1.43c0-1.16 0.1-2.56 0.1-3.71 0-4.26-0.6-8.59-2.1-12.9-1.5-4.57-3.9-8.63-7.4-12.3-3.5-3.69-7.4-6.24-11.9-8.03-4.7-1.95-9.6-2.67-14.2-2.67-5.1 0-10.1 0.94-15 3.08-0.1 0-0.2 0.1-0.4 0.15-1.2 0.56-2.3 1.18-3.4 1.84-1.5-0.94-3-1.78-4.6-2.47-4.3-1.92-8.7-2.6-12.7-2.6-2.7 0-5.7 0.28-8.7 1.08-0.1 0-0.3 0.12-0.5 0.16-0.8-0.21-1.6-0.36-2.4-0.47h-7.4c-2.5 0-5 0.51-7.3 1.45-3.9-1.57-7.9-2.22-11.7-2.22-2.8 0-5.6 0.3-8.4 1-0.1 0-0.2 0.1-0.3 0.1s-0.2 0.1-0.4 0.13c-0.7-0.19-1.5-0.34-2.3-0.44h-7.7c-1.7 0.12-3.4 0.45-5 0.99-2-0.65-4.1-0.99-6.2-0.99h-8.6c-2 0.1-4.1 0.49-6 1.19-2.2-0.77-4.4-1.18-6.7-1.19h-8.6c-2.8 0-5.5 0.63-8 1.76-1.3-0.54-2.6-0.98-3.8-1.33-2.5-8.54-10.3-14.4-19.2-14.4h-8.5c-8.4 0.1-15.8 5.38-18.7 13.3-0.6 0-1.3-0.1-2-0.1-2.7 0-5.6 0.3-8.6 1.08-0.1 0-0.3 0.11-0.5 0.16-0.8-0.21-1.6-0.36-2.4-0.47h-7.4c-0.2 0-0.4 0.1-0.7 0.13-1.2-2.9-2.8-5.38-5-7.58-2.6-2.79-5.5-4.62-8.5-5.87-3.3-1.44-6.7-2.08-10-2.08zm10 2.08c0.2 0.1 0.4 0.13 0.6 0.21l-1.3-0.51c0.3 0.1 0.5 0.2 0.7 0.3zm8.5 5.87c0.1 0.12 0.3 0.22 0.4 0.35l-1-1.05c0.2 0.22 0.4 0.47 0.6 0.7zm196 9.28c0.1 0 0.2 0.1 0.3 0.11l-0.6-0.24c0.1 0 0.2 0.1 0.3 0.13zm37.6 0.1h0.1l-0.2-0.1h0.1zm118 71.7c0.1 0 0.2 0 0.2 0.1l-0.3-0.1h0.1zm43.7 0.2c0.1 0 0.2 0 0.2 0.1l-0.3-0.2 0.1 0.1zm11.2 8.7h0.1l-0.1-0.1zm5.9 12v0.1zm-102 53.4h-0.3l0.7-0.1c-0.1 0-0.3 0.1-0.4 0.1zm-19.2-1.1h-0.2l0.5 0.2c-0.1-0.1-0.2-0.1-0.3-0.2zm-29.6 0.6c-0.4 0.1-0.7 0.2-1.1 0.3l2.1-0.5c-0.3 0.1-0.7 0.1-1 0.2zm-77.8-0.2c-0.2 0.1-0.4 0.2-0.6 0.2zm-115 0.1c-0.1 0-0.2 0-0.3 0.1l0.7-0.2c-0.2 0-0.3 0-0.4 0.1zm-31.6-68.8 0.2-0.2-0.4 0.3c0.1 0 0.1-0.1 0.2-0.1zm-127-3.1h-0.1l0.26-0.1c-0.1 0.1-0.11 0.1-0.16 0.1zm-19.4 0.5h-0.11 0.25-0.14zm-20.5-59.3v-0.1 0.11zm92.9-24.8v-0.1l-0.1 0.1zm7.8-5.19s0.1-0.1 0.2-0.1l-0.7 0.27c0.2-0.1 0.3-0.1 0.5-0.17zm186 15.1 0.2 0.13s-0.1 0-0.1-0.1c-0.1 0-0.1 0-0.1-0.1zm-120 0 0.2 0.11h-0.1c-0.1 0-0.1 0-0.1-0.1zm41.4 0.83 0.2 0.12h-0.1c-0.1 0-0.1-0.1-0.1-0.1zm-70.4 0.7c-0.1 0-0.2 0.1-0.2 0.11-0.1 0-0.1 0.1-0.2 0.1zm158 0c-0.2 0.1-0.4 0.23-0.6 0.33-0.1 0.1-0.2 0.13-0.4 0.22zm24.9 8.09h-0.1zm-138 9.31v0.1zm121 1.83 0.1 0.69c0-0.15 0-0.3-0.1-0.45v-0.24zm58.9 52.5h-0.1zm-186 0.4h0.1 0.1zm176 0.9h-0.3 0.2zm45 68.2-0.9 0.5c0.1-0.1 0.3-0.2 0.5-0.3 0.1 0 0.3-0.1 0.4-0.2z" display="none" fill="#fffafa"/>
		<path d="m144 18c-3.5 0-6.8 0.7-10 2.06-3.1 1.29-5.8 3.07-8.3 5.66-2.3 2.33-4 4.96-5.2 7.66h-4.9c-4.2 0.11-8.2 1.5-11.5 4-3.3-2.5-7.38-3.89-11.6-3.98h-8.15c-1.31 0.15-2.6 0.43-3.86 0.84-0.1 0-0.16-0.1-0.24-0.1-1.9-0.4-3.93-0.73-6.06-1.02-2.76-0.36-5.71-0.52-8.62-0.52-3.99 0-8.2 0.43-12.3 1.62h-0.12c-3.67 1.08-7.58 2.78-11.2 5.48-3.47 2.58-6.58 5.97-8.8 10.4-2.12 4.17-3.16 8.53-3.16 13.2 0 2.96 0.42 6.35 1.54 9.79-1.01 2.43-1.54 5.04-1.54 7.68v7.74c0 9.17 6.25 17.1 15.2 19.4 2.78 0.7 5.61 1.2 8.5 1.5 3.03 0.4 6.2 0.6 9.43 0.6 3.35 0 6.69-0.4 10-1.1 2.32-0.5 4.6-1.3 6.85-2.3 2.91 1.6 6.18 2.5 9.52 2.6h9.56c1.68-0.2 3.28-0.6 4.88-1.1 1.6 0.5 3.2 0.9 4.9 1.1h9.5c1.6-0.2 3.2-0.6 4.7-1.2 1.9 0.7 3.8 1.1 5.8 1.2h30.4c1.5-0.2 3-0.5 4.5-0.9 1.5 0.4 3 0.7 4.5 0.9h8.6c2.2-0.1 4.3-0.6 6.3-1.3 2 0.8 4.2 1.2 6.4 1.3h8.6c2.5-0.1 4.9-0.6 7.2-1.5 0.5 0.1 0.9 0.3 1.4 0.4-2.3 1-4.6 2.3-6.6 3.8-3.1 2.4-6.1 5.5-8.4 9.8-0.2 0.3-0.4 0.7-0.6 1.1-1.8 3.9-2.7 8-2.7 12.5 0 3 0.4 6.4 1.5 9.8-1 2.4-1.5 5-1.5 7.7v7.7c0 9 6.1 17 14.9 19.3 3 0.8 5.9 1.3 8.2 1.6 3.4 0.5 6.8 0.6 9.9 0.6 3.2 0 6.7-0.3 10.4-1.3 2.1-0.4 4.3-1.1 6.6-2.1 2.8 1.6 6 2.5 9.2 2.6h30.4c1-0.1 2.1-0.3 3.1-0.6l3 0.6h7.4c1.2-0.2 2.3-0.4 3.4-0.7 1.1 0.3 2.2 0.5 3.3 0.7h7.3c1.1-0.2 2.2-0.4 3.3-0.7 1.1 0.3 2.2 0.5 3.3 0.7h7.5c2.2-0.1 4.4-0.5 6.4-1.3 3.8 1.5 7.7 2.1 11.4 2.1 3.2 0 6.2-0.5 9-1.3 0.8 0.2 1.7 0.4 2.5 0.5h7.4c1.7-0.1 3.4-0.5 5-1 1.6 0.5 3.3 0.9 5 1h30.4c2.4-0.1 4.8-0.5 7-1.4 0 0 0.1 0 0.1 0.1 3.9 1.5 8 2.1 12 2.1 2.9 0 5.5-0.4 8-1 0.5-0.1 0.9-0.2 1.4-0.4 1 0.2 1.9 0.4 2.9 0.6h7.3c4.1-0.1 8-1.5 11.3-3.9 2.4 1.4 4.9 2.4 7.2 3.1 3.7 1.1 7.8 1.6 11.7 1.6 2.3 0 4.9-0.2 7.8-0.7 1.9-0.3 3.8-0.6 5.2-0.9 1.5-0.5 2.9-1.1 4.3-1.9 0.7 0.3 1.5 0.7 2.3 1 4.7 1.8 9.4 2.5 14.2 2.5 5.3 0 10.3-0.9 15.1-2.9 0.1-0.1 0.2-0.1 0.3-0.1 0.4-0.2 0.9-0.5 1.4-0.7 2.9 1.8 6.3 2.8 9.7 2.9h8.8c11 0 20-9 20-20v-1.9h1.4c10.7 0 19.6-8.5 20-19.2 0.1-3.9-0.2-8.1-1.3-12.3-1.1-4-2.7-7.8-5.6-11.6-3.1-4.1-7-7-11.3-8.9-4.4-2-9-2.6-12.9-2.6-2.3 0-5.4 0.2-8.9 1.1h-0.1c-0.8-0.2-1.5-0.3-2.3-0.4h-7.8c-3.3 0.1-6.5 1-9.4 2.7-0.8-0.4-1.7-0.7-2.5-1-4.7-1.7-9.4-2.4-13.9-2.4-4.6 0-9.9 0.7-15 2.8-0.1 0-0.2 0-0.3 0.1-0.2 0.1-0.3 0.2-0.5 0.3-1.6-0.9-3.4-1.5-5.2-1.9-3.9-8.98-13.8-13.8-23.3-11.4l-8.8 2.3c-5.3 1.49-9.7 5.05-12.3 9.95-0.8-0.3-1.7-0.6-2.5-0.8-4.2-1.1-8.3-1.4-11.9-1.4s-7 0.3-10.4 0.9c-0.3 0.1-0.7 0.1-1 0.2-0.9 0.2-2.1 0.5-3.2 0.8-0.1-0.5-0.2-1.1-0.4-1.6 6-3.5 9.8-9.84 10-16.8v-7.22c0.8-1.62 1.3-3.33 1.6-5.09 0.2-2.08 0.2-4.1 0.2-5.06l-0.1 2.14c0.2-2.12 0.2-3.84 0.2-4.42 0-4.05-0.5-8.56-2.2-13.2-1.5-4.3-3.9-8.32-7.1-11.8-3.6-3.91-8-6.55-12-8.2-4.8-1.97-9.8-2.7-14.3-2.7-4.9 0-10.2 0.95-15.1 3.11-0.1 0-0.2 0.1-0.3 0.12-1.2 0.56-2.3 1.18-3.4 1.85-1.5-0.94-2.9-1.75-4.4-2.39-4.4-2.02-9.1-2.69-12.9-2.69-2.7 0-5.6 0.29-8.5 1.04-0.3 0-0.4 0.15-0.6 0.21-0.8-0.21-1.7-0.37-2.5-0.48h-7.4c-2.5 0-5 0.51-7.3 1.45-3.9-1.57-7.9-2.22-11.7-2.22-2.7 0-5.6 0.29-8.5 1.04-0.2 0-0.4 0.12-0.6 0.17-0.8-0.19-1.5-0.34-2.3-0.44h-7.7c-1.7 0.12-3.4 0.45-5 0.99-2-0.65-4.1-0.99-6.2-0.99h-8.6c-2 0.1-4.1 0.49-6 1.19-2.1-0.78-4.4-1.18-6.7-1.19h-8.6c-2.8 0-5.5 0.63-8 1.76-1.3-0.53-2.6-0.98-3.8-1.32-2.5-8.53-10.3-14.4-19.2-14.4h-8.5c-8.4 0.1-15.9 5.36-18.7 13.3-0.7 0-1.4-0.1-2-0.1-2.9 0-5.6 0.31-8.4 1.04-0.2 0-0.4 0.15-0.7 0.2-0.8-0.21-1.6-0.36-2.4-0.47h-7.4c-0.2 0-0.4 0.1-0.6 0.13-0.1-0.1-0.1-0.1-0.1-0.15-1.2-2.73-2.9-5.35-5.2-7.66-2.5-2.57-5.2-4.37-8.3-5.66-3.2-1.37-6.5-2.06-10-2.06zm10 2.06c0.1 0.1 0.2 0.1 0.3 0.11l-0.7-0.28c0.1 0 0.2 0.12 0.4 0.17zm8.3 5.66c0.1 0 0.1 0.1 0.1 0.1l-0.1-0.16v0.1zm196 9.6c0.1 0 0.2 0.1 0.3 0.11l-0.7-0.32c0.1 0.1 0.3 0.14 0.4 0.21zm37.5 0h0.1l-0.2-0.1h0.1zm118 71.8c0.1 0 0.3 0.1 0.4 0.1l-0.8-0.3c0.1 0.1 0.2 0.1 0.4 0.2zm43.9 0.2c0.1 0.1 0.2 0.1 0.3 0.1l-0.5-0.2c0.1 0.1 0.1 0.1 0.2 0.1zm11.3 8.9 0.1 0.1-0.1-0.2zm5.6 11.6v0.1-0.3zm-101 53.5c-0.2 0-0.4 0.1-0.7 0.1l1.1-0.1zm-242-0.6c-0.2 0.1-0.3 0.1-0.5 0.2l1-0.3c-0.2 0.1-0.3 0.1-0.5 0.1zm-159-71.8h-0.11l0.26-0.1c0 0.1-0.1 0.1-0.15 0.1zm-19.4 0.5h-0.12l0.28 0.1c-0.1-0.1-0.11-0.1-0.16-0.1zm-20.5-59.3v0.11-0.1zm92.5-24.4v-0.1l-0.1 0.14 0.1-0.1zm8.3-5.66c0.2 0 0.3-0.12 0.4-0.17l-0.7 0.28c0.1-0.1 0.2-0.1 0.3-0.11zm186 15.2 0.2 0.1h-0.1s-0.1 0-0.1-0.1z" fill="#fff"/>
		<path d="m78.6 78.6q0 3.06-1.37 5.24-1.34 2.15-3.59 3.52-2.21 1.33-5.06 1.93-2.81 0.63-5.77 0.63-3.93 0-7.1-0.38-3.16-0.36-5.97-1.06v-7.73q3.3 1.37 6.57 2 3.3 0.6 6.22 0.6 3.38 0 5.03-1.06 1.69-1.09 1.69-2.81 0-0.81-0.35-1.48-0.36-0.66-1.34-1.26-0.95-0.63-2.71-1.27-1.75-0.66-4.6-1.47-2.64-0.74-4.64-1.66-1.97-0.94-3.27-2.21t-1.97-2.92q-0.63-1.69-0.63-3.94 0-2.18 0.98-4.11t2.92-3.37q1.97-1.48 4.88-2.32 2.92-0.85 6.83-0.85 3.37 0 5.97 0.35 2.6 0.36 4.61 0.78v6.99q-3.06-0.98-5.77-1.37-2.67-0.42-5.31-0.42-2.63 0-4.25 0.95-1.58 0.95-1.58 2.64 0 0.8 0.31 1.44 0.32 0.63 1.23 1.23 0.95 0.6 2.61 1.26 1.68 0.64 4.43 1.41 3.09 0.88 5.2 1.9 2.11 0.98 3.37 2.25 1.3 1.26 1.87 2.88 0.56 1.62 0.56 3.69zm39.4 10.5h-9.5l-3.8-11.3-1.2-3.93-1.1 4.04-3.68 11.2h-9.56l-5.06-35.7h8.15l2.57 20.2 0.6 5.51 1.44-4.95 3.54-10.9h6.6l3.8 10.8 1.7 5.1 0.6-5.67 2.2-20.1h7.8zm31.3-45.5q0 1.16-0.4 2.18t-1.2 1.79q-0.7 0.74-1.8 1.2-1 0.42-2.2 0.42t-2.2-0.42q-1-0.46-1.8-1.2-0.8-0.77-1.2-1.79t-0.4-2.18 0.4-2.18 1.2-1.79 1.8-1.2q1-0.45 2.2-0.45t2.2 0.45q1.1 0.43 1.8 1.2 0.8 0.77 1.2 1.79t0.4 2.18zm-9.5 16.5h-10.1v-6.68h18.9v29h10.3v6.68h-30.4v-6.68h11.3zm49.4 29v-23.3q0-5.87-4.4-5.87-2.2 0-4.2 1.76-1.9 1.76-4.1 4.78v22.6h-8.6v-35.7h7.4l0.2 5.27q1.1-1.37 2.3-2.5 1.2-1.12 2.5-1.9 1.4-0.8 3-1.23 1.6-0.42 3.5-0.42 2.8 0 4.8 0.92 2 0.88 3.4 2.53 1.4 1.61 2.1 3.93 0.7 2.29 0.7 5.14v24zm50.4-18.5q0 4.92-1.4 8.51t-3.9 5.98q-2.4 2.35-5.8 3.51-3.4 1.13-7.4 1.13-3.9 0-7.2-0.6-3.4-0.56-6.4-1.55v-48.2h8.5v11.7l-0.3 7.03q1.9-2.49 4.5-4.01 2.6-1.51 6.2-1.51 3.2 0 5.6 1.27 2.5 1.26 4.1 3.62 1.7 2.32 2.6 5.66 0.9 3.3 0.9 7.45zm-9 0.35q0-2.95-0.4-5.02-0.4-2.08-1.3-3.41-0.7-1.34-1.9-1.94-1.1-0.63-2.6-0.63-2.2 0-4.2 1.76-1.9 1.76-4.2 4.78v15.6q1.1 0.38 2.5 0.63 1.5 0.25 3.1 0.25 2 0 3.7-0.85 1.7-0.84 2.8-2.39 1.2-1.54 1.9-3.76 0.6-2.25 0.6-5.03zm25-17.6v23.3q0 2.92 1 4.43 1.1 1.48 3.4 1.48 2.1 0 4.1-1.76 2-1.8 4.2-4.82v-22.6h8.6v35.7h-7.5l-0.2-5.27q-1.1 1.37-2.3 2.5-1.1 1.12-2.5 1.93-1.3 0.77-2.9 1.2-1.6 0.45-3.6 0.45-2.7 0-4.8-0.88-2-0.91-3.4-2.56t-2.1-3.94q-0.6-2.32-0.6-5.17v-24zm54 13.9q0.1-2-0.2-3.41-0.2-1.4-0.8-2.32-0.6-0.91-1.4-1.33-0.9-0.43-2-0.43-1.9 0-3.9 1.59-2 1.54-4.4 5.13v22.6h-8.8v-35.7h7.7l0.4 5.2q0.8-1.37 1.9-2.46 1.2-1.09 2.5-1.87 1.4-0.8 3-1.23 1.7-0.42 3.6-0.42 2.7 0 4.8 0.95 2.1 0.92 3.5 2.74 1.5 1.83 2.1 4.61 0.7 2.74 0.6 6.36zm37.9 21.8v-23.3q0-5.87-4.3-5.87-2.2 0-4.2 1.76t-4.2 4.78v22.6h-8.6v-35.7h7.4l0.2 5.27q1.1-1.37 2.3-2.5 1.2-1.12 2.6-1.9 1.3-0.8 2.9-1.23 1.6-0.42 3.6-0.42 2.7 0 4.8 0.92 2 0.88 3.4 2.53 1.3 1.61 2 3.93 0.7 2.29 0.7 5.14v24zm49.4-20.6q0 0.88-0.1 2.29 0 1.4-0.1 2.63h-23.5q0 2.36 0.7 4.15 0.8 1.8 2.1 3.03 1.3 1.19 3.1 1.82 1.9 0.64 4.1 0.64 2.6 0 5.6-0.39 3-0.42 6.2-1.34v6.83q-1.4 0.38-3 0.7-1.6 0.31-3.3 0.56t-3.4 0.35q-1.7 0.14-3.4 0.14-4 0-7.3-1.16-3.2-1.16-5.5-3.41-2.2-2.28-3.4-5.62t-1.2-7.74q0-4.36 1.2-7.91 1.2-3.58 3.4-6.11 2.2-2.57 5.2-3.94 3.2-1.41 7-1.41t6.7 1.2q2.9 1.16 4.9 3.27t3 5.02q1 2.92 1 6.4zm-8.7-1.23q0-2.11-0.5-3.65-0.6-1.59-1.6-2.61-0.9-1.02-2.2-1.51t-2.8-0.49q-3.2 0-5.3 2.18-2 2.14-2.4 6.08z"/>
		<path d="m237 151q0 3.1-1.3 5.3-1.4 2.1-3.6 3.5-2.2 1.3-5.1 1.9-2.8 0.7-5.8 0.7-3.9 0-7.1-0.4-3.1-0.4-5.9-1.1v-7.7q3.3 1.4 6.5 2 3.3 0.6 6.3 0.6 3.3 0 5-1.1t1.7-2.8q0-0.8-0.4-1.5-0.3-0.6-1.3-1.2-1-0.7-2.7-1.3-1.8-0.7-4.6-1.5-2.7-0.7-4.7-1.6-1.9-1-3.2-2.2-1.3-1.3-2-2.9-0.6-1.7-0.6-4 0-2.2 0.9-4.1 1-1.9 3-3.4 1.9-1.5 4.8-2.3 3-0.8 6.9-0.8 3.3 0 5.9 0.3 2.6 0.4 4.7 0.8v7q-3.1-1-5.8-1.4t-5.3-0.4q-2.7 0-4.3 0.9-1.6 1-1.6 2.7 0 0.8 0.4 1.4 0.3 0.7 1.2 1.2 0.9 0.6 2.6 1.3 1.7 0.6 4.4 1.4 3.1 0.9 5.2 1.9t3.4 2.3q1.3 1.2 1.9 2.9 0.5 1.6 0.5 3.6zm31.2-34.9q0 1.1-0.5 2.1-0.4 1.1-1.1 1.8-0.8 0.8-1.8 1.2-1 0.5-2.2 0.5t-2.3-0.5q-1-0.4-1.8-1.2-0.7-0.7-1.1-1.8-0.4-1-0.4-2.1 0-1.2 0.4-2.2t1.1-1.8q0.8-0.8 1.8-1.2 1.1-0.5 2.3-0.5t2.2 0.5q1 0.4 1.8 1.2 0.7 0.8 1.1 1.8 0.5 1 0.5 2.2zm-9.5 16.4h-10.1v-6.7h18.9v29.1h10.3v6.7h-30.4v-6.7h11.3zm53.2 29.1v-24.4q0-1.3 0-2.3-0.1-1-0.3-1.7-0.2-0.6-0.6-1-0.4-0.3-1.1-0.3-1.1 0-2.2 1.5-1 1.4-2.4 5v23.2h-7.3v-24.4q0-1.3-0.1-2.3t-0.3-1.7q-0.2-0.6-0.6-1-0.4-0.3-1.1-0.3-0.9 0-2.1 1.5-1.1 1.4-2.5 5v23.2h-7.4v-35.8h6.4l0.1 5.2q0.8-1.5 1.6-2.7 0.7-1.1 1.6-1.8t1.9-1.1q1-0.3 2.3-0.3 3 0 4.5 1.6 1.6 1.6 1.8 4.3 0.8-1.5 1.7-2.7 0.8-1.1 1.7-1.8t1.9-1.1q1.1-0.3 2.3-0.3 3.9 0 5.8 2.8 1.9 2.7 1.9 8v25.7zm22.9-35.8v23.3q0 2.9 1.1 4.4t3.3 1.5 4.1-1.7q2-1.8 4.3-4.9v-22.6h8.5v35.8h-7.4l-0.2-5.3q-1.1 1.4-2.3 2.5-1.1 1.1-2.5 1.9-1.3 0.8-3 1.2-1.5 0.5-3.5 0.5-2.7 0-4.8-0.9-2-0.9-3.4-2.6-1.4-1.6-2.1-3.9t-0.7-5.2v-24zm42.6-7.2h-10.1v-6.7h18.9v43h10.3v6.7h-30.4v-6.7h11.3zm50.5 43-0.2-4.7q-1.1 1.2-2.4 2.2-1.2 1-2.7 1.7-1.5 0.8-3.2 1.1-1.7 0.5-3.8 0.5-2.8 0-4.8-0.8-2.1-0.9-3.5-2.3t-2.2-3.5q-0.7-2-0.7-4.5t1.1-4.7q1.1-2.1 3.3-3.6 2.2-1.6 5.4-2.5 3.4-0.8 7.8-0.8h4.7v-2.2q0-1.4-0.4-2.5t-1.3-1.9q-0.8-0.7-2.2-1.1-1.4-0.5-3.4-0.5-3.2 0-6.2 0.8-3.1 0.7-6 2v-6.9q2.6-1 5.9-1.7 3.4-0.6 7-0.6 4 0 6.8 0.7 2.9 0.8 4.7 2.3 1.9 1.5 2.8 3.8 0.8 2.2 0.8 5.3v24.4zm-1.2-15.8h-5.3q-2.2 0-3.7 0.4t-2.4 1.2q-1 0.7-1.4 1.7-0.5 0.9-0.5 2 0 2.2 1.4 3.4 1.4 1.1 3.9 1.1 1.8 0 3.7-1.3t4.3-3.7zm47.8 15.4q-2.3 0.5-4.6 0.8-2.4 0.4-4.5 0.4-3.5 0-6.1-0.8-2.5-0.7-4.2-2.2t-2.5-3.9q-0.7-2.3-0.7-5.5v-17.5h-9.6v-6.7h9.6v-9.1l8.8-2.3v11.4h13.8v6.7h-13.8v16.8q0 3.1 1.4 4.7 1.4 1.5 4.7 1.5 2.1 0 4.1-0.3 2-0.4 3.6-0.9zm42.3-17.8q0 4.2-1.2 7.7t-3.4 6q-2.3 2.5-5.5 3.9-3.3 1.4-7.5 1.4-4 0-7.1-1.2t-5.3-3.4q-2.2-2.4-3.3-5.8-1.2-3.5-1.2-8.1 0-4.2 1.2-7.7t3.5-6q2.3-2.4 5.5-3.8 3.3-1.3 7.4-1.3 4 0 7.2 1.2 3.1 1.1 5.3 3.4 2.1 2.4 3.3 5.8 1.1 3.4 1.1 7.9zm-8.9 0.2q0-5.5-2.1-8.3t-6.2-2.8q-2.2 0-3.8 0.9-1.6 0.8-2.6 2.4-1 1.5-1.5 3.5-0.5 2.1-0.5 4.4 0 5.6 2.3 8.4 2.2 2.8 6.1 2.8 2.2 0 3.8-0.8 1.5-0.9 2.5-2.4t1.5-3.6 0.5-4.5zm39.3-3.9q0.1-2-0.2-3.4-0.2-1.4-0.8-2.3t-1.4-1.3q-0.9-0.5-2-0.5-1.9 0-3.9 1.6t-4.4 5.1v22.7h-8.8v-35.8h7.8l0.3 5.2q0.9-1.3 1.9-2.4 1.2-1.1 2.5-1.9 1.4-0.8 3-1.2 1.7-0.4 3.7-0.4 2.7 0 4.7 0.9 2.1 0.9 3.5 2.8 1.5 1.8 2.2 4.6 0.7 2.7 0.6 6.3z" fill="red"/>
	</g>
</svg>
