<svg width="1600" height="400" viewBox="0 0 1600 400" fill="none" xmlns="http://www.w3.org/2000/svg">
	<g clip-path="url(#clip0_306_418)">
		<rect width="1600" height="400" fill="#11111B" />
		<path
			d="M584.08 41.6H588.112L594.768 56.064H594.832L601.52 41.6H605.552V64H601.36V50.368H601.296L596.144 60.864H593.456L588.336 50.368H588.272V64H584.08V41.6ZM609.385 44.736V42.688L610.857 41.216H613.097L614.569 42.688V44.736L613.097 46.208H610.857L609.385 44.736ZM609.865 48.064H614.089V64H609.865V48.064ZM618.264 48.064H622.168V50.72L624.824 48.064H629.976L633.528 51.616V64H629.304V52.768L628.216 51.648H625.528L622.488 54.72V64H618.264V48.064ZM637.201 41.152H641.425V50.528L643.889 48.064H648.977L652.529 51.616V64H648.305V52.768L647.217 51.648H644.465L641.425 54.72V64H637.201V41.152ZM670.168 45.28H663.48V41.6H681.208V45.28H674.52V64H670.168V45.28ZM680.889 48.064H684.793V50.72L687.353 48.064H691.897V51.648H688.217L685.113 54.848V64H680.889V48.064ZM693.823 44.736V42.688L695.295 41.216H697.535L699.007 42.688V44.736L697.535 46.208H695.295L693.823 44.736ZM694.303 48.064H698.527V64H694.303V48.064ZM702.381 60.736V51.392L705.677 48.064H714.669L717.997 51.392V57.44H706.605V59.488L707.629 60.544H712.845L713.805 59.552V58.72H717.965V60.8L714.797 64H705.613L702.381 60.736ZM713.773 54.496V52.64L712.685 51.52H707.693L706.605 52.64V54.496H713.773ZM722.798 60.736V51.616H719.918V48.064H722.862V42.88H727.022V48.064H731.886V51.648H727.022V59.36L728.11 60.416H731.886V64H726.094L722.798 60.736ZM735.984 64H735.28L733.904 62.624V60.576L735.28 59.2H737.68L739.024 60.608V64L737.2 68.288H734.704L735.984 64ZM749.351 41.6H753.831L759.399 58.816H759.463L765.031 41.6H769.511L761.543 64H757.319L749.351 41.6ZM770.635 44.736V42.688L772.107 41.216H774.347L775.819 42.688V44.736L774.347 46.208H772.107L770.635 44.736ZM771.115 48.064H775.339V64H771.115V48.064ZM779.514 48.064H783.418V50.72L786.074 48.064H791.226L794.778 51.616V64H790.554V52.768L789.466 51.648H786.778L783.738 54.72V64H779.514V48.064ZM798.451 41.152H802.675V50.528L805.139 48.064H810.227L813.779 51.616V64H809.555V52.768L808.467 51.648H805.715L802.675 54.72V64H798.451V41.152ZM826.33 41.6H830.682V50.976H834.074L839.482 41.6H844.378L837.818 52.768L844.922 64H839.93L834.042 54.688H830.682V64H826.33V41.6ZM847.014 41.152H851.238V50.528L853.702 48.064H858.79L862.342 51.616V64H858.118V52.768L857.03 51.648H854.278L851.238 54.72V64H847.014V41.152ZM865.534 61.056V57.408L868.478 54.464H876.574V52.448L875.582 51.456H870.782L869.822 52.448V53.344H865.662V51.52L869.086 48.064H877.31L880.734 51.52V64H876.926V61.728L874.558 64H868.478L865.534 61.056ZM874.27 60.736L876.574 58.528V57.472H870.558L869.694 58.336V59.936L870.494 60.736H874.27ZM884.42 48.064H888.324V50.72L890.98 48.064H896.132L899.684 51.616V64H895.46V52.768L894.372 51.648H891.684L888.644 54.72V64H884.42V48.064ZM918.782 48.064V67.648L915.326 71.072H906.654L903.678 68.128V65.952H907.902V66.912L908.51 67.552H913.47L914.558 66.432V61.92L912.35 64H906.334L903.038 60.672V51.392L906.334 48.064H912.606L914.878 50.24V48.064H918.782ZM914.558 53.6L912.382 51.648H908.478L907.262 52.896V59.168L908.478 60.416H911.966L914.558 57.76V53.6Z"
			fill="#EFF1F5" />
		<path
			d="M585.2 186.088V179.688H593.776V183.464L595.888 185.576H609.136L611.312 183.4V175.976L609.2 173.864H592.24L585.328 166.952V155.112L592.24 148.2H612.464L619.376 155.112V161.576H610.8V157.736L608.688 155.624H596.016L593.904 157.736V164.328L596.016 166.44H612.976L619.888 173.352V185.96L612.848 193H592.112L585.2 186.088ZM623.718 161.128H632.294L635.942 181.224H636.198L641.958 161.128H649.638L654.95 181.224H655.206L659.238 161.128H667.814L659.558 193H651.686L645.798 171.496H645.542L639.27 193H631.398L623.718 161.128ZM672.583 154.472V150.376L675.527 147.432H680.007L682.951 150.376V154.472L680.007 157.416H675.527L672.583 154.472ZM673.543 161.128H681.991V193H673.543V161.128ZM690.34 161.128H698.148V166.44L703.46 161.128H713.764L720.868 168.232V193H712.42V170.536L710.244 168.296H704.868L698.788 174.44V193H690.34V161.128ZM728.215 186.088V147.304H736.663V165.544L741.335 161.128H752.983L759.575 167.784V186.344L752.983 193H735.063L728.215 186.088ZM748.695 185.832L751.127 183.336V170.792L748.695 168.296H742.423L736.663 174.056V183.336L739.095 185.832H748.695ZM766.27 186.28V161.128H774.718V183.656L776.894 185.832H782.014L788.286 179.56V161.128H796.734V193H788.926V187.56L783.422 193H772.99L766.27 186.28ZM804.403 161.128H812.211V166.44L817.331 161.128H826.419V168.296H819.059L812.851 174.696V193H804.403V161.128ZM830.59 161.128H838.398V166.44L843.71 161.128H854.014L861.118 168.232V193H852.67V170.536L850.494 168.296H845.118L839.038 174.44V193H830.59V161.128ZM867.825 186.472V167.784L874.417 161.128H892.401L899.057 167.784V179.88H876.273V183.976L878.321 186.088H888.753L890.673 184.104V182.44H898.993V186.6L892.657 193H874.289L867.825 186.472ZM890.609 173.992V170.28L888.433 168.04H878.449L876.273 170.28V173.992H890.609ZM922.575 186.088V179.688H931.151V183.464L933.263 185.576H946.511L948.687 183.4V175.976L946.575 173.864H929.615L922.703 166.952V155.112L929.615 148.2H949.839L956.751 155.112V161.576H948.175V157.736L946.063 155.624H933.391L931.279 157.736V164.328L933.391 166.44H950.351L957.263 173.352V185.96L950.223 193H929.487L922.575 186.088ZM963.645 154.472V150.376L966.589 147.432H971.069L974.013 150.376V154.472L971.069 157.416H966.589L963.645 154.472ZM964.605 161.128H973.053V193H964.605V161.128ZM981.403 161.128H989.211V166.376L994.395 161.128H1002.46L1006.81 165.544L1011.16 161.128H1022.3L1029.15 168.04V193H1020.7V170.536L1018.52 168.296H1013.15L1009.75 171.688V193H1001.56V170.408L999.515 168.296H995.675L989.851 174.184V193H981.403V161.128ZM1036.21 186.28V161.128H1044.66V183.656L1046.83 185.832H1051.95L1058.22 179.56V161.128H1066.67V193H1058.86V187.56L1053.36 193H1042.93L1036.21 186.28ZM1074.66 147.304H1083.11V193H1074.66V147.304ZM1090.13 187.112V179.816L1096.02 173.928H1112.21V169.896L1110.23 167.912H1100.63L1098.71 169.896V171.688H1090.39V168.04L1097.23 161.128H1113.68L1120.53 168.04V193H1112.91V188.456L1108.18 193H1096.02L1090.13 187.112ZM1107.6 186.472L1112.21 182.056V179.944H1100.18L1098.45 181.672V184.872L1100.05 186.472H1107.6ZM1130.16 186.472V168.232H1124.4V161.128H1130.29V150.76H1138.61V161.128H1148.33V168.296H1138.61V183.72L1140.78 185.832H1148.33V193H1136.75L1130.16 186.472ZM1152.2 186.344V167.784L1158.79 161.128H1177.1L1183.69 167.784V186.344L1177.1 193H1158.79L1152.2 186.344ZM1173 185.96L1175.24 183.72V170.408L1173 168.168H1162.89L1160.65 170.408V183.72L1162.89 185.96H1173ZM1190.72 161.128H1198.52V166.44L1203.64 161.128H1212.73V168.296H1205.37L1199.16 174.696V193H1190.72V161.128Z"
			fill="#EFF1F5" />
		<path
			d="M582.36 233.8H587.4L593.664 253.168H593.736L600 233.8H605.04L596.076 259H591.324L582.36 233.8ZM606.304 237.328V235.024L607.96 233.368H610.48L612.136 235.024V237.328L610.48 238.984H607.96L606.304 237.328ZM606.844 241.072H611.596V259H606.844V241.072ZM615.393 255.472V253.276H620.073V254.284L620.865 255.112H626.697L627.489 254.284V252.736L626.661 251.872H618.921L615.537 248.452V244.528L618.957 241.072H628.317L631.809 244.6V246.796H627.129V245.788L626.337 244.96H621.009L620.217 245.788V247.192L621.045 248.056H628.785L632.169 251.476V255.544L628.749 259H618.885L615.393 255.472ZM635.414 237.328V235.024L637.07 233.368H639.59L641.246 235.024V237.328L639.59 238.984H637.07L635.414 237.328ZM635.954 241.072H640.706V259H635.954V241.072ZM647.022 255.328V245.068H643.782V241.072H647.094V235.24H651.774V241.072H657.246V245.104H651.774V253.78L652.998 254.968H657.246V259H650.73L647.022 255.328ZM671.737 255.328V245.068H668.497V241.072H671.809V235.24H676.489V241.072H681.961V245.104H676.489V253.78L677.713 254.968H681.961V259H675.445L671.737 255.328ZM685.023 233.296H689.775V243.844L692.547 241.072H698.271L702.267 245.068V259H697.515V246.364L696.291 245.104H693.195L689.775 248.56V259H685.023V233.296ZM706.038 255.328V244.816L709.746 241.072H719.862L723.606 244.816V251.62H710.79V253.924L711.942 255.112H717.81L718.89 253.996V253.06H723.57V255.4L720.006 259H709.674L706.038 255.328ZM718.854 248.308V246.22L717.63 244.96H712.014L710.79 246.22V248.308H718.854ZM736.835 255.112V251.512H741.659V253.636L742.847 254.824H750.299L751.523 253.6V249.424L750.335 248.236H740.795L736.907 244.348V237.688L740.795 233.8H752.171L756.059 237.688V241.324H751.235V239.164L750.047 237.976H742.919L741.731 239.164V242.872L742.919 244.06H752.459L756.347 247.948V255.04L752.387 259H740.723L736.835 255.112ZM758.501 241.072H763.325L765.377 252.376H765.521L768.761 241.072H773.081L776.069 252.376H776.213L778.481 241.072H783.305L778.661 259H774.233L770.921 246.904H770.777L767.249 259H762.821L758.501 241.072ZM785.988 237.328V235.024L787.644 233.368H790.164L791.82 235.024V237.328L790.164 238.984H787.644L785.988 237.328ZM786.528 241.072H791.28V259H786.528V241.072ZM795.976 241.072H800.368V244.06L803.356 241.072H809.152L813.148 245.068V259H808.396V246.364L807.172 245.104H804.148L800.728 248.56V259H795.976V241.072ZM817.281 255.112V233.296H822.033V243.556L824.661 241.072H831.213L834.921 244.816V255.256L831.213 259H821.133L817.281 255.112ZM828.801 254.968L830.169 253.564V246.508L828.801 245.104H825.273L822.033 248.344V253.564L823.401 254.968H828.801ZM838.687 255.22V241.072H843.439V253.744L844.663 254.968H847.543L851.071 251.44V241.072H855.823V259H851.431V255.94L848.335 259H842.467L838.687 255.22ZM860.137 241.072H864.529V244.06L867.409 241.072H872.521V245.104H868.381L864.889 248.704V259H860.137V241.072ZM874.867 241.072H879.259V244.06L882.247 241.072H888.043L892.039 245.068V259H887.287V246.364L886.063 245.104H883.039L879.619 248.56V259H874.867V241.072ZM895.812 255.328V244.816L899.52 241.072H909.636L913.38 244.816V251.62H900.564V253.924L901.716 255.112H907.584L908.664 253.996V253.06H913.344V255.4L909.78 259H899.448L895.812 255.328ZM908.628 248.308V246.22L907.404 244.96H901.788L900.564 246.22V248.308H908.628ZM927.149 233.8H932.045V244.348H942.701V233.8H947.597V259H942.701V248.524H932.045V259H927.149V233.8ZM951.925 254.86V237.94L956.065 233.8H968.377L972.445 237.868V241.72H967.549V239.668L965.857 237.976H958.657L956.821 239.812V252.988L958.657 254.824H965.857L967.549 253.132V251.08H972.445V254.932L968.377 259H956.065L951.925 254.86ZM975.875 233.8H980.411L987.899 250.072H987.971L995.495 233.8H1000.03V259H995.315V243.664H995.243L989.447 255.472H986.423L980.663 243.664H980.591V259H975.875V233.8ZM1004.34 254.86V237.94L1008.48 233.8H1020.8L1024.86 237.868V241.72H1019.97V239.668L1018.28 237.976H1011.08L1009.24 239.812V252.988L1011.08 254.824H1018.28L1019.97 253.132V251.08H1024.86V254.932L1020.8 259H1008.48L1004.34 254.86ZM1037.74 254.86V237.94L1041.88 233.8H1054.19L1058.26 237.868V241.72H1053.37V239.668L1051.67 237.976H1044.47L1042.64 239.812V252.988L1044.47 254.824H1051.67L1053.37 253.132V251.08H1058.26V254.932L1054.19 259H1041.88L1037.74 254.86ZM1060.97 255.688V251.584L1064.28 248.272H1073.39V246.004L1072.28 244.888H1066.88L1065.8 246.004V247.012H1061.12V244.96L1064.97 241.072H1074.22L1078.07 244.96V259H1073.79V256.444L1071.12 259H1064.28L1060.97 255.688ZM1070.8 255.328L1073.39 252.844V251.656H1066.62L1065.65 252.628V254.428L1066.55 255.328H1070.8ZM1082.22 241.072H1086.61V244.024L1089.53 241.072H1094.06L1096.51 243.556L1098.96 241.072H1105.22L1109.07 244.96V259H1104.32V246.364L1103.1 245.104H1100.07L1098.17 247.012V259H1093.56V246.292L1092.41 245.104H1090.25L1086.97 248.416V259H1082.22V241.072ZM1113.23 241.072H1117.62V243.7L1120.25 241.072H1127.23L1130.94 244.816V255.256L1127.23 259H1120.28L1117.98 257.092V266.632H1113.23V241.072ZM1124.93 254.968L1126.19 253.708V246.364L1124.93 245.104H1120.86L1117.98 248.02V252.412L1120.82 254.968H1124.93ZM1134.7 255.22V241.072H1139.45V253.744L1140.68 254.968H1143.56L1147.09 251.44V241.072H1151.84V259H1147.45V255.94L1144.35 259H1138.48L1134.7 255.22ZM1155.25 255.472V253.276H1159.93V254.284L1160.72 255.112H1166.56L1167.35 254.284V252.736L1166.52 251.872H1158.78L1155.4 248.452V244.528L1158.82 241.072H1168.18L1171.67 244.6V246.796H1166.99V245.788L1166.2 244.96H1160.87L1160.08 245.788V247.192L1160.9 248.056H1168.64L1172.03 251.476V255.544L1168.61 259H1158.74L1155.25 255.472ZM1183.1 241.072H1188.03L1192.21 253.564H1192.35L1196.53 241.072H1201.46L1194.59 259H1189.98L1183.1 241.072ZM1203.43 237.328V235.024L1205.09 233.368H1207.61L1209.27 235.024V237.328L1207.61 238.984H1205.09L1203.43 237.328ZM1203.97 241.072H1208.73V259H1203.97V241.072ZM1212.88 255.688V251.584L1216.19 248.272H1225.3V246.004L1224.19 244.888H1218.79L1217.71 246.004V247.012H1213.03V244.96L1216.88 241.072H1226.13L1229.98 244.96V259H1225.7V256.444L1223.03 259H1216.19L1212.88 255.688ZM1222.71 255.328L1225.3 252.844V251.656H1218.53L1217.56 252.628V254.428L1218.46 255.328H1222.71ZM1245.56 255.328V245.068H1242.32V241.072H1245.63V235.24H1250.31V241.072H1255.78V245.104H1250.31V253.78L1251.53 254.968H1255.78V259H1249.27L1245.56 255.328ZM1258.84 233.296H1263.6V243.844L1266.37 241.072H1272.09L1276.09 245.068V259H1271.34V246.364L1270.11 245.104H1267.02L1263.6 248.56V259H1258.84V233.296ZM1279.86 255.328V244.816L1283.57 241.072H1293.68L1297.43 244.816V251.62H1284.61V253.924L1285.76 255.112H1291.63L1292.71 253.996V253.06H1297.39V255.4L1293.83 259H1283.49L1279.86 255.328ZM1292.67 248.308V246.22L1291.45 244.96H1285.83L1284.61 246.22V248.308H1292.67ZM1310.66 255.112V251.512H1315.48V253.636L1316.67 254.824H1324.12L1325.34 253.6V249.424L1324.16 248.236H1314.62L1310.73 244.348V237.688L1314.62 233.8H1325.99L1329.88 237.688V241.324H1325.06V239.164L1323.87 237.976H1316.74L1315.55 239.164V242.872L1316.74 244.06H1326.28L1330.17 247.948V255.04L1326.21 259H1314.54L1310.66 255.112ZM1333.4 255.328V244.744L1337.04 241.072H1346.9L1350.61 244.816V248.128H1345.86V246.364L1344.6 245.104H1339.41L1338.15 246.364V253.708L1339.41 254.968H1344.6L1345.86 253.708V251.944H1350.61V255.256L1346.9 259H1337.04L1333.4 255.328ZM1353.84 241.072H1358.23V244.06L1361.11 241.072H1366.22V245.104H1362.08L1358.59 248.704V259H1353.84V241.072ZM1367.29 255.328V244.816L1371 241.072H1381.12L1384.86 244.816V251.62H1372.04V253.924L1373.2 255.112H1379.06L1380.14 253.996V253.06H1384.82V255.4L1381.26 259H1370.93L1367.29 255.328ZM1380.11 248.308V246.22L1378.88 244.96H1373.27L1372.04 246.22V248.308H1380.11ZM1388.28 255.328V244.816L1391.99 241.072H1402.1L1405.85 244.816V251.62H1393.03V253.924L1394.18 255.112H1400.05L1401.13 253.996V253.06H1405.81V255.4L1402.25 259H1391.92L1388.28 255.328ZM1401.1 248.308V246.22L1399.87 244.96H1394.26L1393.03 246.22V248.308H1401.1ZM1409.63 241.072H1414.02V244.06L1417.01 241.072H1422.8L1426.8 245.068V259H1422.05V246.364L1420.82 245.104H1417.8L1414.38 248.56V259H1409.63V241.072Z"
			fill="#EFF1F5" />
		<path
			d="M583.76 354.32V339.28L587.44 335.6H598.384L602 339.216V342.64H597.648V340.816L596.144 339.312H589.744L588.112 340.944V352.656L589.744 354.288H596.144L597.648 352.784V350.96H602V354.384L598.384 358H587.44L583.76 354.32ZM620.793 344.688L620.089 348.784H623.993V352.432H619.449L618.489 358H614.265L615.225 352.432H611.673L610.713 358H606.489L607.449 352.432H604.249V348.784H608.089L608.793 344.688H604.889V341.04H609.433L610.361 335.6H614.585L613.657 341.04H617.209L618.137 335.6H622.361L621.433 341.04H624.633V344.688H620.793ZM616.569 344.688H613.017L612.313 348.784H615.865L616.569 344.688ZM636.705 330.928H640.993V364.528H636.705V330.928ZM653.541 354.32V339.28L657.221 335.6H668.357L671.973 339.216V342.64H667.621V340.816L666.117 339.312H659.525L657.893 340.944V352.656L659.525 354.288H666.181L667.749 352.72V349.232H662.949V345.52H671.973V354.32L668.293 358H657.221L653.541 354.32ZM675.486 335.6H689.822L693.662 339.44V354.16L689.822 358H675.486V335.6ZM687.678 354.288L689.31 352.656V340.944L687.678 339.312H679.838V354.288H687.678ZM697.038 354.544V351.344H701.326V353.232L702.382 354.288H709.006L710.094 353.2V349.488L709.038 348.432H700.558L697.102 344.976V339.056L700.558 335.6H710.67L714.126 339.056V342.288H709.838V340.368L708.782 339.312H702.446L701.39 340.368V343.664L702.446 344.72H710.926L714.382 348.176V354.48L710.862 358H700.494L697.038 354.544ZM717.256 354.736V345.328L720.488 342.064H729.256L732.552 345.392V348.336H728.328V346.768L727.208 345.648H722.6L721.48 346.768V353.296L722.6 354.416H727.208L728.328 353.296V351.728H732.552V354.672L729.256 358H720.488L717.256 354.736ZM735.42 342.064H739.324V344.72L741.884 342.064H746.428V345.648H742.748L739.644 348.848V358H735.42V342.064ZM748.354 338.736V336.688L749.826 335.216H752.066L753.538 336.688V338.736L752.066 340.208H749.826L748.354 338.736ZM748.834 342.064H753.058V358H748.834V342.064ZM757.233 342.064H761.137V344.4L763.473 342.064H769.681L772.977 345.392V354.672L769.681 358H763.505L761.457 356.304V364.784H757.233V342.064ZM767.633 354.416L768.753 353.296V346.768L767.633 345.648H764.017L761.457 348.24V352.144L763.985 354.416H767.633ZM777.454 354.736V345.616H774.574V342.064H777.518V336.88H781.678V342.064H786.542V345.648H781.678V353.36L782.766 354.416H786.542V358H780.75L777.454 354.736ZM798.143 330.928H802.431V364.528H798.143V330.928ZM814.499 356.624V354.576L815.875 353.2H818.211L819.555 354.608V356.592L818.211 358H815.875L814.499 356.624ZM822.924 335.6H826.828L836.812 350.8H836.876V335.6H841.068V358H837.164L827.18 342.832H827.116V358H822.924V335.6ZM845.236 335.6H861.428V339.28H849.588V344.944H860.5V348.56H849.588V354.32H861.428V358H845.236V335.6ZM869.731 339.28H863.043V335.6H880.771V339.28H874.083V358H869.731V339.28ZM892.049 335.6H896.081L902.737 350.064H902.801L909.489 335.6H913.521V358H909.329V344.368H909.265L904.113 354.864H901.425L896.305 344.368H896.241V358H892.049V335.6ZM917.194 354.672V345.392L920.49 342.064H929.642L932.938 345.392V354.672L929.642 358H920.49L917.194 354.672ZM927.594 354.48L928.714 353.36V346.704L927.594 345.584H922.538L921.418 346.704V353.36L922.538 354.48H927.594ZM936.451 342.064H940.355V344.72L943.011 342.064H948.163L951.715 345.616V358H947.491V346.768L946.403 345.648H943.715L940.675 348.72V358H936.451V342.064ZM955.069 354.672V345.392L958.365 342.064H967.517L970.813 345.392V354.672L967.517 358H958.365L955.069 354.672ZM965.469 354.48L966.589 353.36V346.704L965.469 345.584H960.413L959.293 346.704V353.36L960.413 354.48H965.469ZM983.205 330.928H987.493V364.528H983.205V330.928ZM1000.04 354.32V339.28L1003.72 335.6H1014.86L1018.47 339.216V342.64H1014.12V340.816L1012.62 339.312H1006.03L1004.39 340.944V352.656L1006.03 354.288H1012.68L1014.25 352.72V349.232H1009.45V345.52H1018.47V354.32L1014.79 358H1003.72L1000.04 354.32ZM1021.51 354.672V345.392L1024.8 342.064H1033.95L1037.25 345.392V354.672L1033.95 358H1024.8L1021.51 354.672ZM1031.91 354.48L1033.03 353.36V346.704L1031.91 345.584H1026.85L1025.73 346.704V353.36L1026.85 354.48H1031.91ZM1040.44 354.672V345.392L1043.74 342.064H1050.08L1051.96 343.696V335.152H1056.19V358H1052.22V355.536L1049.76 358H1043.74L1040.44 354.672ZM1049.37 354.416L1051.96 351.76V347.6L1049.79 345.648H1045.88L1044.67 346.896V353.168L1045.88 354.416H1049.37ZM1059.69 354.672V345.392L1062.99 342.064H1072.14L1075.44 345.392V354.672L1072.14 358H1062.99L1059.69 354.672ZM1070.09 354.48L1071.21 353.36V346.704L1070.09 345.584H1065.04L1063.92 346.704V353.36L1065.04 354.48H1070.09ZM1079.92 354.736V345.616H1077.04V342.064H1079.99V336.88H1084.15V342.064H1089.01V345.648H1084.15V353.36L1085.23 354.416H1089.01V358H1083.22L1079.92 354.736ZM1100.61 335.6H1116.8V339.28H1104.96V344.944H1115.88V348.56H1104.96V354.32H1116.8V358H1100.61V335.6ZM1119.86 342.064H1123.76V344.72L1126.42 342.064H1131.57L1135.12 345.616V358H1130.9V346.768L1129.81 345.648H1127.12L1124.08 348.72V358H1119.86V342.064ZM1154.22 342.064V361.648L1150.76 365.072H1142.09L1139.12 362.128V359.952H1143.34V360.912L1143.95 361.552H1148.91L1150 360.432V355.92L1147.79 358H1141.77L1138.48 354.672V345.392L1141.77 342.064H1148.04L1150.32 344.24V342.064H1154.22ZM1150 347.6L1147.82 345.648H1143.92L1142.7 346.896V353.168L1143.92 354.416H1147.4L1150 351.76V347.6ZM1157.89 338.736V336.688L1159.36 335.216H1161.6L1163.07 336.688V338.736L1161.6 340.208H1159.36L1157.89 338.736ZM1158.37 342.064H1162.59V358H1158.37V342.064ZM1166.76 342.064H1170.67V344.72L1173.32 342.064H1178.48L1182.03 345.616V358H1177.8V346.768L1176.72 345.648H1174.03L1170.99 348.72V358H1166.76V342.064ZM1185.38 354.736V345.392L1188.68 342.064H1197.67L1201 345.392V351.44H1189.61V353.488L1190.63 354.544H1195.85L1196.81 353.552V352.72H1200.97V354.8L1197.8 358H1188.61L1185.38 354.736ZM1196.77 348.496V346.64L1195.69 345.52H1190.69L1189.61 346.64V348.496H1196.77Z"
			fill="#EFF1F5" />
		<g clip-path="url(#clip1_306_418)">
			<path d="M60 80L203.333 0L346.667 80L203.333 160L60 80Z" fill="black" stroke="#EFF1F5" stroke-width="16"
				stroke-linejoin="round" />
			<path d="M203.333 320L60 240V80L203.333 160V320Z" fill="black" stroke="#EFF1F5" stroke-width="16"
				stroke-linejoin="round" />
			<path d="M346.667 400L490 320V160L346.667 240V400Z" fill="#ED1C2E" stroke="#EFF1F5" stroke-width="16"
				stroke-linejoin="round" />
			<path d="M346.667 400L203.333 320V160L346.667 240V400Z" fill="#ED1C2E" stroke="#EFF1F5" stroke-width="16"
				stroke-linejoin="round" />
			<path d="M203.333 160L346.667 80L490 160L346.667 240L203.333 160Z" fill="#ED1C2E" stroke="#EFF1F5"
				stroke-width="16" stroke-linejoin="round" />
		</g>
	</g>
	<defs>
		<clipPath id="clip0_306_418">
			<rect width="1600" height="400" fill="white" />
		</clipPath>
		<clipPath id="clip1_306_418">
			<rect width="550" height="400" fill="white" />
		</clipPath>
	</defs>
</svg>