<svg width="128" height="128" viewBox="0 0 128 128" fill="none" xmlns="http://www.w3.org/2000/svg">
	<mask id="path-1-outside-1_203_2" maskUnits="userSpaceOnUse" x="7" y="6.86907" width="115" height="115"
		fill="black">
		<rect fill="white" x="7" y="6.86907" width="115" height="115" />
		<path
			d="M34.7093 15.887C34.362 15.6555 32.5098 17.74 32.3361 17.74C32.1046 18.4346 31.3521 19.3016 31.41 20.0541C31.5257 22.7167 33.4938 24.2221 32.6834 27.3478C31.873 30.4735 30.0786 33.8894 30.1365 37.1888C30.1365 41.5879 33.7832 47.2606 37.6614 49.9232C38.356 50.3863 39.9767 50.6163 40.5555 50.9636C41.8869 51.7161 42.4078 52.6428 43.7391 53.048C44.3758 53.2796 45.7072 52.874 46.286 52.9898C49.1208 54.6177 51.8297 56.4558 54.3897 58.4887C54.737 59.1833 54.0424 61.0365 53.5793 61.6154C52.1322 63.4676 49.9905 63.4664 48.254 63.1769L47.6752 63.5833C46.8648 63.1202 45.9966 62.7153 45.3599 62.1365C44.7231 61.5577 43.7391 60.3995 43.7391 59.8206C43.7391 59.2418 38.9927 57.3885 37.9508 56.9255C35.867 56.173 30.889 56.174 28.6895 57.3317C27.5318 57.9684 25.448 60.2843 24.464 61.1526C24.0009 61.5578 23.1326 61.7308 22.7275 62.3096C20.991 64.5092 20.4121 68.1558 19.2545 70.2975C18.3283 71.9182 16.7076 73.0762 16.1866 74.5812C15.6657 76.0861 16.2445 76.4324 17.8074 78.1689C17.8074 78.1689 22.0329 81.0639 23.7694 83.0319C26.296 85.366 29.459 86.8965 32.8571 87.4304C34.7 87.2331 36.5345 86.9624 38.356 86.6196C40.0925 86.3881 42.813 85.1154 44.4337 83.7262C46.2236 81.2589 47.8665 78.6886 49.3538 76.0279C49.4696 75.6228 54.2739 70.0072 56.2998 71.1649C56.5314 71.3386 59.194 73.6549 59.7728 74.8126C60.0622 75.5651 59.7149 77.8806 59.3676 78.5752C58.4415 80.4854 55.8946 81.237 53.9845 83.2051C52.4909 85.1162 51.1918 87.1726 50.1063 89.3417C49.7011 90.3258 49.9905 91.657 49.9905 92.8146C49.9326 95.9403 50.1642 99.8188 53.6372 103.581C54.216 104.16 55.9525 105.316 56.5313 105.895C58.8467 108.211 61.683 112.609 64.2877 112.088C66.8925 111.567 68.0501 108.501 71.2337 106.764C74.4795 105.014 77.1069 102.305 78.7586 99.0078C79.2795 97.7343 79.1059 94.9559 79.2216 93.5088C79.2216 93.3352 78.2955 89.1086 77.4851 87.3721C76.9063 86.0987 76.3853 84.1885 75.054 82.6257C73.3754 80.1946 69.3815 79.154 68.3974 76.8387C68.2817 76.7229 68.8605 75.7957 68.8605 75.68C68.8605 74.8696 68.2817 74.4066 68.1659 73.9436C68.0501 73.4805 68.9763 70.4718 69.3236 70.1245C72.2177 67.5776 76.3853 68.5037 78.0061 70.1245C80.2635 72.3819 79.7426 75.1593 81.016 77.4746C83.8523 82.5105 91.2614 85.8683 95.0817 85.2895C96.6114 85.0874 98.1216 84.7584 99.5966 84.3056C101.912 83.1479 103.706 80.8316 104.98 79.6739C106.774 77.8795 110.652 76.2017 111.81 74.0601C112.736 72.4393 110.016 67.4608 109.263 65.4928C108.337 63.0617 106.137 57.8529 103.591 56.1164C102.171 55.6039 100.721 55.1784 99.2493 54.8428C98.6126 54.727 97.2812 55.2483 96.7024 54.901L96.2972 54.3217C93.3559 54.7689 90.4917 55.6265 87.7884 56.8689C83.8523 58.9527 82.2895 61.0936 78.064 61.4988C76.7827 60.7852 75.6127 59.8887 74.591 58.8367C74.2437 58.2 74.7067 56.6952 74.8225 56.1164C76.3275 49.2283 86.3992 51.3691 90.451 49.5169C92.7664 48.5329 94.3871 46.4499 95.3711 44.887C96.8727 41.6031 97.6052 38.0199 97.5128 34.4101C97.2812 33.1367 94.8501 25.9584 95.892 22.8327C96.1236 22.0224 96.7603 20.1702 96.4709 19.3598C95.9262 18.9032 95.4226 18.3995 94.9659 17.8548C92.8242 18.6073 91.2035 19.8808 88.946 20.3438C86.6886 20.8069 83.9681 20.2858 81.8264 20.5752C77.543 21.0962 72.1599 23.701 70.0182 28.3317C65.7348 37.5352 70.1339 43.2079 70.3655 44.8287C70.5391 45.5812 70.8864 45.4082 70.9443 46.1606C71.0022 48.2444 66.8346 51.1378 64.7508 50.7905C63.2458 50.559 60.5253 47.7237 60.3517 45.6978C60.3517 45.6978 60.7568 41.7607 60.9305 41.0661C61.1982 39.9222 61.3916 38.7623 61.5093 37.5933C61.3936 35.5674 61.9724 32.2685 61.0463 30.1847C60.1651 28.2393 59.1396 26.3616 57.9784 24.5692C55.5493 22.9005 53.0378 21.3559 50.4536 19.9393L46.6912 19.533C44.6082 19.4027 42.5243 19.288 40.4398 19.1868C38.5243 18.0962 36.6142 16.996 34.7093 15.887Z" />
	</mask>
	<path
		d="M34.7093 15.887C34.362 15.6555 32.5098 17.74 32.3361 17.74C32.1046 18.4346 31.3521 19.3016 31.41 20.0541C31.5257 22.7167 33.4938 24.2221 32.6834 27.3478C31.873 30.4735 30.0786 33.8894 30.1365 37.1888C30.1365 41.5879 33.7832 47.2606 37.6614 49.9232C38.356 50.3863 39.9767 50.6163 40.5555 50.9636C41.8869 51.7161 42.4078 52.6428 43.7391 53.048C44.3758 53.2796 45.7072 52.874 46.286 52.9898C49.1208 54.6177 51.8297 56.4558 54.3897 58.4887C54.737 59.1833 54.0424 61.0365 53.5793 61.6154C52.1322 63.4676 49.9905 63.4664 48.254 63.1769L47.6752 63.5833C46.8648 63.1202 45.9966 62.7153 45.3599 62.1365C44.7231 61.5577 43.7391 60.3995 43.7391 59.8206C43.7391 59.2418 38.9927 57.3885 37.9508 56.9255C35.867 56.173 30.889 56.174 28.6895 57.3317C27.5318 57.9684 25.448 60.2843 24.464 61.1526C24.0009 61.5578 23.1326 61.7308 22.7275 62.3096C20.991 64.5092 20.4121 68.1558 19.2545 70.2975C18.3283 71.9182 16.7076 73.0762 16.1866 74.5812C15.6657 76.0861 16.2445 76.4324 17.8074 78.1689C17.8074 78.1689 22.0329 81.0639 23.7694 83.0319C26.296 85.366 29.459 86.8965 32.8571 87.4304C34.7 87.2331 36.5345 86.9624 38.356 86.6196C40.0925 86.3881 42.813 85.1154 44.4337 83.7262C46.2236 81.2589 47.8665 78.6886 49.3538 76.0279C49.4696 75.6228 54.2739 70.0072 56.2998 71.1649C56.5314 71.3386 59.194 73.6549 59.7728 74.8126C60.0622 75.5651 59.7149 77.8806 59.3676 78.5752C58.4415 80.4854 55.8946 81.237 53.9845 83.2051C52.4909 85.1162 51.1918 87.1726 50.1063 89.3417C49.7011 90.3258 49.9905 91.657 49.9905 92.8146C49.9326 95.9403 50.1642 99.8188 53.6372 103.581C54.216 104.16 55.9525 105.316 56.5313 105.895C58.8467 108.211 61.683 112.609 64.2877 112.088C66.8925 111.567 68.0501 108.501 71.2337 106.764C74.4795 105.014 77.1069 102.305 78.7586 99.0078C79.2795 97.7343 79.1059 94.9559 79.2216 93.5088C79.2216 93.3352 78.2955 89.1086 77.4851 87.3721C76.9063 86.0987 76.3853 84.1885 75.054 82.6257C73.3754 80.1946 69.3815 79.154 68.3974 76.8387C68.2817 76.7229 68.8605 75.7957 68.8605 75.68C68.8605 74.8696 68.2817 74.4066 68.1659 73.9436C68.0501 73.4805 68.9763 70.4718 69.3236 70.1245C72.2177 67.5776 76.3853 68.5037 78.0061 70.1245C80.2635 72.3819 79.7426 75.1593 81.016 77.4746C83.8523 82.5105 91.2614 85.8683 95.0817 85.2895C96.6114 85.0874 98.1216 84.7584 99.5966 84.3056C101.912 83.1479 103.706 80.8316 104.98 79.6739C106.774 77.8795 110.652 76.2017 111.81 74.0601C112.736 72.4393 110.016 67.4608 109.263 65.4928C108.337 63.0617 106.137 57.8529 103.591 56.1164C102.171 55.6039 100.721 55.1784 99.2493 54.8428C98.6126 54.727 97.2812 55.2483 96.7024 54.901L96.2972 54.3217C93.3559 54.7689 90.4917 55.6265 87.7884 56.8689C83.8523 58.9527 82.2895 61.0936 78.064 61.4988C76.7827 60.7852 75.6127 59.8887 74.591 58.8367C74.2437 58.2 74.7067 56.6952 74.8225 56.1164C76.3275 49.2283 86.3992 51.3691 90.451 49.5169C92.7664 48.5329 94.3871 46.4499 95.3711 44.887C96.8727 41.6031 97.6052 38.0199 97.5128 34.4101C97.2812 33.1367 94.8501 25.9584 95.892 22.8327C96.1236 22.0224 96.7603 20.1702 96.4709 19.3598C95.9262 18.9032 95.4226 18.3995 94.9659 17.8548C92.8242 18.6073 91.2035 19.8808 88.946 20.3438C86.6886 20.8069 83.9681 20.2858 81.8264 20.5752C77.543 21.0962 72.1599 23.701 70.0182 28.3317C65.7348 37.5352 70.1339 43.2079 70.3655 44.8287C70.5391 45.5812 70.8864 45.4082 70.9443 46.1606C71.0022 48.2444 66.8346 51.1378 64.7508 50.7905C63.2458 50.559 60.5253 47.7237 60.3517 45.6978C60.3517 45.6978 60.7568 41.7607 60.9305 41.0661C61.1982 39.9222 61.3916 38.7623 61.5093 37.5933C61.3936 35.5674 61.9724 32.2685 61.0463 30.1847C60.1651 28.2393 59.1396 26.3616 57.9784 24.5692C55.5493 22.9005 53.0378 21.3559 50.4536 19.9393L46.6912 19.533C44.6082 19.4027 42.5243 19.288 40.4398 19.1868C38.5243 18.0962 36.6142 16.996 34.7093 15.887Z"
		fill="white" />
	<path
		d="M34.7093 15.887C34.362 15.6555 32.5098 17.74 32.3361 17.74C32.1046 18.4346 31.3521 19.3016 31.41 20.0541C31.5257 22.7167 33.4938 24.2221 32.6834 27.3478C31.873 30.4735 30.0786 33.8894 30.1365 37.1888C30.1365 41.5879 33.7832 47.2606 37.6614 49.9232C38.356 50.3863 39.9767 50.6163 40.5555 50.9636C41.8869 51.7161 42.4078 52.6428 43.7391 53.048C44.3758 53.2796 45.7072 52.874 46.286 52.9898C49.1208 54.6177 51.8297 56.4558 54.3897 58.4887C54.737 59.1833 54.0424 61.0365 53.5793 61.6154C52.1322 63.4676 49.9905 63.4664 48.254 63.1769L47.6752 63.5833C46.8648 63.1202 45.9966 62.7153 45.3599 62.1365C44.7231 61.5577 43.7391 60.3995 43.7391 59.8206C43.7391 59.2418 38.9927 57.3885 37.9508 56.9255C35.867 56.173 30.889 56.174 28.6895 57.3317C27.5318 57.9684 25.448 60.2843 24.464 61.1526C24.0009 61.5578 23.1326 61.7308 22.7275 62.3096C20.991 64.5092 20.4121 68.1558 19.2545 70.2975C18.3283 71.9182 16.7076 73.0762 16.1866 74.5812C15.6657 76.0861 16.2445 76.4324 17.8074 78.1689C17.8074 78.1689 22.0329 81.0639 23.7694 83.0319C26.296 85.366 29.459 86.8965 32.8571 87.4304C34.7 87.2331 36.5345 86.9624 38.356 86.6196C40.0925 86.3881 42.813 85.1154 44.4337 83.7262C46.2236 81.2589 47.8665 78.6886 49.3538 76.0279C49.4696 75.6228 54.2739 70.0072 56.2998 71.1649C56.5314 71.3386 59.194 73.6549 59.7728 74.8126C60.0622 75.5651 59.7149 77.8806 59.3676 78.5752C58.4415 80.4854 55.8946 81.237 53.9845 83.2051C52.4909 85.1162 51.1918 87.1726 50.1063 89.3417C49.7011 90.3258 49.9905 91.657 49.9905 92.8146C49.9326 95.9403 50.1642 99.8188 53.6372 103.581C54.216 104.16 55.9525 105.316 56.5313 105.895C58.8467 108.211 61.683 112.609 64.2877 112.088C66.8925 111.567 68.0501 108.501 71.2337 106.764C74.4795 105.014 77.1069 102.305 78.7586 99.0078C79.2795 97.7343 79.1059 94.9559 79.2216 93.5088C79.2216 93.3352 78.2955 89.1086 77.4851 87.3721C76.9063 86.0987 76.3853 84.1885 75.054 82.6257C73.3754 80.1946 69.3815 79.154 68.3974 76.8387C68.2817 76.7229 68.8605 75.7957 68.8605 75.68C68.8605 74.8696 68.2817 74.4066 68.1659 73.9436C68.0501 73.4805 68.9763 70.4718 69.3236 70.1245C72.2177 67.5776 76.3853 68.5037 78.0061 70.1245C80.2635 72.3819 79.7426 75.1593 81.016 77.4746C83.8523 82.5105 91.2614 85.8683 95.0817 85.2895C96.6114 85.0874 98.1216 84.7584 99.5966 84.3056C101.912 83.1479 103.706 80.8316 104.98 79.6739C106.774 77.8795 110.652 76.2017 111.81 74.0601C112.736 72.4393 110.016 67.4608 109.263 65.4928C108.337 63.0617 106.137 57.8529 103.591 56.1164C102.171 55.6039 100.721 55.1784 99.2493 54.8428C98.6126 54.727 97.2812 55.2483 96.7024 54.901L96.2972 54.3217C93.3559 54.7689 90.4917 55.6265 87.7884 56.8689C83.8523 58.9527 82.2895 61.0936 78.064 61.4988C76.7827 60.7852 75.6127 59.8887 74.591 58.8367C74.2437 58.2 74.7067 56.6952 74.8225 56.1164C76.3275 49.2283 86.3992 51.3691 90.451 49.5169C92.7664 48.5329 94.3871 46.4499 95.3711 44.887C96.8727 41.6031 97.6052 38.0199 97.5128 34.4101C97.2812 33.1367 94.8501 25.9584 95.892 22.8327C96.1236 22.0224 96.7603 20.1702 96.4709 19.3598C95.9262 18.9032 95.4226 18.3995 94.9659 17.8548C92.8242 18.6073 91.2035 19.8808 88.946 20.3438C86.6886 20.8069 83.9681 20.2858 81.8264 20.5752C77.543 21.0962 72.1599 23.701 70.0182 28.3317C65.7348 37.5352 70.1339 43.2079 70.3655 44.8287C70.5391 45.5812 70.8864 45.4082 70.9443 46.1606C71.0022 48.2444 66.8346 51.1378 64.7508 50.7905C63.2458 50.559 60.5253 47.7237 60.3517 45.6978C60.3517 45.6978 60.7568 41.7607 60.9305 41.0661C61.1982 39.9222 61.3916 38.7623 61.5093 37.5933C61.3936 35.5674 61.9724 32.2685 61.0463 30.1847C60.1651 28.2393 59.1396 26.3616 57.9784 24.5692C55.5493 22.9005 53.0378 21.3559 50.4536 19.9393L46.6912 19.533C44.6082 19.4027 42.5243 19.288 40.4398 19.1868C38.5243 18.0962 36.6142 16.996 34.7093 15.887Z"
		stroke="#ED1C2E" stroke-width="18" mask="url(#path-1-outside-1_203_2)" />
</svg>