<?xml version="1.0" encoding="UTF-8" standalone="no"?>
<!-- Created with Inkscape (http://www.inkscape.org/) -->

<svg width="600" height="200" viewBox="0 0 600 200" version="1.1" id="svg1" sodipodi:docname="logo.svg"
	inkscape:version="1.3 (0e150ed6c4, 2023-07-21)" xmlns:inkscape="http://www.inkscape.org/namespaces/inkscape"
	xmlns:sodipodi="http://sodipodi.sourceforge.net/DTD/sodipodi-0.dtd" xmlns="http://www.w3.org/2000/svg"
	xmlns:svg="http://www.w3.org/2000/svg">
	<sodipodi:namedview id="namedview1" pagecolor="black" bordercolor="#111111" borderopacity="1"
		inkscape:showpageshadow="0" inkscape:pageopacity="0" inkscape:pagecheckerboard="1" inkscape:deskcolor="#d1d1d1"
		inkscape:document-units="mm" showgrid="false" inkscape:zoom="1.717" inkscape:cx="300" inkscape:cy="99.9"
		inkscape:window-width="1920" inkscape:window-height="991" inkscape:window-x="-9" inkscape:window-y="-9"
		inkscape:window-maximized="1" inkscape:current-layer="layer1" />
	<defs id="defs1" />
	<g inkscape:label="Layer 1" inkscape:groupmode="layer" id="layer1">
		<path id="path8"
			style="font-weight:bold;font-size:72px;line-height:1;font-family:Consolas;-inkscape-font-specification:'Consolas, Bold';fill:#fffafa;stroke-width:0.2645"
			d="m 143.7,18.03 c -3.4,0 -6.7,0.62 -10.1,2.12 -3,1.27 -5.6,3.01 -7.8,5.19 -2.4,2.35 -4.3,5 -5.6,8.09 h -4.9 c -4.2,0.1 -8.2,1.49 -11.5,3.98 -3.3,-2.5 -7.38,-3.89 -11.55,-3.98 H 84.1 c -1.31,0.15 -2.6,0.43 -3.86,0.84 -0.1,0 -0.16,-0.1 -0.24,-0.1 -1.91,-0.4 -3.95,-0.73 -6.03,-1.01 -2.8,-0.38 -5.75,-0.53 -8.65,-0.53 -3.99,0 -8.2,0.43 -12.35,1.62 0,0 0,0 -0.1,0 -3.71,1.09 -7.63,2.81 -11.2,5.47 -3.56,2.65 -6.57,5.95 -8.81,10.36 -2.13,4.18 -3.17,8.55 -3.17,13.18 0,2.99 0.43,6.37 1.54,9.79 -1.01,2.43 -1.54,5.04 -1.54,7.68 v 7.74 c 0,9.19 6.26,17.23 15.18,19.43 2.77,0.7 5.59,1.2 8.46,1.5 3.04,0.4 6.21,0.6 9.44,0.6 3.37,0 6.69,-0.5 9.99,-1.1 2.32,-0.5 4.64,-1.3 6.91,-2.2 2.9,1.5 6.16,2.4 9.47,2.5 h 9.56 c 1.7,-0.2 3.3,-0.5 4.9,-1.1 1.6,0.6 3.2,0.9 4.9,1.1 h 9.5 c 1.6,-0.2 3.2,-0.6 4.7,-1.2 1.9,0.7 3.8,1 5.8,1.2 h 30.4 c 1.5,-0.2 3,-0.5 4.5,-1 1.5,0.5 3,0.8 4.5,1 h 8.6 c 2.2,-0.1 4.3,-0.5 6.3,-1.3 2.1,0.8 4.2,1.2 6.4,1.3 h 8.6 c 2.5,-0.1 4.9,-0.6 7.2,-1.5 0.5,0 0.9,0.3 1.4,0.4 -2.2,1 -4.5,2.2 -6.6,3.9 -3.3,2.5 -6.3,5.7 -8.5,9.9 -0.1,0.2 -0.3,0.5 -0.4,0.7 -1.9,4.2 -2.8,8.3 -2.8,12.7 0,2.9 0.4,6.4 1.5,9.8 -1,2.5 -1.5,5.1 -1.5,7.7 v 7.7 c 0,9.2 6.2,17.2 15.1,19.4 2.7,0.7 5.5,1.2 8.2,1.5 0.1,0 0.1,0 0.1,0 3.1,0.4 6.3,0.6 9.6,0.6 3.5,0 6.9,-0.4 10.3,-1.2 2.2,-0.5 4.4,-1.3 6.6,-2.2 2.9,1.6 6,2.5 9.3,2.6 h 30.4 c 1,-0.1 2.1,-0.3 3.1,-0.6 0.9,0.3 2,0.5 3,0.6 h 7.4 c 1.1,-0.1 2.3,-0.3 3.4,-0.7 1,0.4 2.2,0.6 3.3,0.7 h 7.3 c 1.1,-0.1 2.2,-0.3 3.3,-0.7 1.1,0.4 2.2,0.6 3.3,0.7 h 7.5 c 2.2,-0.1 4.3,-0.5 6.4,-1.3 3.8,1.5 7.7,2.1 11.4,2.1 2.7,0 5.8,-0.4 8.9,-1.3 0,0 0,0 0.1,0 0.1,0 0.2,-0.1 0.3,-0.1 0.2,-0.1 0.3,-0.1 0.5,-0.1 l -0.8,0.2 c 0.8,0.2 1.7,0.4 2.5,0.5 h 7.4 c 1.7,-0.1 3.4,-0.5 5,-1 1.6,0.5 3.3,0.9 5,1 h 30.4 c 2.4,0 4.8,-0.5 7,-1.4 4.2,1.7 8.4,2.2 12.1,2.2 2.6,0 5.5,-0.5 8.4,-1.1 0.3,-0.1 0.7,-0.2 1,-0.4 1,0.4 1.9,0.5 2.9,0.6 h 7.3 c 4.1,-0.1 8,-1.5 11.3,-3.9 2.3,1.3 4.7,2.3 7.1,3 4,1.3 8,1.7 11.8,1.7 2.5,0 5,-0.2 7.4,-0.6 2,-0.3 4,-0.6 5.9,-1.1 1.6,-0.3 3.2,-0.8 4.6,-1.5 0.5,0.2 1,0.4 1.6,0.7 4.8,1.8 9.6,2.5 14.3,2.5 5.1,0 10.3,-0.8 15.3,-3 0.1,0 0.1,0 0.2,-0.1 0.5,-0.2 0.9,-0.4 1.3,-0.6 2.9,1.8 6.3,2.8 9.7,2.9 h 8.8 c 11,0 20,-9 20,-20 v -1.9 h 1.4 c 10.8,0 19.7,-8.6 20,-19.4 0.1,-3.8 -0.2,-7.9 -1.2,-11.9 -1.1,-4 -2.9,-8.2 -5.9,-12 -3,-3.9 -6.7,-6.8 -11.2,-8.7 -4.4,-2 -8.9,-2.6 -12.8,-2.6 -2.7,0 -5.4,0.3 -8.2,0.9 -0.1,0.1 -0.2,0.1 -0.3,0.1 -0.1,0 -0.3,0.1 -0.4,0.2 -0.8,-0.2 -1.6,-0.4 -2.4,-0.5 h -7.8 c -3.3,0.1 -6.5,1 -9.4,2.7 -0.8,-0.3 -1.6,-0.7 -2.4,-1 -4.6,-1.7 -9.4,-2.4 -14,-2.4 -4.9,0 -9.9,0.8 -14.7,2.7 -0.3,0.1 -0.5,0.2 -0.7,0.3 -0.2,0 -0.3,0.1 -0.4,0.2 -1.6,-0.9 -3.4,-1.5 -5.2,-1.9 C 474.9,96.99 465,92.2 455.5,94.65 l -8.8,2.3 c -5.3,1.47 -9.7,5.05 -12.3,9.95 -0.8,-0.3 -1.5,-0.6 -2.3,-0.8 -0.1,0 -0.3,-0.1 -0.4,-0.1 -3.9,-1 -7.9,-1.3 -11.7,-1.3 -3.5,0 -7,0.3 -10.5,0.9 -0.2,0 -0.4,0.1 -0.7,0.1 -1.1,0.3 -2.2,0.6 -3.4,0.9 -0.1,-0.5 -0.2,-1.1 -0.4,-1.6 6,-3.5 9.8,-9.84 10,-16.8 v -6.82 c 0,-0.1 0,-0.16 0,-0.24 0.8,-1.92 1.4,-3.96 1.6,-6.05 0.1,-1.4 0.2,-2.83 0.2,-4.26 v 1.43 c 0,-1.16 0.1,-2.56 0.1,-3.71 0,-4.26 -0.6,-8.59 -2.1,-12.88 -1.5,-4.57 -3.9,-8.63 -7.4,-12.31 -3.5,-3.69 -7.4,-6.24 -11.9,-8.03 -4.7,-1.95 -9.6,-2.67 -14.2,-2.67 -5.1,0 -10.1,0.94 -15,3.08 -0.1,0 -0.2,0.1 -0.4,0.15 -1.2,0.56 -2.3,1.18 -3.4,1.84 -1.5,-0.94 -3,-1.78 -4.6,-2.47 -4.3,-1.92 -8.7,-2.6 -12.7,-2.6 -2.7,0 -5.7,0.28 -8.7,1.08 -0.1,0 -0.3,0.12 -0.5,0.16 -0.8,-0.21 -1.6,-0.36 -2.4,-0.47 h -7.4 c -2.5,0 -5,0.51 -7.3,1.45 -3.9,-1.57 -7.9,-2.22 -11.7,-2.22 -2.8,0 -5.6,0.3 -8.4,1 -0.1,0 -0.2,0.1 -0.3,0.1 -0.1,0 -0.2,0.1 -0.4,0.13 -0.7,-0.19 -1.5,-0.34 -2.3,-0.44 h -7.7 c -1.7,0.12 -3.4,0.45 -5,0.99 -2,-0.65 -4.1,-0.99 -6.2,-0.99 h -8.6 c -2,0.1 -4.1,0.49 -6,1.19 -2.2,-0.77 -4.4,-1.18 -6.7,-1.19 H 247 c -2.8,0 -5.5,0.63 -8,1.76 -1.3,-0.54 -2.6,-0.98 -3.8,-1.33 C 232.7,25.34 224.9,19.49 216,19.47 h -8.5 c -8.4,0.1 -15.8,5.38 -18.7,13.28 -0.6,0 -1.3,-0.1 -2,-0.1 -2.7,0 -5.6,0.3 -8.6,1.08 -0.1,0 -0.3,0.11 -0.5,0.16 -0.8,-0.21 -1.6,-0.36 -2.4,-0.47 h -7.4 c -0.2,0 -0.4,0.1 -0.7,0.13 -1.2,-2.9 -2.8,-5.38 -5,-7.58 -2.6,-2.79 -5.5,-4.62 -8.5,-5.87 -3.3,-1.44 -6.7,-2.08 -10,-2.08 z m 10,2.08 c 0.2,0.1 0.4,0.13 0.6,0.21 L 153,19.81 c 0.3,0.1 0.5,0.2 0.7,0.3 z m 8.5,5.87 c 0.1,0.12 0.3,0.22 0.4,0.35 l -1,-1.05 c 0.2,0.22 0.4,0.47 0.6,0.7 z m 195.7,9.28 c 0.1,0 0.2,0.1 0.3,0.11 l -0.6,-0.24 c 0.1,0 0.2,0.1 0.3,0.13 z m 37.6,0.1 c 0.1,0 0.1,0 0.1,0 l -0.2,-0.1 c 0.1,0 0.1,0 0.1,0 z m 118.3,71.74 c 0.1,0 0.2,0 0.2,0.1 l -0.3,-0.1 c 0,0 0.1,0 0.1,0 z m 43.7,0.2 c 0.1,0 0.2,0 0.2,0.1 l -0.3,-0.2 c 0,0 0.1,0.1 0.1,0.1 z m 11.2,8.7 c 0.1,0 0.1,0 0.1,0 l -0.1,-0.1 z m 5.9,12 c 0,0.1 0,0.1 0,0.1 z m -101.9,53.4 c -0.1,0 -0.2,0 -0.3,0 l 0.7,-0.1 c -0.1,0 -0.3,0.1 -0.4,0.1 z m -19.2,-1.1 c -0.1,0 -0.1,0 -0.2,0 l 0.5,0.2 c -0.1,-0.1 -0.2,-0.1 -0.3,-0.2 z m -29.6,0.6 c -0.4,0.1 -0.7,0.2 -1.1,0.3 l 2.1,-0.5 c -0.3,0.1 -0.7,0.1 -1,0.2 z m -77.8,-0.2 c 0,0 0,0 0,0 -0.2,0.1 -0.4,0.2 -0.6,0.2 z m -114.7,0.1 c -0.1,0 -0.2,0 -0.3,0.1 l 0.7,-0.2 c -0.2,0 -0.3,0 -0.4,0.1 z M 199.8,112 c 0.1,-0.1 0.1,-0.1 0.2,-0.2 l -0.4,0.3 c 0.1,0 0.1,-0.1 0.2,-0.1 z M 72.78,108.9 c 0,0 -0.1,0 -0.1,0 l 0.26,-0.1 c -0.1,0.1 -0.11,0.1 -0.16,0.1 z m -19.43,0.5 c 0,0 -0.1,0 -0.11,0 h 0.25 c -0.1,0 -0.1,0 -0.14,0 z M 32.88,50.13 c 0,0 0,0 0,-0.1 v 0.11 c 0,0 0,0 0,0 z M 125.8,25.34 c 0,0 0,0 0,-0.1 l -0.1,0.1 z m 7.8,-5.19 c 0,0 0.1,-0.1 0.2,-0.1 l -0.7,0.27 c 0.2,-0.1 0.3,-0.1 0.5,-0.17 z m 186.4,15.11 0.2,0.13 c 0,0 -0.1,0 -0.1,-0.1 -0.1,0 -0.1,0 -0.1,-0.1 z m -120.3,0 0.2,0.11 c -0.1,0 -0.1,0 -0.1,0 -0.1,0 -0.1,0 -0.1,-0.1 z m 41.4,0.83 0.2,0.12 c 0,0 -0.1,0 -0.1,0 -0.1,0 -0.1,-0.1 -0.1,-0.1 z m -70.4,0.7 c -0.1,0 -0.2,0.1 -0.2,0.11 -0.1,0 -0.1,0.1 -0.2,0.1 z m 158.4,0 c -0.2,0.1 -0.4,0.23 -0.6,0.33 -0.1,0.1 -0.2,0.13 -0.4,0.22 z m 24.9,8.09 c 0,0 0,0 0,0 0,0 -0.1,0 -0.1,0 z m -137.8,9.31 v 0.1 c 0,0 0,0 0,0 0,0 0,0 0,0 z m 120.8,1.83 0.1,0.69 c 0,-0.15 0,-0.3 -0.1,-0.45 0,-0.1 0,-0.16 0,-0.24 z m 58.9,52.48 h -0.1 z m -185.5,0.4 c 0,0 0,0 0.1,0 0,0 0.1,0 0.1,0 z m 176.5,0.9 h -0.3 c 0.1,0 0.1,0 0.2,0 z m 45,68.2 -0.9,0.5 c 0.1,-0.1 0.3,-0.2 0.5,-0.3 0.1,0 0.3,-0.1 0.4,-0.2 z"
			sodipodi:nodetypes="ssscscscssssssssscsssssscscccccccccscssscsssscssssssscccsccsssssscssssscssccscssssscssssssssscssscssssssssssssssssscssssssssscssssccssssssscsssscscsssscscsscssccsscssscccssssccssccssssssssssssssssssssssssssssssssssccssssssssssssssssssssssssssssssccssssssssssssssssscsccssssssssssssssssssssssssssss" />
		<text xml:space="preserve"
			style="font-style:normal;font-variant:normal;font-weight:bold;font-stretch:normal;font-size:72px;line-height:1;font-family:Consolas;-inkscape-font-specification:'Consolas, Bold';font-variant-ligatures:normal;font-variant-caps:normal;font-variant-numeric:normal;font-variant-east-asian:normal;display:inline;stroke:none;stroke-width:0.2645"
			x="44.23" y="89.15" id="text1">
			<tspan sodipodi:role="line" id="tspan1"
				style="font-style:normal;font-variant:normal;font-weight:bold;font-stretch:normal;font-size:72px;line-height:1;font-family:Consolas;-inkscape-font-specification:'Consolas, Bold';font-variant-ligatures:normal;font-variant-caps:normal;font-variant-numeric:normal;font-variant-east-asian:normal;stroke:none;stroke-width:0.2645"
				x="44.23" y="89.15">swinburne</tspan>
			<tspan sodipodi:role="line"
				style="font-style:normal;font-variant:normal;font-weight:bold;font-stretch:normal;font-size:72px;line-height:1;font-family:Consolas;-inkscape-font-specification:'Consolas, Bold';font-variant-ligatures:normal;font-variant-caps:normal;font-variant-numeric:normal;font-variant-east-asian:normal;stroke:none;stroke-width:0.2645"
				x="44.23" y="161.1" id="tspan2">
				<tspan
					style="font-style:normal;font-variant:normal;font-weight:bold;font-stretch:normal;font-size:72px;line-height:1;font-family:Consolas;-inkscape-font-specification:'Consolas, Bold';font-variant-ligatures:normal;font-variant-caps:normal;font-variant-numeric:normal;font-variant-east-asian:normal;fill:red;stroke:none;stroke-width:0.2645"
					id="tspan3">simulator</tspan>
			</tspan>
		</text>
	</g>
</svg>