<svg width="832" height="768" viewBox="0 0 832 768" fill="none" xmlns="http://www.w3.org/2000/svg">
<path d="M10 485L32 416" stroke="#ACB0BE" stroke-width="6"/>
<path d="M74 453L96 384" stroke="#ACB0BE" stroke-width="6"/>
<path opacity="0.2" d="M10 485L32 416" stroke="#11111B" stroke-width="6"/>
<path opacity="0.6" d="M74 453L96 384" stroke="#11111B" stroke-width="6"/>
<path d="M10 325L43 461.5L107 429.5L74 293L10 325Z" fill="#E6E9EF"/>
<path d="M54 507L10 325L74 293L118 475" stroke="#ACB0BE" stroke-width="6" stroke-linecap="round"/>
<path d="M43 461.5L107 429.5" stroke="#ACB0BE" stroke-width="6" stroke-linecap="round"/>
<path opacity="0.4" fill-rule="evenodd" clip-rule="evenodd" d="M76.0301 288.631L6.52299 323.384L40.0686 462.141C40.0776 462.182 40.0874 462.223 40.0982 462.264L51.084 507.705C51.4733 509.315 53.0945 510.305 54.705 509.916C56.3154 509.527 57.3053 507.905 56.916 506.295L46.477 463.116L104.97 433.869L115.084 475.705C115.473 477.315 117.095 478.305 118.705 477.916C120.315 477.527 121.305 475.905 120.916 474.295L109.931 428.859C109.922 428.818 109.913 428.777 109.902 428.736L76.0301 288.631ZM103.523 427.884L71.9699 297.369L13.477 326.616L45.0301 457.131L103.523 427.884Z" fill="#11111B"/>
<path d="M96 160L118 229" stroke="#ACB0BE" stroke-width="6"/>
<path d="M32 128L54 197" stroke="#ACB0BE" stroke-width="6"/>
<path opacity="0.4" d="M96 160L118 229" stroke="#11111B" stroke-width="6"/>
<path opacity="0.6" d="M32 128L54 197" stroke="#11111B" stroke-width="6"/>
<path d="M21 173.5L54 37L118 69L85 205.5L21 173.5Z" fill="#E6E9EF"/>
<path d="M74 251L118 69L54 37L10 219" stroke="#ACB0BE" stroke-width="6" stroke-linecap="round"/>
<path d="M21 173.5L85 205.5" stroke="#ACB0BE" stroke-width="6" stroke-linecap="round"/>
<path opacity="0.2" fill-rule="evenodd" clip-rule="evenodd" d="M51.9699 32.6308L18.0982 172.736C18.0874 172.777 18.0776 172.818 18.0686 172.859L7.08401 218.295C6.69466 219.905 7.68458 221.527 9.29503 221.916C10.9055 222.305 12.5267 221.315 12.916 219.705L23.0301 177.869L81.523 207.116L71.084 250.295C70.6947 251.905 71.6846 253.527 73.295 253.916C74.9055 254.305 76.5267 253.315 76.916 251.705L87.9018 206.264C87.9126 206.223 87.9224 206.182 87.9314 206.141L121.477 67.3844L51.9699 32.6308ZM82.9699 201.131L114.523 70.6156L56.0301 41.3692L24.477 171.884L82.9699 201.131Z" fill="#11111B"/>
<path d="M244 474L192 448V256L244 282V474Z" fill="#DF8E1D"/>
<path opacity="0.6" d="M244 474L192 448V256L244 282V474Z" fill="#11111B"/>
<path d="M239.5 471.5L177.5 504.5L128 480L192 448L239.5 471.5Z" fill="#B07017"/>
<path d="M239.5 439.5L177.5 472.5L128 448L192 416L239.5 439.5Z" fill="#C27C19"/>
<path d="M239.5 407.5L177.5 440.5L128 416L192 384L239.5 407.5Z" fill="#B07017"/>
<path d="M239.5 375.5L177.5 408.5L128 384L192 352L239.5 375.5Z" fill="#C27C19"/>
<path d="M246 347L184 380L128 352L192 320L246 347Z" fill="#B07017"/>
<path d="M215 329.5V361.5L160 336V304L215 329.5Z" fill="#DF8E1D"/>
<path opacity="0.4" d="M215 329.5V361.5L160 336V304L215 329.5Z" fill="#11111B"/>
<path d="M244 314L182 347L128 320L192 288L244 314Z" fill="#A76A16"/>
<path d="M215 297.5V329.5L160 304V272L215 297.5Z" fill="#DF8E1D"/>
<path opacity="0.4" d="M215 297.5V329.5L160 304V272L215 297.5Z" fill="#11111B"/>
<path d="M244 474L182 507V502L244 469V474Z" fill="#DF8E1D"/>
<path opacity="0.6" d="M244 474L182 507V502L244 469V474Z" fill="#11111B"/>
<path d="M182 495L213 478.5L215 479.5V486.5L184 503L182 502V495Z" fill="#DF8E1D"/>
<path d="M205.5 373.5L213 369.5L215 370.5V479.5L207.5 483.5L205.5 482.5V373.5Z" fill="#DF8E1D"/>
<path d="M189.5 382L205.5 373.5L207.5 374.5V483.5L191.5 492L189.5 491V382Z" fill="#EFF1F5" fill-opacity="0.3"/>
<path d="M182 386L189.5 382L191.5 383V492L184 496L182 495V386Z" fill="#DF8E1D"/>
<path d="M182 379L213 362.5L215 363.5V370.5L184 387L182 386V379Z" fill="#DF8E1D"/>
<path d="M213 478.5L244 462L246 463V470L215 486.5L213 485.5V478.5Z" fill="#DF8E1D"/>
<path d="M236.5 357L244 353L246 354V463L238.5 467L236.5 466V357Z" fill="#DF8E1D"/>
<path d="M220.5 365.5L236.5 357L238.5 358V467L222.5 475.5L220.5 474.5V365.5Z" fill="#EFF1F5" fill-opacity="0.3"/>
<path d="M213 369.5L220.5 365.5L222.5 366.5V475.5L215 479.5L213 478.5V369.5Z" fill="#DF8E1D"/>
<path d="M213 362.5L244 346L246 347V354L215 370.5L213 369.5V362.5Z" fill="#DF8E1D"/>
<path d="M182 507L128 480V288L182 315V507Z" fill="#DF8E1D"/>
<path opacity="0.2" d="M182 507L128 480V288L182 315V507Z" fill="#11111B"/>
<path d="M244 282L182 315L128 288L192 256L244 282Z" fill="#CB811A"/>
<g clip-path="url(#clip0_234_195)">
<path d="M192 0L140 26L140 218L192 192L192 0Z" fill="#DF8E1D"/>
<path opacity="0.7" d="M192 0L140 26L140 218L192 192L192 0Z" fill="#11111B"/>
<path d="M256 225L194 192L144.5 216.5L208.5 248.5L256 225Z" fill="#B07017"/>
<path d="M256 193L194 160L144.5 184.5L208.5 216.5L256 193Z" fill="#C27C19"/>
<path d="M256 161L194 128L144.5 152.5L208.5 184.5L256 161Z" fill="#B07017"/>
<path d="M256 129L194 96L144.5 120.5L208.5 152.5L256 129Z" fill="#C27C19"/>
<path d="M256 97L194 64L138 92L202 124L256 97Z" fill="#B07017"/>
<path d="M224 80V48L169 73.5V105.5L224 80Z" fill="#DF8E1D"/>
<path opacity="0.5" d="M224 80V48L169 73.5V105.5L224 80Z" fill="#11111B"/>
<path d="M256 65L194 32L140 59L204 91L256 65Z" fill="#A76A16"/>
<path d="M224 48V16L169 41.5V73.5L224 48Z" fill="#DF8E1D"/>
<path opacity="0.5" d="M224 48V16L169 41.5V73.5L224 48Z" fill="#11111B"/>
<path d="M202 246L140 213V218L202 251V246Z" fill="#DF8E1D"/>
<path opacity="0.6" d="M202 246L140 213V218L202 251V246Z" fill="#11111B"/>
<path d="M169 114.5L200 131L202 130V123L171 106.5L169 107.5V114.5Z" fill="#DF8E1D"/>
<path d="M192.5 236L200 240L202 239V130L194.5 126L192.5 127V236Z" fill="#DF8E1D"/>
<path d="M176.5 227.5L192.5 236L194.5 235V126L178.5 117.5L176.5 118.5L176.5 227.5Z" fill="#EFF1F5" fill-opacity="0.3"/>
<path d="M169 223.5L176.5 227.5L178.5 226.5V117.5L171 113.5L169 114.5V223.5Z" fill="#DF8E1D"/>
<path d="M169 230.5L200 247L202 246V239L171 222.5L169 223.5V230.5Z" fill="#DF8E1D"/>
<path d="M138 98L169 114.5L171 113.5V106.5L140 90L138 91V98Z" fill="#DF8E1D"/>
<path d="M161.5 219.5L169 223.5L171 222.5V113.5L163.5 109.5L161.5 110.5V219.5Z" fill="#DF8E1D"/>
<path d="M145.5 211L161.5 219.5L163.5 218.5V109.5L147.5 101L145.5 102L145.5 211Z" fill="#EFF1F5" fill-opacity="0.3"/>
<path d="M138 207L145.5 211L147.5 210V101L140 97L138 98V207Z" fill="#DF8E1D"/>
<path d="M138 214L169 230.5L171 229.5V222.5L140 206L138 207V214Z" fill="#DF8E1D"/>
<path d="M256 32L202 59L202 251L256 224V32Z" fill="#DF8E1D"/>
<path opacity="0.4" d="M256 32L202 59L202 251L256 224V32Z" fill="#11111B"/>
<path d="M256 33L194 0L140 27L204 59L256 33Z" fill="#CB811A"/>
</g>
<g clip-path="url(#clip1_234_195)">
<path d="M384 288L320 256L316 258V450L380 482L384 480V288Z" fill="#DCE0E8"/>
<path opacity="0.7" d="M380 290L316 258V450L380 482V290Z" fill="#11111B"/>
<path d="M324 506L260 474L316 446L380 478V482L324 510V506Z" fill="#DCE0E8"/>
<path opacity="0.4" d="M324 506L260 474L316 446L380 478L324 506Z" fill="#11111B"/>
<path opacity="0.2" d="M324 506L380 478V482L324 510V506Z" fill="#11111B"/>
<path d="M324 446L260 414L316 386L380 418V422L324 450V446Z" fill="#DCE0E8"/>
<path opacity="0.4" d="M324 446L260 414L316 386L380 418L324 446Z" fill="#11111B"/>
<path opacity="0.2" d="M324 446L380 418V422L324 450V446Z" fill="#11111B"/>
<path d="M324 414L260 382L316 354L380 386V390L324 418V414Z" fill="#DCE0E8"/>
<path opacity="0.4" d="M324 414L260 382L316 354L380 386L324 414Z" fill="#11111B"/>
<path opacity="0.2" d="M324 414L380 386V390L324 418V414Z" fill="#11111B"/>
<path d="M324 382L260 350L316 322L380 354V358L324 386V382Z" fill="#DCE0E8"/>
<path opacity="0.4" d="M324 382L260 350L316 322L380 354L324 382Z" fill="#11111B"/>
<path opacity="0.2" d="M324 382L380 354V358L324 386V382Z" fill="#11111B"/>
<path d="M324 350L260 318L316 290L380 322V326L324 354V350Z" fill="#DCE0E8"/>
<path opacity="0.4" d="M324 350L260 318L316 290L380 322L324 350Z" fill="#11111B"/>
<path opacity="0.2" d="M324 350L380 322V326L324 354V350Z" fill="#11111B"/>
<path d="M324 318L260 286L316 258L380 290V294L324 322V318Z" fill="#DCE0E8"/>
<path opacity="0.2" d="M324 318L380 290V294L324 322V318Z" fill="#11111B"/>
<path d="M324 318L260 286L256 288V480L320 512L324 510V318Z" fill="#DCE0E8"/>
<path opacity="0.1" d="M320 320L256 288V480L320 512V320Z" fill="#11111B"/>
</g>
<g clip-path="url(#clip2_234_195)">
<path d="M324 194L260 226L256 224V32L320 0L324 2V194Z" fill="#DCE0E8"/>
<path opacity="0.7" d="M324 194L260 226V34L324 2V194Z" fill="#11111B"/>
<path d="M316 250L380 218L324 190L260 222V226L316 254V250Z" fill="#DCE0E8"/>
<path opacity="0.4" d="M316 250L380 218L324 190L260 222L316 250Z" fill="#11111B"/>
<path opacity="0.2" d="M316 250L260 222V226L316 254V250Z" fill="#11111B"/>
<path d="M316 190L380 158L324 130L260 162V166L316 194V190Z" fill="#DCE0E8"/>
<path opacity="0.4" d="M316 190L380 158L324 130L260 162L316 190Z" fill="#11111B"/>
<path opacity="0.2" d="M316 190L260 162V166L316 194V190Z" fill="#11111B"/>
<path d="M316 158L380 126L324 98L260 130V134L316 162V158Z" fill="#DCE0E8"/>
<path opacity="0.4" d="M316 158L380 126L324 98L260 130L316 158Z" fill="#11111B"/>
<path opacity="0.2" d="M316 158L260 130V134L316 162V158Z" fill="#11111B"/>
<path d="M316 126L380 94L324 66L260 98V102L316 130V126Z" fill="#DCE0E8"/>
<path opacity="0.4" d="M316 126L380 94L324 66L260 98L316 126Z" fill="#11111B"/>
<path opacity="0.2" d="M316 126L260 98V102L316 130V126Z" fill="#11111B"/>
<path d="M316 94L380 62L324 34L260 66V70L316 98V94Z" fill="#DCE0E8"/>
<path opacity="0.4" d="M316 94L380 62L324 34L260 66L316 94Z" fill="#11111B"/>
<path opacity="0.2" d="M316 94L260 66V70L316 98V94Z" fill="#11111B"/>
<path d="M316 62L380 30L324 2L260 34V38L316 66V62Z" fill="#DCE0E8"/>
<path opacity="0.2" d="M316 62L260 34V38L316 66V62Z" fill="#11111B"/>
<path d="M384 224L320 256L316 254V62L380 30L384 32V224Z" fill="#DCE0E8"/>
<path opacity="0.1" d="M384 224L320 256V64L384 32V224Z" fill="#11111B"/>
</g>
<g clip-path="url(#clip3_234_195)">
<path d="M512 288L448 256L444 258V450L508 482L512 480V288Z" fill="#DF8E1D"/>
<path opacity="0.7" d="M508 290L444 258V450L508 482V290Z" fill="#11111B"/>
<path d="M452 506L388 474L444 446L508 478V482L452 510V506Z" fill="#DF8E1D"/>
<path opacity="0.4" d="M452 506L388 474L444 446L508 478L452 506Z" fill="#11111B"/>
<path opacity="0.2" d="M452 506L508 478V482L452 510V506Z" fill="#11111B"/>
<path d="M452 446L388 414L444 386L508 418V422L452 450V446Z" fill="#DF8E1D"/>
<path opacity="0.4" d="M452 446L388 414L444 386L508 418L452 446Z" fill="#11111B"/>
<path opacity="0.2" d="M452 446L508 418V422L452 450V446Z" fill="#11111B"/>
<path d="M452 414L388 382L444 354L508 386V390L452 418V414Z" fill="#DF8E1D"/>
<path opacity="0.4" d="M452 414L388 382L444 354L508 386L452 414Z" fill="#11111B"/>
<path opacity="0.2" d="M452 414L508 386V390L452 418V414Z" fill="#11111B"/>
<path d="M452 382L388 350L444 322L508 354V358L452 386V382Z" fill="#DF8E1D"/>
<path opacity="0.4" d="M452 382L388 350L444 322L508 354L452 382Z" fill="#11111B"/>
<path opacity="0.2" d="M452 382L508 354V358L452 386V382Z" fill="#11111B"/>
<path d="M452 350L388 318L444 290L508 322V326L452 354V350Z" fill="#DF8E1D"/>
<path opacity="0.4" d="M452 350L388 318L444 290L508 322L452 350Z" fill="#11111B"/>
<path opacity="0.2" d="M452 350L508 322V326L452 354V350Z" fill="#11111B"/>
<path d="M452 318L388 286L444 258L508 290V294L452 322V318Z" fill="#DF8E1D"/>
<path opacity="0.2" d="M452 318L508 290V294L452 322V318Z" fill="#11111B"/>
<path d="M452 318L388 286L384 288V480L448 512L452 510V318Z" fill="#DF8E1D"/>
<path opacity="0.1" d="M448 320L384 288V480L448 512V320Z" fill="#11111B"/>
</g>
<g clip-path="url(#clip4_234_195)">
<path d="M452 194L388 226L384 224V32L448 0L452 2V194Z" fill="#DF8E1D"/>
<path opacity="0.7" d="M452 194L388 226V34L452 2V194Z" fill="#11111B"/>
<path d="M444 250L508 218L452 190L388 222V226L444 254V250Z" fill="#DF8E1D"/>
<path opacity="0.4" d="M444 250L508 218L452 190L388 222L444 250Z" fill="#11111B"/>
<path opacity="0.2" d="M444 250L388 222V226L444 254V250Z" fill="#11111B"/>
<path d="M444 190L508 158L452 130L388 162V166L444 194V190Z" fill="#DF8E1D"/>
<path opacity="0.4" d="M444 190L508 158L452 130L388 162L444 190Z" fill="#11111B"/>
<path opacity="0.2" d="M444 190L388 162V166L444 194V190Z" fill="#11111B"/>
<path d="M444 158L508 126L452 98L388 130V134L444 162V158Z" fill="#DF8E1D"/>
<path opacity="0.4" d="M444 158L508 126L452 98L388 130L444 158Z" fill="#11111B"/>
<path opacity="0.2" d="M444 158L388 130V134L444 162V158Z" fill="#11111B"/>
<path d="M444 126L508 94L452 66L388 98V102L444 130V126Z" fill="#DF8E1D"/>
<path opacity="0.4" d="M444 126L508 94L452 66L388 98L444 126Z" fill="#11111B"/>
<path opacity="0.2" d="M444 126L388 98V102L444 130V126Z" fill="#11111B"/>
<path d="M444 94L508 62L452 34L388 66V70L444 98V94Z" fill="#DF8E1D"/>
<path opacity="0.4" d="M444 94L508 62L452 34L388 66L444 94Z" fill="#11111B"/>
<path opacity="0.2" d="M444 94L388 66V70L444 98V94Z" fill="#11111B"/>
<path d="M444 62L508 30L452 2L388 34V38L444 66V62Z" fill="#DF8E1D"/>
<path opacity="0.2" d="M444 62L388 34V38L444 66V62Z" fill="#11111B"/>
<path d="M512 224L448 256L444 254V62L508 30L512 32V224Z" fill="#DF8E1D"/>
<path opacity="0.1" d="M512 224L448 256V64L512 32V224Z" fill="#11111B"/>
</g>
<path d="M576 489.488V456.987C576 455.215 574.835 453.655 573.136 453.152L549 446C546.08 445.346 543.5 445 544 440.5L545 426C545.684 417.679 549.385 410.407 545.13 405.157C545.05 405.058 544.926 405 544.798 405C544.453 405 544.242 405.384 544.409 405.686C547.777 411.793 544.486 418.599 543.75 426L542.5 444L539.742 474.801C539.596 476.431 540.458 477.985 541.917 478.725L570.192 493.056C572.852 494.405 576 492.471 576 489.488Z" stroke="#8C8FA1" stroke-width="3"/>
<path d="M608 473.488V440.987C608 439.215 606.835 437.655 605.136 437.152L581 430C578.08 429.346 575.5 429 576 424.5L577 410C577.684 401.679 581.385 394.407 577.13 389.157C577.05 389.058 576.926 389 576.798 389C576.453 389 576.242 389.384 576.409 389.686C579.777 395.793 576.486 402.599 575.75 410L574.5 428L571.742 458.801C571.596 460.431 572.458 461.985 573.917 462.725L602.192 477.056C604.852 478.405 608 476.471 608 473.488Z" stroke="#8C8FA1" stroke-width="3"/>
<path d="M571 454L607 436L580 428L544 446L571 454Z" fill="#11111B"/>
<path d="M571 454L607 436C608.792 437.212 609.217 438.317 609 441L575 458C574.768 455.963 574.032 455.037 571 454Z" fill="#11111B"/>
<path d="M543 404L577.5 386.5C582.13 389.601 581.847 402.072 578.5 406L543 423.5C544.327 419.136 545.945 406.575 543 404Z" fill="#11111B"/>
<path d="M576 233.488V200.987C576 199.215 577.165 197.655 578.864 197.152L603 190C605.92 189.346 608.5 189 608 184.5L607 170C606.315 161.679 602.615 154.407 606.87 149.157C606.95 149.058 607.074 149 607.202 149C607.547 149 607.758 149.384 607.591 149.686C604.223 155.793 607.514 162.599 608.25 170L609.5 188L612.258 218.801C612.404 220.431 611.542 221.985 610.083 222.725L581.808 237.056C579.148 238.405 576 236.471 576 233.488Z" stroke="#8C8FA1" stroke-width="3"/>
<path d="M544 217.488V184.987C544 183.215 545.165 181.655 546.864 181.152L571 174C573.92 173.346 576.5 173 576 168.5L575 154C574.315 145.679 570.615 138.407 574.87 133.157C574.95 133.058 575.074 133 575.202 133C575.547 133 575.758 133.384 575.591 133.686C572.223 139.793 575.514 146.599 576.25 154L577.5 172L580.258 202.801C580.404 204.431 579.542 205.985 578.083 206.725L549.808 221.056C547.148 222.405 544 220.471 544 217.488Z" stroke="#8C8FA1" stroke-width="3"/>
<path d="M581 198L545 180L572 172L608 190L581 198Z" fill="#11111B"/>
<path d="M581 198L545 180C543.208 181.212 542.783 182.317 543 185L577 202C577.232 199.963 577.968 199.037 581 198Z" fill="#11111B"/>
<path d="M609 149L574.5 131.5C569.87 134.601 570.153 147.072 573.5 151L609 168.5C607.673 164.136 606.055 151.575 609 149Z" fill="#11111B"/>
<rect x="764" y="345" width="8" height="76" rx="4" fill="#CCD0DA"/>
<rect x="646" y="404" width="8" height="76" rx="4" fill="#CCD0DA"/>
<rect x="818" y="372" width="8" height="76" rx="4" fill="#CCD0DA"/>
<rect x="700" y="431" width="8" height="76" rx="4" fill="#CCD0DA"/>
<rect opacity="0.8" x="764" y="345" width="8" height="76" rx="4" fill="#11111B"/>
<rect opacity="0.4" x="818" y="372" width="8" height="76" rx="4" fill="#11111B"/>
<rect opacity="0.4" x="646" y="404" width="8" height="76" rx="4" fill="#11111B"/>
<rect opacity="0.2" x="700" y="431" width="8" height="76" rx="4" fill="#11111B"/>
<path d="M768 344L640 408L704 440L832 376L768 344Z" fill="#DCE0E8"/>
<path d="M640 418V408L704 440V450L640 418Z" fill="#DCE0E8"/>
<path d="M832 386V376L704 440V450L832 386Z" fill="#DCE0E8"/>
<path opacity="0.2" d="M640 418V408L704 440V450L640 418Z" fill="#11111B"/>
<path opacity="0.4" d="M832 386V376L704 440V450L832 386Z" fill="#11111B"/>
<rect width="8" height="76" rx="4" transform="matrix(1 0 0 -1 764 251)" fill="#CCD0DA"/>
<rect width="8" height="76" rx="4" transform="matrix(1 0 0 -1 700 165)" fill="#CCD0DA"/>
<rect width="8" height="76" rx="4" transform="matrix(1 0 0 -1 818 224)" fill="#CCD0DA"/>
<rect width="8" height="76" rx="4" transform="matrix(1 0 0 -1 646 192)" fill="#CCD0DA"/>
<path opacity="0.8" d="M708 93C708 90.7909 706.209 89 704 89C701.791 89 700 90.7909 700 93V161C700 163.209 701.791 165 704 165C706.209 165 708 163.209 708 161V93Z" fill="#11111B"/>
<path opacity="0.4" d="M654 120C654 117.791 652.209 116 650 116C647.791 116 646 117.791 646 120V188C646 190.209 647.791 192 650 192C652.209 192 654 190.209 654 188V120Z" fill="#11111B"/>
<path opacity="0.4" d="M826 152C826 149.791 824.209 148 822 148C819.791 148 818 149.791 818 152V220C818 222.209 819.791 224 822 224C824.209 224 826 222.209 826 220V152Z" fill="#11111B"/>
<path opacity="0.2" d="M772 179C772 176.791 770.209 175 768 175C765.791 175 764 176.791 764 179V247C764 249.209 765.791 251 768 251C770.209 251 772 249.209 772 247V179Z" fill="#11111B"/>
<path d="M768 184L640 120L704 88L832 152L768 184Z" fill="#DCE0E8"/>
<path d="M768 184V194L832 162V152L768 184Z" fill="#DCE0E8"/>
<path d="M768 184V194L640 130V120L768 184Z" fill="#DCE0E8"/>
<path opacity="0.4" d="M768 184V194L832 162V152L768 184Z" fill="#11111B"/>
<path opacity="0.2" d="M768 184V194L640 130V120L768 184Z" fill="#11111B"/>
<path d="M42 697.5L28 742M82.5 697.5L100 742M64 672V722" stroke="#DF8E1D" stroke-width="6" stroke-linecap="round"/>
<path opacity="0.2" d="M42 697.5L28 742M82.5 697.5L100 742M64 672V722" stroke="#11111B" stroke-width="6" stroke-linecap="round"/>
<ellipse cx="64" cy="684" rx="56" ry="28" fill="#DF8E1D"/>
<ellipse opacity="0.3" cx="64" cy="684" rx="56" ry="28" fill="#BCC0CC"/>
<path d="M270 669V663L324 636L330 639L270 669Z" fill="#DCE0E8"/>
<path d="M562 701V642L556 645V698L454 749V755L562 701Z" fill="#DCE0E8"/>
<path opacity="0.2" d="M562 701V642L556 645V698L562 701Z" fill="#11111B"/>
<path d="M454 696V702L562 648V642L454 696Z" fill="#DCE0E8"/>
<path d="M448 764V699L454 696V755L562 701V642L568 639V704L448 764Z" fill="#DCE0E8"/>
<path d="M270 675V610L276 607V666L329 639.5L335 642.5L270 675Z" fill="#DCE0E8"/>
<path opacity="0.4" d="M270 675V610L276 607V666L329 639.5L335 642.5L270 675Z" fill="#11111B"/>
<path opacity="0.4" d="M454 696V702L562 648V642L454 696Z" fill="#11111B"/>
<path opacity="0.4" d="M448 764V699L454 696V755L562 701V642L568 639V704L448 764Z" fill="#11111B"/>
<path d="M442 761V702L270 616V675L264 672V607L448 699V764L442 761Z" fill="#DCE0E8"/>
<path opacity="0.2" d="M442 761V702L270 616V675L264 672V607L448 699V764L442 761Z" fill="#11111B"/>
<path d="M448 692L256 596L384 532L576 628L448 692Z" fill="#442B09"/>
<path d="M256 603V596L448 692V699L256 603Z" fill="#442B09"/>
<path d="M448 699V692L576 628V635L448 699Z" fill="#442B09"/>
<path opacity="0.2" d="M256 603V596L448 692V699L256 603Z" fill="#11111B"/>
<path opacity="0.4" d="M448 699V692L576 628V635L448 699Z" fill="#11111B"/>
<path d="M467 626L459 630L443 622L451 618L467 626Z" fill="#DCE0E8"/>
<path d="M449 621.5L451 620.5L462 626L460 627L449 621.5Z" fill="#11111B"/>
<path d="M443 622V623L459 631V630L443 622Z" fill="#DCE0E8"/>
<path opacity="0.2" d="M443 622V623L459 631V630L443 622Z" fill="#11111B"/>
<path d="M459 631V630L467 626V627L459 631Z" fill="#DCE0E8"/>
<path opacity="0.4" d="M459 631V630L467 626V627L459 631Z" fill="#11111B"/>
<path d="M394 588L386 592L370 584L378 580L394 588Z" fill="#DCE0E8"/>
<path d="M376 583.5L378 582.5L389 588L387 589L376 583.5Z" fill="#11111B"/>
<path d="M370 584V585L386 593V592L370 584Z" fill="#DCE0E8"/>
<path opacity="0.2" d="M370 584V585L386 593V592L370 584Z" fill="#11111B"/>
<path d="M386 593V592L394 588V589L386 593Z" fill="#DCE0E8"/>
<path opacity="0.4" d="M386 593V592L394 588V589L386 593Z" fill="#11111B"/>
<path d="M198 757L150 733V626L198 650L234 632V739L198 757Z" fill="#EFF1F5"/>
<path d="M198 650L150 626L186 608L234 632L198 650Z" fill="#EFF1F5"/>
<path d="M234 734L198 752L194 750V714L198 716L234 698" stroke="#9CA0B0"/>
<path d="M202 673L230 659V694L202 708V673Z" fill="#CCD0DA"/>
<path d="M202 708L230 694L224 690L202 701V708Z" fill="#4C4F69"/>
<path d="M218 671V665L222 663L223 664V670L224 674L220 676L219 675L218 671Z" fill="#1E66F5"/>
<path d="M206 677V671L210 669L211 670V676L212 680L208 682L207 681L206 677Z" fill="#E64553"/>
<path d="M219 669V662.5L222 661L223.5 662V668.5L220.5 670L219 669Z" fill="#4C4F69"/>
<path d="M207 675V668.5L210 667L211.5 668V674.5L208.5 676L207 675Z" fill="#4C4F69"/>
<path d="M234 657L198 675V673L234 655V657Z" fill="#EFF1F5"/>
<ellipse cx="192" cy="626" rx="16" ry="8" fill="#11111B"/>
<path opacity="0.2" d="M198 650L150 626V733L198 757V650Z" fill="#11111B"/>
<path opacity="0.4" d="M198 650L234 632V739L198 757V650Z" fill="#11111B"/>
<ellipse cx="192.051" cy="556" rx="32" ry="16" fill="#D20F39"/>
<ellipse cx="192.051" cy="616" rx="32" ry="16" fill="#D20F39"/>
<path d="M160.051 616V556H224.051V616H160.051Z" fill="#D20F39"/>
<path opacity="0.2" d="M160.051 616V556C164.946 566.777 172.679 569.848 192.051 572V632C182.579 633.136 158.753 627.152 160.051 616Z" fill="#11111B"/>
<path opacity="0.2" d="M224 616V556C219.105 566.777 211.372 569.848 192 572V632C201.472 633.136 225.298 627.152 224 616Z" fill="#11111B"/>
<path d="M197.888 596.659C197.968 596.855 197.986 597.042 197.944 597.221C197.903 597.397 197.81 597.557 197.664 597.7C197.518 597.843 197.327 597.963 197.09 598.058C196.965 598.109 196.844 598.151 196.727 598.184C196.611 598.217 196.501 598.241 196.398 598.256C196.296 598.271 196.202 598.277 196.118 598.272L195.969 597.903C196.101 597.904 196.257 597.892 196.436 597.867C196.615 597.84 196.793 597.791 196.971 597.719C197.137 597.652 197.269 597.574 197.366 597.483C197.462 597.392 197.523 597.293 197.548 597.186C197.575 597.077 197.564 596.964 197.516 596.846C197.471 596.733 197.408 596.649 197.327 596.593C197.247 596.536 197.135 596.5 196.994 596.486C196.854 596.469 196.67 596.465 196.442 596.474C196.282 596.481 196.136 596.477 196.005 596.461C195.873 596.444 195.756 596.413 195.653 596.366C195.55 596.32 195.46 596.255 195.382 596.171C195.306 596.086 195.241 595.979 195.19 595.851C195.118 595.674 195.102 595.505 195.14 595.344C195.18 595.181 195.265 595.034 195.397 594.903C195.529 594.771 195.699 594.663 195.906 594.579C196.082 594.508 196.252 594.459 196.415 594.432C196.579 594.404 196.735 594.393 196.883 594.398L196.896 594.777C196.757 594.775 196.613 594.785 196.466 594.806C196.32 594.826 196.176 594.865 196.034 594.923C195.892 594.98 195.78 595.049 195.699 595.131C195.619 595.211 195.569 595.299 195.548 595.395C195.527 595.491 195.538 595.592 195.58 595.696C195.627 595.812 195.69 595.899 195.769 595.956C195.85 596.013 195.956 596.05 196.088 596.067C196.22 596.082 196.389 596.086 196.593 596.079C196.816 596.071 197.012 596.08 197.18 596.105C197.348 596.129 197.49 596.183 197.607 596.269C197.724 596.354 197.818 596.484 197.888 596.659ZM201.344 592.437L201.796 596.104L201.409 596.261L199.852 594.299C199.807 594.243 199.763 594.187 199.719 594.131C199.676 594.073 199.636 594.018 199.597 593.967C199.559 593.914 199.525 593.868 199.497 593.829C199.469 593.787 199.449 593.756 199.435 593.735C199.441 593.759 199.449 593.795 199.457 593.842C199.467 593.889 199.477 593.944 199.487 594.007C199.498 594.069 199.508 594.136 199.516 594.208C199.525 594.28 199.534 594.353 199.541 594.427L199.802 596.91L199.415 597.067L197.199 594.112L197.6 593.95L198.97 595.811C199.017 595.873 199.061 595.935 199.103 595.997C199.147 596.056 199.187 596.116 199.225 596.174C199.264 596.232 199.301 596.289 199.336 596.345C199.371 596.401 199.405 596.456 199.437 596.51C199.421 596.448 199.406 596.383 199.392 596.314C199.378 596.245 199.365 596.174 199.351 596.102C199.34 596.03 199.328 595.956 199.317 595.881C199.308 595.806 199.3 595.731 199.292 595.655L199.058 593.361L199.454 593.201L200.91 595.019C200.96 595.082 201.008 595.144 201.054 595.206C201.1 595.268 201.143 595.33 201.184 595.391C201.225 595.449 201.263 595.507 201.298 595.563C201.334 595.617 201.367 595.669 201.397 595.718C201.378 595.64 201.36 595.557 201.342 595.469C201.324 595.381 201.307 595.289 201.29 595.192C201.276 595.095 201.261 594.993 201.247 594.889L200.941 592.6L201.344 592.437ZM203.204 595.536L201.867 592.226L202.252 592.071L203.589 595.38L203.204 595.536ZM207.086 593.967L206.642 594.146L203.715 592.095L203.697 592.103C203.731 592.175 203.771 592.257 203.815 592.35C203.859 592.441 203.904 592.54 203.95 592.646C203.998 592.749 204.044 592.856 204.088 592.966L204.856 594.868L204.499 595.012L203.162 591.703L203.603 591.525L206.52 593.569L206.536 593.563C206.511 593.511 206.477 593.438 206.434 593.343C206.39 593.247 206.343 593.144 206.293 593.034C206.244 592.922 206.2 592.818 206.161 592.721L205.387 590.804L205.749 590.658L207.086 593.967ZM206.652 590.293L207.589 589.914C208.003 589.747 208.339 589.683 208.597 589.723C208.855 589.763 209.044 589.931 209.164 590.228C209.216 590.357 209.238 590.482 209.23 590.605C209.222 590.725 209.185 590.838 209.118 590.942C209.052 591.046 208.955 591.139 208.828 591.22L208.837 591.243C208.991 591.207 209.136 591.196 209.272 591.212C209.408 591.227 209.53 591.276 209.637 591.359C209.744 591.442 209.832 591.567 209.9 591.735C209.982 591.939 210.004 592.13 209.965 592.309C209.929 592.487 209.839 592.647 209.696 592.789C209.553 592.929 209.363 593.047 209.128 593.142L207.989 593.602L206.652 590.293ZM207.61 591.557L208.244 591.3C208.532 591.184 208.712 591.056 208.784 590.916C208.857 590.776 208.857 590.615 208.783 590.432C208.707 590.244 208.586 590.135 208.42 590.105C208.255 590.075 208.028 590.119 207.74 590.235L207.17 590.465L207.61 591.557ZM207.741 591.88L208.241 593.118L208.93 592.84C209.224 592.722 209.409 592.58 209.485 592.416C209.56 592.25 209.558 592.07 209.479 591.873C209.428 591.748 209.357 591.652 209.265 591.586C209.175 591.519 209.058 591.487 208.916 591.49C208.774 591.491 208.601 591.533 208.395 591.616L207.741 591.88ZM212.153 588.07L213.018 590.212C213.112 590.446 213.149 590.673 213.128 590.894C213.108 591.115 213.024 591.316 212.877 591.498C212.729 591.679 212.511 591.828 212.225 591.944C211.816 592.109 211.459 592.124 211.155 591.989C210.853 591.853 210.627 591.599 210.477 591.228L209.615 589.096L210.002 588.939L210.868 591.083C210.982 591.364 211.143 591.55 211.353 591.643C211.564 591.735 211.817 591.721 212.113 591.602C212.315 591.52 212.466 591.417 212.565 591.293C212.665 591.166 212.719 591.025 212.728 590.869C212.737 590.71 212.707 590.544 212.637 590.371L211.77 588.225L212.153 588.07ZM213.925 587.354C214.197 587.244 214.435 587.188 214.639 587.184C214.843 587.179 215.017 587.227 215.16 587.329C215.303 587.431 215.418 587.588 215.504 587.801C215.575 587.976 215.602 588.135 215.586 588.279C215.57 588.421 215.525 588.548 215.452 588.662C215.378 588.776 215.291 588.876 215.191 588.962L216.7 590.083L216.251 590.264L214.883 589.211L214.195 589.489L214.753 590.869L214.368 591.025L213.031 587.715L213.925 587.354ZM214.037 587.696L213.55 587.893L214.063 589.163L214.588 588.95C214.859 588.841 215.035 588.706 215.117 588.545C215.201 588.383 215.199 588.195 215.113 587.98C215.022 587.755 214.89 587.624 214.716 587.585C214.544 587.546 214.318 587.583 214.037 587.696ZM219.817 588.824L219.373 589.003L216.446 586.952L216.428 586.959C216.462 587.031 216.501 587.114 216.546 587.206C216.59 587.298 216.635 587.396 216.681 587.502C216.728 587.606 216.774 587.713 216.819 587.823L217.587 589.724L217.229 589.869L215.892 586.559L216.334 586.381L219.25 588.426L219.266 588.419C219.242 588.368 219.208 588.294 219.164 588.2C219.12 588.103 219.073 588 219.024 587.891C218.975 587.779 218.931 587.674 218.892 587.578L218.117 585.66L218.48 585.514L219.817 588.824ZM222.562 587.714L220.72 588.459L219.383 585.149L221.225 584.405L221.363 584.744L219.905 585.333L220.337 586.404L221.711 585.849L221.847 586.184L220.473 586.739L220.967 587.964L222.425 587.375L222.562 587.714Z" fill="#DCE0E8"/>
<path d="M197.888 603.46C197.968 603.656 197.986 603.844 197.944 604.022C197.903 604.199 197.81 604.358 197.664 604.501C197.518 604.645 197.327 604.764 197.09 604.86C196.965 604.91 196.844 604.952 196.727 604.985C196.611 605.018 196.501 605.042 196.398 605.058C196.296 605.073 196.202 605.078 196.118 605.074L195.969 604.705C196.101 604.706 196.257 604.694 196.436 604.668C196.615 604.642 196.793 604.593 196.971 604.521C197.137 604.454 197.269 604.375 197.366 604.285C197.462 604.193 197.523 604.094 197.548 603.987C197.575 603.878 197.564 603.765 197.516 603.647C197.471 603.534 197.408 603.45 197.327 603.395C197.247 603.338 197.135 603.302 196.994 603.287C196.854 603.27 196.67 603.266 196.442 603.276C196.282 603.283 196.136 603.278 196.005 603.263C195.873 603.246 195.756 603.214 195.653 603.168C195.55 603.122 195.46 603.056 195.382 602.972C195.306 602.887 195.241 602.78 195.19 602.652C195.118 602.476 195.102 602.307 195.14 602.145C195.18 601.982 195.265 601.835 195.397 601.705C195.529 601.572 195.699 601.464 195.906 601.381C196.082 601.309 196.252 601.26 196.415 601.233C196.579 601.205 196.735 601.194 196.883 601.199L196.896 601.578C196.757 601.576 196.613 601.586 196.466 601.607C196.32 601.628 196.176 601.667 196.034 601.724C195.892 601.781 195.78 601.851 195.699 601.933C195.619 602.012 195.569 602.1 195.548 602.197C195.527 602.293 195.538 602.393 195.58 602.497C195.627 602.613 195.69 602.7 195.769 602.758C195.85 602.814 195.956 602.851 196.088 602.868C196.22 602.883 196.389 602.887 196.593 602.88C196.816 602.873 197.012 602.881 197.18 602.906C197.348 602.93 197.49 602.985 197.607 603.071C197.724 603.155 197.818 603.285 197.888 603.46ZM201.344 599.239L201.796 602.906L201.409 603.062L199.852 601.1C199.807 601.045 199.763 600.989 199.719 600.933C199.676 600.875 199.636 600.82 199.597 600.769C199.559 600.716 199.525 600.67 199.497 600.63C199.469 600.589 199.449 600.557 199.435 600.537C199.441 600.56 199.449 600.596 199.457 600.643C199.467 600.69 199.477 600.745 199.487 600.808C199.498 600.87 199.508 600.937 199.516 601.01C199.525 601.081 199.534 601.154 199.541 601.228L199.802 603.712L199.415 603.868L197.199 600.913L197.6 600.751L198.97 602.612C199.017 602.674 199.061 602.736 199.103 602.798C199.147 602.858 199.187 602.917 199.225 602.975C199.264 603.033 199.301 603.09 199.336 603.146C199.371 603.203 199.405 603.257 199.437 603.311C199.421 603.249 199.406 603.184 199.392 603.116C199.378 603.046 199.365 602.975 199.351 602.903C199.34 602.831 199.328 602.757 199.317 602.683C199.308 602.608 199.3 602.532 199.292 602.456L199.058 600.162L199.454 600.002L200.91 601.821C200.96 601.883 201.008 601.945 201.054 602.008C201.1 602.07 201.143 602.131 201.184 602.192C201.225 602.251 201.263 602.308 201.298 602.364C201.334 602.418 201.367 602.47 201.397 602.519C201.378 602.441 201.36 602.358 201.342 602.27C201.324 602.183 201.307 602.091 201.29 601.994C201.276 601.896 201.261 601.795 201.247 601.69L200.941 599.402L201.344 599.239ZM203.204 602.337L201.867 599.028L202.252 598.872L203.589 602.181L203.204 602.337ZM207.086 600.768L206.642 600.948L203.715 598.897L203.697 598.904C203.731 598.976 203.771 599.059 203.815 599.151C203.859 599.242 203.904 599.341 203.95 599.447C203.998 599.551 204.044 599.658 204.088 599.768L204.856 601.669L204.499 601.814L203.162 598.504L203.603 598.326L206.52 600.371L206.536 600.364C206.511 600.313 206.477 600.239 206.434 600.145C206.39 600.048 206.343 599.945 206.293 599.835C206.244 599.724 206.2 599.619 206.161 599.523L205.387 597.605L205.749 597.459L207.086 600.768ZM206.652 597.094L207.589 596.715C208.003 596.548 208.339 596.485 208.597 596.524C208.855 596.564 209.044 596.732 209.164 597.03C209.216 597.158 209.238 597.283 209.23 597.406C209.222 597.527 209.185 597.639 209.118 597.743C209.052 597.848 208.955 597.94 208.828 598.021L208.837 598.044C208.991 598.008 209.136 597.998 209.272 598.013C209.408 598.028 209.53 598.077 209.637 598.161C209.744 598.244 209.832 598.369 209.9 598.536C209.982 598.74 210.004 598.931 209.965 599.11C209.929 599.288 209.839 599.448 209.696 599.59C209.553 599.731 209.363 599.848 209.128 599.944L207.989 600.404L206.652 597.094ZM207.61 598.358L208.244 598.102C208.532 597.985 208.712 597.857 208.784 597.718C208.857 597.578 208.857 597.416 208.783 597.234C208.707 597.045 208.586 596.936 208.42 596.907C208.255 596.877 208.028 596.92 207.74 597.036L207.17 597.267L207.61 598.358ZM207.741 598.682L208.241 599.92L208.93 599.642C209.224 599.523 209.409 599.381 209.485 599.217C209.56 599.052 209.558 598.871 209.479 598.675C209.428 598.549 209.357 598.454 209.265 598.387C209.175 598.32 209.058 598.288 208.916 598.291C208.774 598.292 208.601 598.334 208.395 598.417L207.741 598.682ZM212.153 594.872L213.018 597.013C213.112 597.247 213.149 597.474 213.128 597.695C213.108 597.916 213.024 598.117 212.877 598.3C212.729 598.481 212.511 598.629 212.225 598.745C211.816 598.91 211.459 598.925 211.155 598.79C210.853 598.654 210.627 598.401 210.477 598.029L209.615 595.897L210.002 595.741L210.868 597.884C210.982 598.165 211.143 598.352 211.353 598.444C211.564 598.536 211.817 598.523 212.113 598.403C212.315 598.321 212.466 598.218 212.565 598.094C212.665 597.968 212.719 597.826 212.728 597.67C212.737 597.512 212.707 597.346 212.637 597.172L211.77 595.026L212.153 594.872ZM213.925 594.156C214.197 594.046 214.435 593.989 214.639 593.986C214.843 593.98 215.017 594.029 215.16 594.13C215.303 594.232 215.418 594.39 215.504 594.603C215.575 594.778 215.602 594.937 215.586 595.08C215.57 595.222 215.525 595.35 215.452 595.464C215.378 595.578 215.291 595.678 215.191 595.764L216.7 596.884L216.251 597.065L214.883 596.012L214.195 596.29L214.753 597.671L214.368 597.826L213.031 594.517L213.925 594.156ZM214.037 594.498L213.55 594.694L214.063 595.964L214.588 595.752C214.859 595.643 215.035 595.507 215.117 595.346C215.201 595.184 215.199 594.996 215.113 594.782C215.022 594.557 214.89 594.425 214.716 594.386C214.544 594.347 214.318 594.384 214.037 594.498ZM219.817 595.625L219.373 595.804L216.446 593.753L216.428 593.761C216.462 593.833 216.501 593.915 216.546 594.008C216.59 594.099 216.635 594.197 216.681 594.303C216.728 594.407 216.774 594.514 216.819 594.624L217.587 596.526L217.229 596.67L215.892 593.361L216.334 593.183L219.25 595.227L219.266 595.221C219.242 595.169 219.208 595.096 219.164 595.001C219.12 594.905 219.073 594.802 219.024 594.692C218.975 594.58 218.931 594.476 218.892 594.379L218.117 592.462L218.48 592.316L219.817 595.625ZM222.562 594.516L220.72 595.26L219.383 591.951L221.225 591.206L221.363 591.546L219.905 592.135L220.337 593.205L221.711 592.65L221.847 592.985L220.473 593.54L220.967 594.765L222.425 594.176L222.562 594.516Z" fill="#DCE0E8"/>
<path d="M197.888 610.261C197.968 610.458 197.986 610.645 197.944 610.823C197.903 611 197.81 611.16 197.664 611.303C197.518 611.446 197.327 611.565 197.09 611.661C196.965 611.712 196.844 611.753 196.727 611.787C196.611 611.82 196.501 611.844 196.398 611.859C196.296 611.874 196.202 611.879 196.118 611.875L195.969 611.506C196.101 611.507 196.257 611.495 196.436 611.47C196.615 611.443 196.793 611.394 196.971 611.322C197.137 611.255 197.269 611.176 197.366 611.086C197.462 610.995 197.523 610.895 197.548 610.789C197.575 610.68 197.564 610.566 197.516 610.449C197.471 610.335 197.408 610.251 197.327 610.196C197.247 610.139 197.135 610.103 196.994 610.088C196.854 610.071 196.67 610.067 196.442 610.077C196.282 610.084 196.136 610.08 196.005 610.064C195.873 610.047 195.756 610.015 195.653 609.969C195.55 609.923 195.46 609.858 195.382 609.773C195.306 609.688 195.241 609.582 195.19 609.453C195.118 609.277 195.102 609.108 195.14 608.947C195.18 608.783 195.265 608.637 195.397 608.506C195.529 608.374 195.699 608.266 195.906 608.182C196.082 608.111 196.252 608.061 196.415 608.034C196.579 608.006 196.735 607.995 196.883 608L196.896 608.379C196.757 608.378 196.613 608.387 196.466 608.409C196.32 608.429 196.176 608.468 196.034 608.525C195.892 608.583 195.78 608.652 195.699 608.734C195.619 608.814 195.569 608.902 195.548 608.998C195.527 609.094 195.538 609.194 195.58 609.298C195.627 609.415 195.69 609.501 195.769 609.559C195.85 609.616 195.956 609.653 196.088 609.67C196.22 609.685 196.389 609.689 196.593 609.682C196.816 609.674 197.012 609.683 197.18 609.708C197.348 609.731 197.49 609.786 197.607 609.872C197.724 609.957 197.818 610.086 197.888 610.261ZM201.344 606.04L201.796 609.707L201.409 609.863L199.852 607.901C199.807 607.846 199.763 607.79 199.719 607.734C199.676 607.676 199.636 607.621 199.597 607.57C199.559 607.517 199.525 607.471 199.497 607.431C199.469 607.39 199.449 607.359 199.435 607.338C199.441 607.362 199.449 607.397 199.457 607.445C199.467 607.492 199.477 607.546 199.487 607.609C199.498 607.671 199.508 607.739 199.516 607.811C199.525 607.882 199.534 607.955 199.541 608.03L199.802 610.513L199.415 610.669L197.199 607.715L197.6 607.553L198.97 609.414C199.017 609.476 199.061 609.538 199.103 609.599C199.147 609.659 199.187 609.718 199.225 609.777C199.264 609.835 199.301 609.892 199.336 609.948C199.371 610.004 199.405 610.059 199.437 610.112C199.421 610.05 199.406 609.985 199.392 609.917C199.378 609.847 199.365 609.777 199.351 609.705C199.34 609.632 199.328 609.559 199.317 609.484C199.308 609.409 199.3 609.333 199.292 609.257L199.058 606.964L199.454 606.804L200.91 608.622C200.96 608.684 201.008 608.747 201.054 608.809C201.1 608.871 201.143 608.932 201.184 608.993C201.225 609.052 201.263 609.11 201.298 609.166C201.334 609.22 201.367 609.271 201.397 609.32C201.378 609.242 201.36 609.159 201.342 609.072C201.324 608.984 201.307 608.892 201.29 608.795C201.276 608.697 201.261 608.596 201.247 608.491L200.941 606.203L201.344 606.04ZM203.204 609.138L201.867 605.829L202.252 605.673L203.589 608.983L203.204 609.138ZM207.086 607.57L206.642 607.749L203.715 605.698L203.697 605.705C203.731 605.778 203.771 605.86 203.815 605.953C203.859 606.044 203.904 606.142 203.95 606.248C203.998 606.352 204.044 606.459 204.088 606.569L204.856 608.471L204.499 608.615L203.162 605.306L203.603 605.127L206.52 607.172L206.536 607.165C206.511 607.114 206.477 607.041 206.434 606.946C206.39 606.85 206.343 606.747 206.293 606.637C206.244 606.525 206.2 606.421 206.161 606.324L205.387 604.407L205.749 604.26L207.086 607.57ZM206.652 603.895L207.589 603.517C208.003 603.35 208.339 603.286 208.597 603.326C208.855 603.365 209.044 603.534 209.164 603.831C209.216 603.959 209.238 604.085 209.23 604.207C209.222 604.328 209.185 604.44 209.118 604.545C209.052 604.649 208.955 604.742 208.828 604.823L208.837 604.845C208.991 604.809 209.136 604.799 209.272 604.814C209.408 604.83 209.53 604.879 209.637 604.962C209.744 605.045 209.832 605.17 209.9 605.338C209.982 605.541 210.004 605.733 209.965 605.911C209.929 606.089 209.839 606.25 209.696 606.391C209.553 606.532 209.363 606.65 209.128 606.745L207.989 607.205L206.652 603.895ZM207.61 605.159L208.244 604.903C208.532 604.787 208.712 604.659 208.784 604.519C208.857 604.379 208.857 604.217 208.783 604.035C208.707 603.846 208.586 603.737 208.42 603.708C208.255 603.678 208.028 603.721 207.74 603.838L207.17 604.068L207.61 605.159ZM207.741 605.483L208.241 606.721L208.93 606.443C209.224 606.324 209.409 606.183 209.485 606.019C209.56 605.853 209.558 605.672 209.479 605.476C209.428 605.351 209.357 605.255 209.265 605.188C209.175 605.121 209.058 605.089 208.916 605.093C208.774 605.094 208.601 605.136 208.395 605.219L207.741 605.483ZM212.153 601.673L213.018 603.814C213.112 604.048 213.149 604.276 213.128 604.497C213.108 604.717 213.024 604.919 212.877 605.101C212.729 605.282 212.511 605.43 212.225 605.546C211.816 605.711 211.459 605.726 211.155 605.591C210.853 605.455 210.627 605.202 210.477 604.831L209.615 602.698L210.002 602.542L210.868 604.685C210.982 604.966 211.143 605.153 211.353 605.246C211.564 605.338 211.817 605.324 212.113 605.204C212.315 605.123 212.466 605.02 212.565 604.895C212.665 604.769 212.719 604.628 212.728 604.471C212.737 604.313 212.707 604.147 212.637 603.973L211.77 601.828L212.153 601.673ZM213.925 600.957C214.197 600.847 214.435 600.791 214.639 600.787C214.843 600.782 215.017 600.83 215.16 600.932C215.303 601.034 215.418 601.191 215.504 601.404C215.575 601.579 215.602 601.738 215.586 601.881C215.57 602.023 215.525 602.151 215.452 602.265C215.378 602.379 215.291 602.479 215.191 602.565L216.7 603.686L216.251 603.867L214.883 602.813L214.195 603.091L214.753 604.472L214.368 604.628L213.031 601.318L213.925 600.957ZM214.037 601.299L213.55 601.495L214.063 602.765L214.588 602.553C214.859 602.444 215.035 602.309 215.117 602.147C215.201 601.985 215.199 601.797 215.113 601.583C215.022 601.358 214.89 601.226 214.716 601.188C214.544 601.148 214.318 601.185 214.037 601.299ZM219.817 602.426L219.373 602.605L216.446 600.555L216.428 600.562C216.462 600.634 216.501 600.716 216.546 600.809C216.59 600.9 216.635 600.999 216.681 601.105C216.728 601.208 216.774 601.315 216.819 601.426L217.587 603.327L217.229 603.472L215.892 600.162L216.334 599.984L219.25 602.028L219.266 602.022C219.242 601.97 219.208 601.897 219.164 601.802C219.12 601.706 219.073 601.603 219.024 601.493C218.975 601.381 218.931 601.277 218.892 601.18L218.117 599.263L218.48 599.117L219.817 602.426ZM222.562 601.317L220.72 602.061L219.383 598.752L221.225 598.007L221.363 598.347L219.905 598.936L220.337 600.007L221.711 599.451L221.847 599.787L220.473 600.342L220.967 601.566L222.425 600.977L222.562 601.317Z" fill="#DCE0E8"/>
<path d="M197.888 617.063C197.968 617.259 197.986 617.446 197.944 617.625C197.903 617.801 197.81 617.961 197.664 618.104C197.518 618.247 197.327 618.367 197.09 618.462C196.965 618.513 196.844 618.555 196.727 618.588C196.611 618.621 196.501 618.645 196.398 618.66C196.296 618.675 196.202 618.681 196.118 618.676L195.969 618.307C196.101 618.308 196.257 618.296 196.436 618.271C196.615 618.245 196.793 618.195 196.971 618.123C197.137 618.056 197.269 617.978 197.366 617.888C197.462 617.796 197.523 617.697 197.548 617.59C197.575 617.481 197.564 617.368 197.516 617.25C197.471 617.137 197.408 617.053 197.327 616.997C197.247 616.94 197.135 616.905 196.994 616.89C196.854 616.873 196.67 616.869 196.442 616.878C196.282 616.885 196.136 616.881 196.005 616.865C195.873 616.848 195.756 616.817 195.653 616.77C195.55 616.724 195.46 616.659 195.382 616.575C195.306 616.49 195.241 616.383 195.19 616.255C195.118 616.078 195.102 615.909 195.14 615.748C195.18 615.585 195.265 615.438 195.397 615.307C195.529 615.175 195.699 615.067 195.906 614.983C196.082 614.912 196.252 614.863 196.415 614.836C196.579 614.808 196.735 614.797 196.883 614.802L196.896 615.181C196.757 615.179 196.613 615.189 196.466 615.21C196.32 615.23 196.176 615.269 196.034 615.327C195.892 615.384 195.78 615.453 195.699 615.535C195.619 615.615 195.569 615.703 195.548 615.799C195.527 615.895 195.538 615.996 195.58 616.1C195.627 616.216 195.69 616.303 195.769 616.36C195.85 616.417 195.956 616.454 196.088 616.471C196.22 616.486 196.389 616.49 196.593 616.483C196.816 616.475 197.012 616.484 197.18 616.509C197.348 616.533 197.49 616.587 197.607 616.673C197.724 616.758 197.818 616.888 197.888 617.063ZM201.344 612.841L201.796 616.508L201.409 616.665L199.852 614.703C199.807 614.647 199.763 614.591 199.719 614.535C199.676 614.477 199.636 614.422 199.597 614.371C199.559 614.318 199.525 614.272 199.497 614.233C199.469 614.191 199.449 614.16 199.435 614.139C199.441 614.163 199.449 614.199 199.457 614.246C199.467 614.293 199.477 614.348 199.487 614.411C199.498 614.473 199.508 614.54 199.516 614.612C199.525 614.684 199.534 614.757 199.541 614.831L199.802 617.314L199.415 617.471L197.199 614.516L197.6 614.354L198.97 616.215C199.017 616.277 199.061 616.339 199.103 616.401C199.147 616.461 199.187 616.52 199.225 616.578C199.264 616.636 199.301 616.693 199.336 616.749C199.371 616.805 199.405 616.86 199.437 616.914C199.421 616.852 199.406 616.787 199.392 616.719C199.378 616.649 199.365 616.578 199.351 616.506C199.34 616.434 199.328 616.36 199.317 616.285C199.308 616.21 199.3 616.135 199.292 616.059L199.058 613.765L199.454 613.605L200.91 615.423C200.96 615.486 201.008 615.548 201.054 615.61C201.1 615.672 201.143 615.734 201.184 615.795C201.225 615.854 201.263 615.911 201.298 615.967C201.334 616.021 201.367 616.073 201.397 616.122C201.378 616.044 201.36 615.961 201.342 615.873C201.324 615.785 201.307 615.693 201.29 615.596C201.276 615.499 201.261 615.397 201.247 615.293L200.941 613.004L201.344 612.841ZM203.204 615.94L201.867 612.63L202.252 612.475L203.589 615.784L203.204 615.94ZM207.086 614.371L206.642 614.55L203.715 612.5L203.697 612.507C203.731 612.579 203.771 612.661 203.815 612.754C203.859 612.845 203.904 612.944 203.95 613.05C203.998 613.153 204.044 613.26 204.088 613.371L204.856 615.272L204.499 615.416L203.162 612.107L203.603 611.929L206.52 613.973L206.536 613.967C206.511 613.915 206.477 613.842 206.434 613.747C206.39 613.651 206.343 613.548 206.293 613.438C206.244 613.326 206.2 613.222 206.161 613.125L205.387 611.208L205.749 611.062L207.086 614.371ZM206.652 610.697L207.589 610.318C208.003 610.151 208.339 610.087 208.597 610.127C208.855 610.167 209.044 610.335 209.164 610.632C209.216 610.761 209.238 610.886 209.23 611.009C209.222 611.129 209.185 611.242 209.118 611.346C209.052 611.45 208.955 611.543 208.828 611.624L208.837 611.647C208.991 611.611 209.136 611.6 209.272 611.616C209.408 611.631 209.53 611.68 209.637 611.763C209.744 611.846 209.832 611.971 209.9 612.139C209.982 612.343 210.004 612.534 209.965 612.713C209.929 612.891 209.839 613.051 209.696 613.193C209.553 613.333 209.363 613.451 209.128 613.546L207.989 614.006L206.652 610.697ZM207.61 611.961L208.244 611.705C208.532 611.588 208.712 611.46 208.784 611.32C208.857 611.18 208.857 611.019 208.783 610.836C208.707 610.648 208.586 610.539 208.42 610.509C208.255 610.479 208.028 610.523 207.74 610.639L207.17 610.87L207.61 611.961ZM207.741 612.284L208.241 613.523L208.93 613.244C209.224 613.126 209.409 612.984 209.485 612.82C209.56 612.654 209.558 612.474 209.479 612.277C209.428 612.152 209.357 612.056 209.265 611.99C209.175 611.923 209.058 611.891 208.916 611.894C208.774 611.895 208.601 611.937 208.395 612.02L207.741 612.284ZM212.153 608.474L213.018 610.616C213.112 610.85 213.149 611.077 213.128 611.298C213.108 611.519 213.024 611.72 212.877 611.902C212.729 612.083 212.511 612.232 212.225 612.348C211.816 612.513 211.459 612.528 211.155 612.393C210.853 612.257 210.627 612.003 210.477 611.632L209.615 609.5L210.002 609.343L210.868 611.487C210.982 611.768 211.143 611.954 211.353 612.047C211.564 612.139 211.817 612.125 212.113 612.006C212.315 611.924 212.466 611.821 212.565 611.697C212.665 611.57 212.719 611.429 212.728 611.273C212.737 611.114 212.707 610.948 212.637 610.775L211.77 608.629L212.153 608.474ZM213.925 607.758C214.197 607.649 214.435 607.592 214.639 607.589C214.843 607.583 215.017 607.631 215.16 607.733C215.303 607.835 215.418 607.992 215.504 608.205C215.575 608.38 215.602 608.539 215.586 608.683C215.57 608.825 215.525 608.952 215.452 609.066C215.378 609.18 215.291 609.28 215.191 609.366L216.7 610.487L216.251 610.668L214.883 609.615L214.195 609.893L214.753 611.273L214.368 611.429L213.031 608.12L213.925 607.758ZM214.037 608.1L213.55 608.297L214.063 609.567L214.588 609.355C214.859 609.245 215.035 609.11 215.117 608.949C215.201 608.787 215.199 608.599 215.113 608.384C215.022 608.159 214.89 608.028 214.716 607.989C214.544 607.95 214.318 607.987 214.037 608.1ZM219.817 609.228L219.373 609.407L216.446 607.356L216.428 607.363C216.462 607.435 216.501 607.518 216.546 607.61C216.59 607.702 216.635 607.8 216.681 607.906C216.728 608.01 216.774 608.117 216.819 608.227L217.587 610.128L217.229 610.273L215.892 606.964L216.334 606.785L219.25 608.83L219.266 608.823C219.242 608.772 219.208 608.699 219.164 608.604C219.12 608.508 219.073 608.404 219.024 608.295C218.975 608.183 218.931 608.078 218.892 607.982L218.117 606.065L218.48 605.918L219.817 609.228ZM222.562 608.118L220.72 608.863L219.383 605.553L221.225 604.809L221.363 605.148L219.905 605.737L220.337 606.808L221.711 606.253L221.847 606.588L220.473 607.143L220.967 608.368L222.425 607.779L222.562 608.118Z" fill="#DCE0E8"/>
<path d="M197.888 589.858C197.968 590.054 197.986 590.241 197.944 590.42C197.903 590.596 197.81 590.756 197.664 590.899C197.518 591.042 197.327 591.161 197.09 591.257C196.965 591.308 196.844 591.35 196.727 591.383C196.611 591.416 196.501 591.44 196.398 591.455C196.296 591.47 196.202 591.475 196.118 591.471L195.969 591.102C196.101 591.103 196.257 591.091 196.436 591.066C196.615 591.039 196.793 590.99 196.971 590.918C197.137 590.851 197.269 590.772 197.366 590.682C197.462 590.591 197.523 590.491 197.548 590.385C197.575 590.276 197.564 590.162 197.516 590.045C197.471 589.932 197.408 589.847 197.327 589.792C197.247 589.735 197.135 589.699 196.994 589.684C196.854 589.667 196.67 589.664 196.442 589.673C196.282 589.68 196.136 589.676 196.005 589.66C195.873 589.643 195.756 589.611 195.653 589.565C195.55 589.519 195.46 589.454 195.382 589.369C195.306 589.284 195.241 589.178 195.19 589.049C195.118 588.873 195.102 588.704 195.14 588.543C195.18 588.379 195.265 588.233 195.397 588.102C195.529 587.97 195.699 587.862 195.906 587.778C196.082 587.707 196.252 587.657 196.415 587.63C196.579 587.603 196.735 587.591 196.883 587.596L196.896 587.975C196.757 587.974 196.613 587.984 196.466 588.005C196.32 588.025 196.176 588.064 196.034 588.121C195.892 588.179 195.78 588.248 195.699 588.33C195.619 588.41 195.569 588.498 195.548 588.594C195.527 588.69 195.538 588.79 195.58 588.894C195.627 589.011 195.69 589.097 195.769 589.155C195.85 589.212 195.956 589.249 196.088 589.266C196.22 589.281 196.389 589.285 196.593 589.278C196.816 589.27 197.012 589.279 197.18 589.304C197.348 589.327 197.49 589.382 197.607 589.468C197.724 589.553 197.818 589.682 197.888 589.858ZM201.344 585.636L201.796 589.303L201.409 589.46L199.852 587.497C199.807 587.442 199.763 587.386 199.719 587.33C199.676 587.272 199.636 587.217 199.597 587.166C199.559 587.113 199.525 587.067 199.497 587.028C199.469 586.986 199.449 586.955 199.435 586.934C199.441 586.958 199.449 586.993 199.457 587.041C199.467 587.088 199.477 587.142 199.487 587.205C199.498 587.268 199.508 587.335 199.516 587.407C199.525 587.479 199.534 587.551 199.541 587.626L199.802 590.109L199.415 590.265L197.199 587.311L197.6 587.149L198.97 589.01C199.017 589.072 199.061 589.134 199.103 589.196C199.147 589.255 199.187 589.314 199.225 589.373C199.264 589.431 199.301 589.488 199.336 589.544C199.371 589.6 199.405 589.655 199.437 589.708C199.421 589.647 199.406 589.581 199.392 589.513C199.378 589.443 199.365 589.373 199.351 589.301C199.34 589.228 199.328 589.155 199.317 589.08C199.308 589.005 199.3 588.929 199.292 588.853L199.058 586.56L199.454 586.4L200.91 588.218C200.96 588.281 201.008 588.343 201.054 588.405C201.1 588.467 201.143 588.528 201.184 588.589C201.225 588.648 201.263 588.706 201.298 588.762C201.334 588.816 201.367 588.867 201.397 588.916C201.378 588.838 201.36 588.755 201.342 588.668C201.324 588.58 201.307 588.488 201.29 588.391C201.276 588.293 201.261 588.192 201.247 588.087L200.941 585.799L201.344 585.636ZM203.204 588.734L201.867 585.425L202.252 585.269L203.589 588.579L203.204 588.734ZM207.086 587.166L206.642 587.345L203.715 585.294L203.697 585.302C203.731 585.374 203.771 585.456 203.815 585.549C203.859 585.64 203.904 585.738 203.95 585.844C203.998 585.948 204.044 586.055 204.088 586.165L204.856 588.067L204.499 588.211L203.162 584.902L203.603 584.723L206.52 586.768L206.536 586.761C206.511 586.71 206.477 586.637 206.434 586.542C206.39 586.446 206.343 586.343 206.293 586.233C206.244 586.121 206.2 586.017 206.161 585.92L205.387 584.003L205.749 583.856L207.086 587.166ZM206.652 583.491L207.589 583.113C208.003 582.946 208.339 582.882 208.597 582.922C208.855 582.961 209.044 583.13 209.164 583.427C209.216 583.555 209.238 583.681 209.23 583.804C209.222 583.924 209.185 584.037 209.118 584.141C209.052 584.245 208.955 584.338 208.828 584.419L208.837 584.441C208.991 584.405 209.136 584.395 209.272 584.41C209.408 584.426 209.53 584.475 209.637 584.558C209.744 584.641 209.832 584.766 209.9 584.934C209.982 585.137 210.004 585.329 209.965 585.507C209.929 585.686 209.839 585.846 209.696 585.988C209.553 586.128 209.363 586.246 209.128 586.341L207.989 586.801L206.652 583.491ZM207.61 584.755L208.244 584.499C208.532 584.383 208.712 584.255 208.784 584.115C208.857 583.975 208.857 583.814 208.783 583.631C208.707 583.442 208.586 583.333 208.42 583.304C208.255 583.274 208.028 583.317 207.74 583.434L207.17 583.664L207.61 584.755ZM207.741 585.079L208.241 586.317L208.93 586.039C209.224 585.92 209.409 585.779 209.485 585.615C209.56 585.449 209.558 585.268 209.479 585.072C209.428 584.947 209.357 584.851 209.265 584.784C209.175 584.717 209.058 584.685 208.916 584.689C208.774 584.69 208.601 584.732 208.395 584.815L207.741 585.079ZM212.153 581.269L213.018 583.41C213.112 583.644 213.149 583.872 213.128 584.093C213.108 584.313 213.024 584.515 212.877 584.697C212.729 584.878 212.511 585.026 212.225 585.142C211.816 585.308 211.459 585.323 211.155 585.187C210.853 585.051 210.627 584.798 210.477 584.427L209.615 582.294L210.002 582.138L210.868 584.282C210.982 584.562 211.143 584.749 211.353 584.842C211.564 584.934 211.817 584.92 212.113 584.8C212.315 584.719 212.466 584.616 212.565 584.491C212.665 584.365 212.719 584.224 212.728 584.067C212.737 583.909 212.707 583.743 212.637 583.57L211.77 581.424L212.153 581.269ZM213.925 580.553C214.197 580.443 214.435 580.387 214.639 580.383C214.843 580.378 215.017 580.426 215.16 580.528C215.303 580.63 215.418 580.787 215.504 581C215.575 581.175 215.602 581.334 215.586 581.477C215.57 581.619 215.525 581.747 215.452 581.861C215.378 581.975 215.291 582.075 215.191 582.161L216.7 583.282L216.251 583.463L214.883 582.409L214.195 582.687L214.753 584.068L214.368 584.224L213.031 580.914L213.925 580.553ZM214.037 580.895L213.55 581.091L214.063 582.361L214.588 582.149C214.859 582.04 215.035 581.905 215.117 581.743C215.201 581.581 215.199 581.393 215.113 581.179C215.022 580.954 214.89 580.822 214.716 580.784C214.544 580.744 214.318 580.781 214.037 580.895ZM219.817 582.022L219.373 582.202L216.446 580.151L216.428 580.158C216.462 580.23 216.501 580.313 216.546 580.405C216.59 580.496 216.635 580.595 216.681 580.701C216.728 580.805 216.774 580.912 216.819 581.022L217.587 582.923L217.229 583.068L215.892 579.758L216.334 579.58L219.25 581.624L219.266 581.618C219.242 581.566 219.208 581.493 219.164 581.398C219.12 581.302 219.073 581.199 219.024 581.089C218.975 580.977 218.931 580.873 218.892 580.776L218.117 578.859L218.48 578.713L219.817 582.022ZM222.562 580.913L220.72 581.657L219.383 578.348L221.225 577.603L221.363 577.943L219.905 578.532L220.337 579.603L221.711 579.048L221.847 579.383L220.473 579.938L220.967 581.162L222.425 580.573L222.562 580.913Z" fill="#DCE0E8"/>
<path d="M197.888 583.056C197.968 583.252 197.986 583.44 197.944 583.618C197.903 583.794 197.81 583.954 197.664 584.097C197.518 584.241 197.327 584.36 197.09 584.456C196.965 584.506 196.844 584.548 196.727 584.581C196.611 584.614 196.501 584.638 196.398 584.654C196.296 584.669 196.202 584.674 196.118 584.669L195.969 584.3C196.101 584.302 196.257 584.29 196.436 584.264C196.615 584.238 196.793 584.189 196.971 584.117C197.137 584.05 197.269 583.971 197.366 583.881C197.462 583.789 197.523 583.69 197.548 583.583C197.575 583.474 197.564 583.361 197.516 583.243C197.471 583.13 197.408 583.046 197.327 582.991C197.247 582.934 197.135 582.898 196.994 582.883C196.854 582.866 196.67 582.862 196.442 582.872C196.282 582.879 196.136 582.874 196.005 582.859C195.873 582.842 195.756 582.81 195.653 582.764C195.55 582.718 195.46 582.652 195.382 582.568C195.306 582.483 195.241 582.376 195.19 582.248C195.118 582.072 195.102 581.903 195.14 581.741C195.18 581.578 195.265 581.431 195.397 581.301C195.529 581.168 195.699 581.06 195.906 580.977C196.082 580.905 196.252 580.856 196.415 580.829C196.579 580.801 196.735 580.79 196.883 580.795L196.896 581.174C196.757 581.172 196.613 581.182 196.466 581.203C196.32 581.224 196.176 581.263 196.034 581.32C195.892 581.377 195.78 581.447 195.699 581.529C195.619 581.608 195.569 581.696 195.548 581.793C195.527 581.889 195.538 581.989 195.58 582.093C195.627 582.209 195.69 582.296 195.769 582.354C195.85 582.41 195.956 582.447 196.088 582.464C196.22 582.479 196.389 582.483 196.593 582.476C196.816 582.469 197.012 582.477 197.18 582.502C197.348 582.526 197.49 582.581 197.607 582.667C197.724 582.751 197.818 582.881 197.888 583.056ZM201.344 578.835L201.796 582.502L201.409 582.658L199.852 580.696C199.807 580.64 199.763 580.585 199.719 580.529C199.676 580.47 199.636 580.416 199.597 580.365C199.559 580.312 199.525 580.266 199.497 580.226C199.469 580.185 199.449 580.153 199.435 580.133C199.441 580.156 199.449 580.192 199.457 580.239C199.467 580.286 199.477 580.341 199.487 580.404C199.498 580.466 199.508 580.533 199.516 580.606C199.525 580.677 199.534 580.75 199.541 580.824L199.802 583.307L199.415 583.464L197.199 580.509L197.6 580.347L198.97 582.208C199.017 582.27 199.061 582.332 199.103 582.394C199.147 582.454 199.187 582.513 199.225 582.571C199.264 582.629 199.301 582.686 199.336 582.742C199.371 582.798 199.405 582.853 199.437 582.907C199.421 582.845 199.406 582.78 199.392 582.712C199.378 582.642 199.365 582.571 199.351 582.499C199.34 582.427 199.328 582.353 199.317 582.279C199.308 582.203 199.3 582.128 199.292 582.052L199.058 579.758L199.454 579.598L200.91 581.417C200.96 581.479 201.008 581.541 201.054 581.603C201.1 581.666 201.143 581.727 201.184 581.788C201.225 581.847 201.263 581.904 201.298 581.96C201.334 582.014 201.367 582.066 201.397 582.115C201.378 582.037 201.36 581.954 201.342 581.866C201.324 581.779 201.307 581.686 201.29 581.59C201.276 581.492 201.261 581.391 201.247 581.286L200.941 578.998L201.344 578.835ZM203.204 581.933L201.867 578.623L202.252 578.468L203.589 581.777L203.204 581.933ZM207.086 580.364L206.642 580.544L203.715 578.493L203.697 578.5C203.731 578.572 203.771 578.655 203.815 578.747C203.859 578.838 203.904 578.937 203.95 579.043C203.998 579.147 204.044 579.254 204.088 579.364L204.856 581.265L204.499 581.41L203.162 578.1L203.603 577.922L206.52 579.967L206.536 579.96C206.511 579.909 206.477 579.835 206.434 579.741C206.39 579.644 206.343 579.541 206.293 579.431C206.244 579.319 206.2 579.215 206.161 579.119L205.387 577.201L205.749 577.055L207.086 580.364ZM206.652 576.69L207.589 576.311C208.003 576.144 208.339 576.081 208.597 576.12C208.855 576.16 209.044 576.328 209.164 576.626C209.216 576.754 209.238 576.879 209.23 577.002C209.222 577.123 209.185 577.235 209.118 577.339C209.052 577.444 208.955 577.536 208.828 577.617L208.837 577.64C208.991 577.604 209.136 577.594 209.272 577.609C209.408 577.624 209.53 577.673 209.637 577.756C209.744 577.839 209.832 577.965 209.9 578.132C209.982 578.336 210.004 578.527 209.965 578.706C209.929 578.884 209.839 579.044 209.696 579.186C209.553 579.327 209.363 579.444 209.128 579.539L207.989 579.999L206.652 576.69ZM207.61 577.954L208.244 577.698C208.532 577.581 208.712 577.453 208.784 577.314C208.857 577.174 208.857 577.012 208.783 576.83C208.707 576.641 208.586 576.532 208.42 576.503C208.255 576.473 208.028 576.516 207.74 576.632L207.17 576.863L207.61 577.954ZM207.741 578.278L208.241 579.516L208.93 579.238C209.224 579.119 209.409 578.977 209.485 578.813C209.56 578.648 209.558 578.467 209.479 578.271C209.428 578.145 209.357 578.05 209.265 577.983C209.175 577.916 209.058 577.884 208.916 577.887C208.774 577.888 208.601 577.93 208.395 578.013L207.741 578.278ZM212.153 574.468L213.018 576.609C213.112 576.843 213.149 577.07 213.128 577.291C213.108 577.512 213.024 577.713 212.877 577.896C212.729 578.077 212.511 578.225 212.225 578.341C211.816 578.506 211.459 578.521 211.155 578.386C210.853 578.25 210.627 577.996 210.477 577.625L209.615 575.493L210.002 575.337L210.868 577.48C210.982 577.761 211.143 577.948 211.353 578.04C211.564 578.132 211.817 578.119 212.113 577.999C212.315 577.917 212.466 577.814 212.565 577.69C212.665 577.564 212.719 577.422 212.728 577.266C212.737 577.108 212.707 576.942 212.637 576.768L211.77 574.622L212.153 574.468ZM213.925 573.752C214.197 573.642 214.435 573.585 214.639 573.582C214.843 573.576 215.017 573.624 215.16 573.726C215.303 573.828 215.418 573.986 215.504 574.199C215.575 574.374 215.602 574.533 215.586 574.676C215.57 574.818 215.525 574.946 215.452 575.06C215.378 575.174 215.291 575.274 215.191 575.36L216.7 576.48L216.251 576.661L214.883 575.608L214.195 575.886L214.753 577.267L214.368 577.422L213.031 574.113L213.925 573.752ZM214.037 574.093L213.55 574.29L214.063 575.56L214.588 575.348C214.859 575.239 215.035 575.103 215.117 574.942C215.201 574.78 215.199 574.592 215.113 574.378C215.022 574.153 214.89 574.021 214.716 573.982C214.544 573.943 214.318 573.98 214.037 574.093ZM219.817 575.221L219.373 575.4L216.446 573.349L216.428 573.357C216.462 573.429 216.501 573.511 216.546 573.604C216.59 573.695 216.635 573.793 216.681 573.899C216.728 574.003 216.774 574.11 216.819 574.22L217.587 576.122L217.229 576.266L215.892 572.957L216.334 572.778L219.25 574.823L219.266 574.817C219.242 574.765 219.208 574.692 219.164 574.597C219.12 574.501 219.073 574.398 219.024 574.288C218.975 574.176 218.931 574.072 218.892 573.975L218.117 572.058L218.48 571.911L219.817 575.221ZM222.562 574.112L220.72 574.856L219.383 571.547L221.225 570.802L221.363 571.142L219.905 571.731L220.337 572.801L221.711 572.246L221.847 572.581L220.473 573.136L220.967 574.361L222.425 573.772L222.562 574.112Z" fill="#DCE0E8"/>
<circle cx="212.5" cy="647.5" r="0.5" fill="#EFF1F5"/>
<circle cx="220.5" cy="644.5" r="0.5" fill="#EFF1F5"/>
<defs>
<clipPath id="clip0_234_195">
<rect width="128" height="256" fill="white" transform="matrix(-1 0 0 1 256 0)"/>
</clipPath>
<clipPath id="clip1_234_195">
<rect width="128" height="256" fill="white" transform="translate(256 256)"/>
</clipPath>
<clipPath id="clip2_234_195">
<rect width="128" height="256" fill="white" transform="matrix(-1 0 0 1 384 0)"/>
</clipPath>
<clipPath id="clip3_234_195">
<rect width="128" height="256" fill="white" transform="translate(384 256)"/>
</clipPath>
<clipPath id="clip4_234_195">
<rect width="128" height="256" fill="white" transform="matrix(-1 0 0 1 512 0)"/>
</clipPath>
</defs>
</svg>
