<svg width="1152" height="2176" viewBox="0 0 1152 2176" fill="none" xmlns="http://www.w3.org/2000/svg">
<g clip-path="url(#clip0_0_1)">
<path d="M0 96V32L64 64V128L0 96Z" fill="#CCD0DA"/>
<path d="M128 96V32L64 64V128L128 96Z" fill="#CCD0DA"/>
<path d="M64 0L0 32L64 64L128 32L64 0Z" fill="#CCD0DA"/>
<path d="M63.75 127.595L0.25 95.8455V32.4045L63.75 64.1545V127.595Z" stroke="#4C4F69" stroke-width="0.5"/>
<path d="M64.25 127.595V64.1545L127.75 32.4045V95.8455L64.25 127.595Z" stroke="#4C4F69" stroke-width="0.5"/>
<path d="M127.441 32L64 63.7205L0.559016 32L64 0.279508L127.441 32Z" stroke="#4C4F69" stroke-width="0.5"/>
<path opacity="0.3" d="M0 96V32L64 64V128L0 96Z" fill="#11111B"/>
<path opacity="0.6" d="M128 96V32L64 64V128L128 96Z" fill="#11111B"/>
</g>
<g clip-path="url(#clip1_0_1)">
<path d="M128 96V32L192 64V128L128 96Z" fill="#DF8E1D"/>
<path d="M256 96V32L192 64V128L256 96Z" fill="#DF8E1D"/>
<path d="M192 0L128 32L192 64L256 32L192 0Z" fill="#DF8E1D"/>
<path d="M192 0L128 32L130 33L194 1L192 0Z" fill="#5A390C"/>
<path d="M208 8L144 40L146 41L210 9L208 8Z" fill="#5A390C"/>
<path d="M224 16L160 48L162 49L226 17L224 16Z" fill="#5A390C"/>
<path d="M240 24L176 56L178 57L242 25L240 24Z" fill="#5A390C"/>
<path d="M256 32L192 64V66L256 34V32Z" fill="#5A390C"/>
<path d="M256 48L192 80V82L256 50V48Z" fill="#5A390C"/>
<path d="M256 64L192 96V98L256 66V64Z" fill="#5A390C"/>
<path d="M256 80L192 112V114L256 82V80Z" fill="#5A390C"/>
<path d="M128 32L192 64V66L128 34V32Z" fill="#5A390C"/>
<path d="M128 48L192 80V82L128 50V48Z" fill="#5A390C"/>
<path d="M128 64L192 96V98L128 66V64Z" fill="#5A390C"/>
<path d="M128 80L192 112V114L128 82V80Z" fill="#5A390C"/>
<path opacity="0.3" d="M128 96V32L192 64V128L128 96Z" fill="#11111B"/>
<path opacity="0.6" d="M256 96V32L192 64V128L256 96Z" fill="#11111B"/>
</g>
<g clip-path="url(#clip2_0_1)">
<path d="M256 96V32L320 64V128L256 96Z" fill="#FE640B"/>
<path d="M384 96V32L320 64V128L384 96Z" fill="#FE640B"/>
<path d="M320 0L256 32L320 64L384 32L320 0Z" fill="#40A02B"/>
<path opacity="0.3" d="M256 96V32L320 64V128L256 96Z" fill="#11111B"/>
<path opacity="0.6" d="M384 96V32L320 64V128L384 96Z" fill="#11111B"/>
</g>
<g clip-path="url(#clip3_0_1)">
<path d="M64 128V330L10 357L0 352V160L64 128Z" fill="#D20F39"/>
<path d="M64 128V330L118 357L128 352V160L64 128Z" fill="#D20F39"/>
<path opacity="0.4" d="M64 330L10 357V165L64 138V330Z" fill="#11111B"/>
<path opacity="0.2" d="M64 330L118 357V165L64 138V330Z" fill="#11111B"/>
<path opacity="0.2" d="M0 352L10 357V165L0 160V352Z" fill="#11111B"/>
<path opacity="0.4" d="M128 352L118 357V165L128 160V352Z" fill="#11111B"/>
<path d="M192 128V330L138 357L128 352V160L192 128Z" fill="#DF8E1D"/>
<path d="M192 128V330L246 357L256 352V160L192 128Z" fill="#DF8E1D"/>
<path opacity="0.4" d="M192 330L138 357V165L192 138V330Z" fill="#11111B"/>
<path opacity="0.2" d="M192 330L246 357V165L192 138V330Z" fill="#11111B"/>
<path opacity="0.2" d="M128 352L138 357V165L128 160V352Z" fill="#11111B"/>
<path opacity="0.4" d="M256 352L246 357V165L256 160V352Z" fill="#11111B"/>
<path d="M320 128V330L266 357L256 352V160L320 128Z" fill="#40A02B"/>
<path d="M320 128V330L374 357L384 352V160L320 128Z" fill="#40A02B"/>
<path opacity="0.4" d="M320 330L266 357V165L320 138V330Z" fill="#11111B"/>
<path opacity="0.2" d="M320 330L374 357V165L320 138V330Z" fill="#11111B"/>
<path opacity="0.2" d="M256 352L266 357V165L256 160V352Z" fill="#11111B"/>
<path opacity="0.4" d="M384 352L374 357V165L384 160V352Z" fill="#11111B"/>
<path d="M448 128V330L394 357L384 352V160L448 128Z" fill="#04A5E5"/>
<path d="M448 128V330L502 357L512 352V160L448 128Z" fill="#04A5E5"/>
<path opacity="0.4" d="M448 330L394 357V165L448 138V330Z" fill="#11111B"/>
<path opacity="0.2" d="M448 330L502 357V165L448 138V330Z" fill="#11111B"/>
<path opacity="0.2" d="M384 352L394 357V165L384 160V352Z" fill="#11111B"/>
<path opacity="0.4" d="M512 352L502 357V165L512 160V352Z" fill="#11111B"/>
<path d="M576 128V330L522 357L512 352V160L576 128Z" fill="#EFF1F5"/>
<path d="M576 128V330L630 357L640 352V160L576 128Z" fill="#EFF1F5"/>
<path opacity="0.4" d="M576 330L522 357V165L576 138V330Z" fill="#11111B"/>
<path opacity="0.2" d="M576 330L630 357V165L576 138V330Z" fill="#11111B"/>
<path opacity="0.2" d="M512 352L522 357V165L512 160V352Z" fill="#11111B"/>
<path opacity="0.4" d="M640 352L630 357V165L640 160V352Z" fill="#11111B"/>
<path d="M704 128V330L650 357L640 352V160L704 128Z" fill="#4C4F69"/>
<path d="M704 128V330L758 357L768 352V160L704 128Z" fill="#4C4F69"/>
<path opacity="0.4" d="M704 330L650 357V165L704 138V330Z" fill="#11111B"/>
<path opacity="0.2" d="M704 330L758 357V165L704 138V330Z" fill="#11111B"/>
<path opacity="0.2" d="M640 352L650 357V165L640 160V352Z" fill="#11111B"/>
<path opacity="0.4" d="M768 352L758 357V165L768 160V352Z" fill="#11111B"/>
<path d="M832 128V330L778 357L768 352V160L832 128Z" fill="#04A5E5"/>
<path d="M832 128V330L886 357L896 352V160L832 128Z" fill="#EFF1F5"/>
<path opacity="0.4" d="M832 330L778 357V165L832 138V330Z" fill="#11111B"/>
<path opacity="0.2" d="M832 330L886 357V165L832 138V330Z" fill="#11111B"/>
<path opacity="0.2" d="M768 352L778 357V165L768 160V352Z" fill="#11111B"/>
<path opacity="0.4" d="M896 352L886 357V165L896 160V352Z" fill="#11111B"/>
<path d="M960 128V330L906 357L896 352V160L960 128Z" fill="#EFF1F5"/>
<path d="M960 128V330L1014 357L1024 352V160L960 128Z" fill="#1E66F5"/>
<path opacity="0.4" d="M960 330L906 357V165L960 138V330Z" fill="#11111B"/>
<path opacity="0.2" d="M960 330L1014 357V165L960 138V330Z" fill="#11111B"/>
<path opacity="0.2" d="M896 352L906 357V165L896 160V352Z" fill="#11111B"/>
<path opacity="0.4" d="M1024 352L1014 357V165L1024 160V352Z" fill="#11111B"/>
<path d="M1088 128V330L1034 357L1024 352V160L1088 128Z" fill="#DF8E1D"/>
<path d="M1088 128V330L1142 357L1152 352V160L1088 128Z" fill="#EFF1F5"/>
<path opacity="0.4" d="M1088 330L1034 357V165L1088 138V330Z" fill="#11111B"/>
<path opacity="0.2" d="M1088 330L1142 357V165L1088 138V330Z" fill="#11111B"/>
<path opacity="0.2" d="M1024 352L1034 357V165L1024 160V352Z" fill="#11111B"/>
<path opacity="0.4" d="M1152 352L1142 357V165L1152 160V352Z" fill="#11111B"/>
</g>
<g clip-path="url(#clip4_0_1)">
<path d="M74 389V581L10 613L0 608V416L64 384L74 389Z" fill="#D20F39"/>
<path opacity="0.4" d="M74 581L10 613V421L74 389V581Z" fill="#11111B"/>
<path opacity="0.2" d="M0 608L10 613V421L0 416V608Z" fill="#11111B"/>
<path d="M202 389V581L138 613L128 608V416L192 384L202 389Z" fill="#DF8E1D"/>
<path opacity="0.4" d="M202 581L138 613V421L202 389V581Z" fill="#11111B"/>
<path opacity="0.2" d="M128 608L138 613V421L128 416V608Z" fill="#11111B"/>
<path d="M330 389V581L266 613L256 608V416L320 384L330 389Z" fill="#40A02B"/>
<path opacity="0.4" d="M330 581L266 613V421L330 389V581Z" fill="#11111B"/>
<path opacity="0.2" d="M256 608L266 613V421L256 416V608Z" fill="#11111B"/>
<path d="M458 389V581L394 613L384 608V416L448 384L458 389Z" fill="#04A5E5"/>
<path opacity="0.4" d="M458 581L394 613V421L458 389V581Z" fill="#11111B"/>
<path opacity="0.2" d="M384 608L394 613V421L384 416V608Z" fill="#11111B"/>
<path d="M586 389V581L522 613L512 608V416L576 384L586 389Z" fill="#EFF1F5"/>
<path opacity="0.4" d="M586 581L522 613V421L586 389V581Z" fill="#11111B"/>
<path opacity="0.2" d="M512 608L522 613V421L512 416V608Z" fill="#11111B"/>
<path d="M714 389V581L650 613L640 608V416L704 384L714 389Z" fill="#4C4F69"/>
<path opacity="0.4" d="M714 581L650 613V421L714 389V581Z" fill="#11111B"/>
<path opacity="0.2" d="M640 608L650 613V421L640 416V608Z" fill="#11111B"/>
</g>
<g clip-path="url(#clip5_0_1)">
<path d="M54 645V837L118 869L128 864V672L64 640L54 645Z" fill="#D20F39"/>
<path opacity="0.4" d="M128 864L118 869V677L128 672V864Z" fill="#11111B"/>
<path opacity="0.2" d="M54 837L118 869V677L54 645V837Z" fill="#11111B"/>
<path d="M182 645V837L246 869L256 864V672L192 640L182 645Z" fill="#DF8E1D"/>
<path opacity="0.4" d="M256 864L246 869V677L256 672V864Z" fill="#11111B"/>
<path opacity="0.2" d="M182 837L246 869V677L182 645V837Z" fill="#11111B"/>
<path d="M310 645V837L374 869L384 864V672L320 640L310 645Z" fill="#40A02B"/>
<path opacity="0.4" d="M384 864L374 869V677L384 672V864Z" fill="#11111B"/>
<path opacity="0.2" d="M310 837L374 869V677L310 645V837Z" fill="#11111B"/>
<path d="M438 645V837L502 869L512 864V672L448 640L438 645Z" fill="#04A5E5"/>
<path opacity="0.4" d="M512 864L502 869V677L512 672V864Z" fill="#11111B"/>
<path opacity="0.2" d="M438 837L502 869V677L438 645V837Z" fill="#11111B"/>
<path d="M566 645V837L630 869L640 864V672L576 640L566 645Z" fill="#EFF1F5"/>
<path opacity="0.4" d="M640 864L630 869V677L640 672V864Z" fill="#11111B"/>
<path opacity="0.2" d="M566 837L630 869V677L566 645V837Z" fill="#11111B"/>
<path d="M694 645V837L758 869L768 864V672L704 640L694 645Z" fill="#4C4F69"/>
<path opacity="0.4" d="M768 864L758 869V677L768 672V864Z" fill="#11111B"/>
<path opacity="0.2" d="M694 837L758 869V677L694 645V837Z" fill="#11111B"/>
</g>
<g clip-path="url(#clip6_0_1)">
<path d="M74 1066V1093L10 1125L0 1120V1093L64 1061L74 1066Z" fill="#D20F39"/>
<path d="M74 1058V1066L10 1098L0 1093V1085L64 1053L74 1058Z" fill="#11111B"/>
<path d="M74 936V1058L66 1062L56 1057V935L64 931L74 936Z" fill="#11111B"/>
<path d="M66 940V1062L18 1086L8 1081V959L56 935L66 940Z" fill="#EFF1F5" fill-opacity="0.3"/>
<path d="M18 964V1086L10 1090L0 1085V963L8 959L18 964Z" fill="#11111B"/>
<path d="M74 928V936L10 968L0 963V955L64 923L74 928Z" fill="#11111B"/>
<path d="M74 901V928L10 960L0 955V928L64 896L74 901Z" fill="#D20F39"/>
<path opacity="0.4" d="M74 1093L10 1125V933L74 901V1093Z" fill="#11111B"/>
<path opacity="0.2" d="M0 1120L10 1125V933L0 928V1120Z" fill="#11111B"/>
<path d="M202 1066V1093L138 1125L128 1120V1093L192 1061L202 1066Z" fill="#DF8E1D"/>
<path d="M202 1058V1066L138 1098L128 1093V1085L192 1053L202 1058Z" fill="#11111B"/>
<path d="M202 936V1058L194 1062L184 1057V935L192 931L202 936Z" fill="#11111B"/>
<path d="M194 940V1062L146 1086L136 1081V959L184 935L194 940Z" fill="#EFF1F5" fill-opacity="0.3"/>
<path d="M146 964V1086L138 1090L128 1085V963L136 959L146 964Z" fill="#11111B"/>
<path d="M202 928V936L138 968L128 963V955L192 923L202 928Z" fill="#11111B"/>
<path d="M202 901V928L138 960L128 955V928L192 896L202 901Z" fill="#DF8E1D"/>
<path opacity="0.4" d="M202 1093L138 1125V933L202 901V1093Z" fill="#11111B"/>
<path opacity="0.2" d="M128 1120L138 1125V933L128 928V1120Z" fill="#11111B"/>
<path d="M330 1066V1093L266 1125L256 1120V1093L320 1061L330 1066Z" fill="#40A02B"/>
<path d="M330 1058V1066L266 1098L256 1093V1085L320 1053L330 1058Z" fill="#11111B"/>
<path d="M330 936V1058L322 1062L312 1057V935L320 931L330 936Z" fill="#11111B"/>
<path d="M322 940V1062L274 1086L264 1081V959L312 935L322 940Z" fill="#EFF1F5" fill-opacity="0.3"/>
<path d="M274 964V1086L266 1090L256 1085V963L264 959L274 964Z" fill="#11111B"/>
<path d="M330 928V936L266 968L256 963V955L320 923L330 928Z" fill="#11111B"/>
<path d="M330 901V928L266 960L256 955V928L320 896L330 901Z" fill="#40A02B"/>
<path opacity="0.4" d="M330 1093L266 1125V933L330 901V1093Z" fill="#11111B"/>
<path opacity="0.2" d="M256 1120L266 1125V933L256 928V1120Z" fill="#11111B"/>
<path d="M458 1066V1093L394 1125L384 1120V1093L448 1061L458 1066Z" fill="#04A5E5"/>
<path d="M458 1058V1066L394 1098L384 1093V1085L448 1053L458 1058Z" fill="#11111B"/>
<path d="M458 936V1058L450 1062L440 1057V935L448 931L458 936Z" fill="#11111B"/>
<path d="M450 940V1062L402 1086L392 1081V959L440 935L450 940Z" fill="#EFF1F5" fill-opacity="0.3"/>
<path d="M402 964V1086L394 1090L384 1085V963L392 959L402 964Z" fill="#11111B"/>
<path d="M458 928V936L394 968L384 963V955L448 923L458 928Z" fill="#11111B"/>
<path d="M458 901V928L394 960L384 955V928L448 896L458 901Z" fill="#04A5E5"/>
<path opacity="0.4" d="M458 1093L394 1125V933L458 901V1093Z" fill="#11111B"/>
<path opacity="0.2" d="M384 1120L394 1125V933L384 928V1120Z" fill="#11111B"/>
<path d="M586 1066V1093L522 1125L512 1120V1093L576 1061L586 1066Z" fill="#EFF1F5"/>
<path d="M586 1058V1066L522 1098L512 1093V1085L576 1053L586 1058Z" fill="#11111B"/>
<path d="M586 936V1058L578 1062L568 1057V935L576 931L586 936Z" fill="#11111B"/>
<path d="M578 940V1062L530 1086L520 1081V959L568 935L578 940Z" fill="#EFF1F5" fill-opacity="0.3"/>
<path d="M530 964V1086L522 1090L512 1085V963L520 959L530 964Z" fill="#11111B"/>
<path d="M586 928V936L522 968L512 963V955L576 923L586 928Z" fill="#11111B"/>
<path d="M586 901V928L522 960L512 955V928L576 896L586 901Z" fill="#EFF1F5"/>
<path opacity="0.4" d="M586 1093L522 1125V933L586 901V1093Z" fill="#11111B"/>
<path opacity="0.2" d="M512 1120L522 1125V933L512 928V1120Z" fill="#11111B"/>
<path d="M714 1066V1093L650 1125L640 1120V1093L704 1061L714 1066Z" fill="#4C4F69"/>
<path d="M714 1058V1066L650 1098L640 1093V1085L704 1053L714 1058Z" fill="#11111B"/>
<path d="M714 936V1058L706 1062L696 1057V935L704 931L714 936Z" fill="#11111B"/>
<path d="M706 940V1062L658 1086L648 1081V959L696 935L706 940Z" fill="#EFF1F5" fill-opacity="0.3"/>
<path d="M658 964V1086L650 1090L640 1085V963L648 959L658 964Z" fill="#11111B"/>
<path d="M714 928V936L650 968L640 963V955L704 923L714 928Z" fill="#11111B"/>
<path d="M714 901V928L650 960L640 955V928L704 896L714 901Z" fill="#4C4F69"/>
<path opacity="0.4" d="M714 1093L650 1125V933L714 901V1093Z" fill="#11111B"/>
<path opacity="0.2" d="M640 1120L650 1125V933L640 928V1120Z" fill="#11111B"/>
</g>
<g clip-path="url(#clip7_0_1)">
<path d="M54 1322V1349L118 1381L128 1376V1349L64 1317L54 1322Z" fill="#D20F39"/>
<path d="M54 1314V1322L118 1354L128 1349V1341L64 1309L54 1314Z" fill="#11111B"/>
<path d="M54 1192V1314L62 1318L72 1313V1191L64 1187L54 1192Z" fill="#11111B"/>
<path d="M62 1196V1318L110 1342L120 1337V1215L72 1191L62 1196Z" fill="#EFF1F5" fill-opacity="0.3"/>
<path d="M110 1220V1342L118 1346L128 1341V1219L120 1215L110 1220Z" fill="#11111B"/>
<path d="M54 1184V1192L118 1224L128 1219V1211L64 1179L54 1184Z" fill="#11111B"/>
<path d="M54 1157V1184L118 1216L128 1211V1184L64 1152L54 1157Z" fill="#D20F39"/>
<path opacity="0.2" d="M54 1349L118 1381V1189L54 1157V1349Z" fill="#11111B"/>
<path opacity="0.4" d="M128 1376L118 1381V1189L128 1184V1376Z" fill="#11111B"/>
<path d="M182 1322V1349L246 1381L256 1376V1349L192 1317L182 1322Z" fill="#DF8E1D"/>
<path d="M182 1314V1322L246 1354L256 1349V1341L192 1309L182 1314Z" fill="#11111B"/>
<path d="M182 1192V1314L190 1318L200 1313V1191L192 1187L182 1192Z" fill="#11111B"/>
<path d="M190 1196V1318L238 1342L248 1337V1215L200 1191L190 1196Z" fill="#EFF1F5" fill-opacity="0.3"/>
<path d="M238 1220V1342L246 1346L256 1341V1219L248 1215L238 1220Z" fill="#11111B"/>
<path d="M182 1184V1192L246 1224L256 1219V1211L192 1179L182 1184Z" fill="#11111B"/>
<path d="M182 1157V1184L246 1216L256 1211V1184L192 1152L182 1157Z" fill="#DF8E1D"/>
<path opacity="0.2" d="M182 1349L246 1381V1189L182 1157V1349Z" fill="#11111B"/>
<path opacity="0.4" d="M256 1376L246 1381V1189L256 1184V1376Z" fill="#11111B"/>
<path d="M310 1322V1349L374 1381L384 1376V1349L320 1317L310 1322Z" fill="#40A02B"/>
<path d="M310 1314V1322L374 1354L384 1349V1341L320 1309L310 1314Z" fill="#11111B"/>
<path d="M310 1192V1314L318 1318L328 1313V1191L320 1187L310 1192Z" fill="#11111B"/>
<path d="M318 1196V1318L366 1342L376 1337V1215L328 1191L318 1196Z" fill="#EFF1F5" fill-opacity="0.3"/>
<path d="M366 1220V1342L374 1346L384 1341V1219L376 1215L366 1220Z" fill="#11111B"/>
<path d="M310 1184V1192L374 1224L384 1219V1211L320 1179L310 1184Z" fill="#11111B"/>
<path d="M310 1157V1184L374 1216L384 1211V1184L320 1152L310 1157Z" fill="#40A02B"/>
<path opacity="0.2" d="M310 1349L374 1381V1189L310 1157V1349Z" fill="#11111B"/>
<path opacity="0.4" d="M384 1376L374 1381V1189L384 1184V1376Z" fill="#11111B"/>
<path d="M438 1322V1349L502 1381L512 1376V1349L448 1317L438 1322Z" fill="#04A5E5"/>
<path d="M438 1314V1322L502 1354L512 1349V1341L448 1309L438 1314Z" fill="#11111B"/>
<path d="M438 1192V1314L446 1318L456 1313V1191L448 1187L438 1192Z" fill="#11111B"/>
<path d="M446 1196V1318L494 1342L504 1337V1215L456 1191L446 1196Z" fill="#EFF1F5" fill-opacity="0.3"/>
<path d="M494 1220V1342L502 1346L512 1341V1219L504 1215L494 1220Z" fill="#11111B"/>
<path d="M438 1184V1192L502 1224L512 1219V1211L448 1179L438 1184Z" fill="#11111B"/>
<path d="M438 1157V1184L502 1216L512 1211V1184L448 1152L438 1157Z" fill="#04A5E5"/>
<path opacity="0.2" d="M438 1349L502 1381V1189L438 1157V1349Z" fill="#11111B"/>
<path opacity="0.4" d="M512 1376L502 1381V1189L512 1184V1376Z" fill="#11111B"/>
<path d="M566 1322V1349L630 1381L640 1376V1349L576 1317L566 1322Z" fill="#EFF1F5"/>
<path d="M566 1314V1322L630 1354L640 1349V1341L576 1309L566 1314Z" fill="#11111B"/>
<path d="M566 1192V1314L574 1318L584 1313V1191L576 1187L566 1192Z" fill="#11111B"/>
<path d="M574 1196V1318L622 1342L632 1337V1215L584 1191L574 1196Z" fill="#EFF1F5" fill-opacity="0.3"/>
<path d="M622 1220V1342L630 1346L640 1341V1219L632 1215L622 1220Z" fill="#11111B"/>
<path d="M566 1184V1192L630 1224L640 1219V1211L576 1179L566 1184Z" fill="#11111B"/>
<path d="M566 1157V1184L630 1216L640 1211V1184L576 1152L566 1157Z" fill="#EFF1F5"/>
<path opacity="0.2" d="M566 1349L630 1381V1189L566 1157V1349Z" fill="#11111B"/>
<path opacity="0.4" d="M640 1376L630 1381V1189L640 1184V1376Z" fill="#11111B"/>
<path d="M694 1322V1349L758 1381L768 1376V1349L704 1317L694 1322Z" fill="#4C4F69"/>
<path d="M694 1314V1322L758 1354L768 1349V1341L704 1309L694 1314Z" fill="#11111B"/>
<path d="M694 1192V1314L702 1318L712 1313V1191L704 1187L694 1192Z" fill="#11111B"/>
<path d="M702 1196V1318L750 1342L760 1337V1215L712 1191L702 1196Z" fill="#EFF1F5" fill-opacity="0.3"/>
<path d="M750 1220V1342L758 1346L768 1341V1219L760 1215L750 1220Z" fill="#11111B"/>
<path d="M694 1184V1192L758 1224L768 1219V1211L704 1179L694 1184Z" fill="#11111B"/>
<path d="M694 1157V1184L758 1216L768 1211V1184L704 1152L694 1157Z" fill="#4C4F69"/>
<path opacity="0.2" d="M694 1349L758 1381V1189L694 1157V1349Z" fill="#11111B"/>
<path opacity="0.4" d="M768 1376L758 1381V1189L768 1184V1376Z" fill="#11111B"/>
</g>
<path d="M54 1593V1605L118 1637L128 1632V1620L64 1588L54 1593Z" fill="#11111B"/>
<path d="M54 1425V1593L62 1597L72 1592V1424L64 1420L54 1425Z" fill="#11111B"/>
<path d="M62 1429V1597L110 1621L120 1616V1448L72 1424L62 1429Z" fill="#EFF1F5" fill-opacity="0.3"/>
<path d="M110 1453V1621L118 1625L128 1620V1452L120 1448L110 1453Z" fill="#11111B"/>
<path d="M54 1413V1425L118 1457L128 1452V1440L64 1408L54 1413Z" fill="#11111B"/>
<path opacity="0.2" d="M54 1605L118 1637V1445L54 1413V1605Z" fill="#11111B"/>
<path opacity="0.4" d="M128 1632L118 1637V1445L128 1440V1632Z" fill="#11111B"/>
<path d="M202 1593V1605L138 1637L128 1632V1620L192 1588L202 1593Z" fill="#11111B"/>
<path d="M202 1425V1593L194 1597L184 1592V1424L192 1420L202 1425Z" fill="#11111B"/>
<path d="M194 1429V1597L146 1621L136 1616V1448L184 1424L194 1429Z" fill="#EFF1F5" fill-opacity="0.3"/>
<path d="M146 1453V1621L138 1625L128 1620V1452L136 1448L146 1453Z" fill="#11111B"/>
<path d="M202 1413V1425L138 1457L128 1452V1440L192 1408L202 1413Z" fill="#11111B"/>
<path opacity="0.2" d="M202 1605L138 1637V1445L202 1413V1605Z" fill="#11111B"/>
<path opacity="0.4" d="M128 1632L138 1637V1445L128 1440V1632Z" fill="#11111B"/>
<path d="M310 1593V1605L374 1637L384 1632V1620L320 1588L310 1593Z" fill="#DCE0E8"/>
<path d="M310 1425V1593L318 1597L328 1592V1424L320 1420L310 1425Z" fill="#DCE0E8"/>
<path d="M318 1429V1597L366 1621L376 1616V1448L328 1424L318 1429Z" fill="#EFF1F5" fill-opacity="0.3"/>
<path d="M366 1453V1621L374 1625L384 1620V1452L376 1448L366 1453Z" fill="#DCE0E8"/>
<path d="M310 1413V1425L374 1457L384 1452V1440L320 1408L310 1413Z" fill="#DCE0E8"/>
<path opacity="0.2" d="M310 1605L374 1637V1445L310 1413V1605Z" fill="#DCE0E8"/>
<path opacity="0.4" d="M384 1632L374 1637V1445L384 1440V1632Z" fill="#DCE0E8"/>
<path d="M458 1593V1605L394 1637L384 1632V1620L448 1588L458 1593Z" fill="#DCE0E8"/>
<path d="M458 1425V1593L450 1597L440 1592V1424L448 1420L458 1425Z" fill="#DCE0E8"/>
<path d="M450 1429V1597L402 1621L392 1616V1448L440 1424L450 1429Z" fill="#EFF1F5" fill-opacity="0.3"/>
<path d="M402 1453V1621L394 1625L384 1620V1452L392 1448L402 1453Z" fill="#DCE0E8"/>
<path d="M458 1413V1425L394 1457L384 1452V1440L448 1408L458 1413Z" fill="#DCE0E8"/>
<path opacity="0.2" d="M458 1605L394 1637V1445L458 1413V1605Z" fill="#DCE0E8"/>
<path opacity="0.4" d="M384 1632L394 1637V1445L384 1440V1632Z" fill="#DCE0E8"/>
<path d="M578 1459.24V1598.76L638 1628.76V1489.24L578 1459.24Z" fill="#EFF1F5" fill-opacity="0.3" stroke="#DCE0E8" stroke-width="4"/>
<path d="M578 1411.24V1454.76L638 1484.76V1441.24L578 1411.24Z" fill="#EFF1F5" fill-opacity="0.3" stroke="#DCE0E8" stroke-width="4"/>
<path d="M702 1459.24V1598.76L642 1628.76V1489.24L702 1459.24Z" fill="#EFF1F5" fill-opacity="0.3" stroke="#DCE0E8" stroke-width="4"/>
<path d="M702 1411.24V1454.76L642 1484.76V1441.24L702 1411.24Z" fill="#EFF1F5" fill-opacity="0.3" stroke="#DCE0E8" stroke-width="4"/>
<g clip-path="url(#clip8_0_1)">
<g clip-path="url(#clip9_0_1)">
<path d="M64 1728L0 1696L0 1888L64 1920L64 1728Z" fill="#D20F39"/>
<path d="M64 1728L128 1696L128 1888L64 1920L64 1728Z" fill="#D20F39"/>
<path d="M64 1664L0 1696L64 1728L128 1696L64 1664Z" fill="#D20F39"/>
<path opacity="0.4" d="M128 1888L64 1920V1728L128 1696V1888Z" fill="#11111B"/>
<path opacity="0.2" d="M0 1888L64 1920V1728L0 1696V1888Z" fill="#11111B"/>
</g>
<g clip-path="url(#clip10_0_1)">
<path d="M192 1728L128 1696L128 1888L192 1920L192 1728Z" fill="#DF8E1D"/>
<path d="M192 1728L256 1696L256 1888L192 1920L192 1728Z" fill="#DF8E1D"/>
<path d="M192 1664L128 1696L192 1728L256 1696L192 1664Z" fill="#DF8E1D"/>
<path opacity="0.4" d="M256 1888L192 1920V1728L256 1696V1888Z" fill="#11111B"/>
<path opacity="0.2" d="M128 1888L192 1920V1728L128 1696V1888Z" fill="#11111B"/>
</g>
<g clip-path="url(#clip11_0_1)">
<path d="M320 1728L256 1696V1888L320 1920V1728Z" fill="#40A02B"/>
<path d="M320 1728L384 1696V1888L320 1920V1728Z" fill="#40A02B"/>
<path d="M320 1664L256 1696L320 1728L384 1696L320 1664Z" fill="#40A02B"/>
<path opacity="0.4" d="M384 1888L320 1920V1728L384 1696V1888Z" fill="#11111B"/>
<path opacity="0.2" d="M256 1888L320 1920V1728L256 1696V1888Z" fill="#11111B"/>
</g>
<g clip-path="url(#clip12_0_1)">
<path d="M448 1728L384 1696V1888L448 1920V1728Z" fill="#04A5E5"/>
<path d="M448 1728L512 1696V1888L448 1920V1728Z" fill="#04A5E5"/>
<path d="M448 1664L384 1696L448 1728L512 1696L448 1664Z" fill="#04A5E5"/>
<path opacity="0.4" d="M512 1888L448 1920V1728L512 1696V1888Z" fill="#11111B"/>
<path opacity="0.2" d="M384 1888L448 1920V1728L384 1696V1888Z" fill="#11111B"/>
</g>
<g clip-path="url(#clip13_0_1)">
<path d="M576 1728L512 1696V1888L576 1920V1728Z" fill="#EFF1F5"/>
<path d="M576 1728L640 1696V1888L576 1920V1728Z" fill="#EFF1F5"/>
<path d="M576 1664L512 1696L576 1728L640 1696L576 1664Z" fill="#EFF1F5"/>
<path opacity="0.4" d="M640 1888L576 1920V1728L640 1696V1888Z" fill="#11111B"/>
<path opacity="0.2" d="M512 1888L576 1920V1728L512 1696V1888Z" fill="#11111B"/>
</g>
<g clip-path="url(#clip14_0_1)">
<path d="M704 1728L640 1696V1888L704 1920V1728Z" fill="#4C4F69"/>
<path d="M704 1728L768 1696V1888L704 1920V1728Z" fill="#4C4F69"/>
<path d="M704 1664L640 1696L704 1728L768 1696L704 1664Z" fill="#4C4F69"/>
<path opacity="0.4" d="M768 1888L704 1920V1728L768 1696V1888Z" fill="#11111B"/>
<path opacity="0.2" d="M640 1888L704 1920V1728L640 1696V1888Z" fill="#11111B"/>
</g>
</g>
<path d="M74 2077V2117L10 2149L0 2144V2104L64 2072L74 2077Z" fill="#04A5E5"/>
<path d="M74 2069V2077L10 2109L0 2104V2096L64 2064L74 2069Z" fill="#11111B"/>
<path d="M74 1966V2069L15 2098.5L5 2093.5V1990.5L64 1961L74 1966Z" fill="#EFF1F5" fill-opacity="0.3"/>
<path d="M15 1995.5V2098.5L10 2101L0 2096V1993L5 1990.5L15 1995.5Z" fill="#11111B"/>
<path d="M74 1958V1966L10 1998L0 1993V1985L64 1953L74 1958Z" fill="#11111B"/>
<path d="M74 1925V1958L10 1990L0 1985V1952L64 1920L74 1925Z" fill="#04A5E5"/>
<path opacity="0.4" d="M74 2117L10 2149V1957L74 1925V2117Z" fill="#11111B"/>
<path opacity="0.2" d="M0 2144L10 2149V1957L0 1952V2144Z" fill="#11111B"/>
<path d="M202 2077V2117L138 2149L128 2144V2104L192 2072L202 2077Z" fill="#04A5E5"/>
<path d="M202 2069V2077L138 2109L128 2104V2096L192 2064L202 2069Z" fill="#11111B"/>
<path d="M202 1966V2069L138 2101L128 2096V1993L192 1961L202 1966Z" fill="#EFF1F5" fill-opacity="0.3"/>
<path d="M202 1958V1966L138 1998L128 1993V1985L192 1953L202 1958Z" fill="#11111B"/>
<path d="M202 1925V1958L138 1990L128 1985V1952L192 1920L202 1925Z" fill="#04A5E5"/>
<path opacity="0.4" d="M202 2117L138 2149V1957L202 1925V2117Z" fill="#11111B"/>
<path opacity="0.2" d="M128 2144L138 2149V1957L128 1952V2144Z" fill="#11111B"/>
<path d="M330 2077V2117L266 2149L256 2144V2104L320 2072L330 2077Z" fill="#04A5E5"/>
<path d="M330 2069V2077L266 2109L256 2104V2096L320 2064L330 2069Z" fill="#11111B"/>
<path d="M330 1966V2069L325 2071.5L315 2066.5V1963.5L320 1961L330 1966Z" fill="#11111B"/>
<path d="M325 1968.5V2071.5L266 2101L256 2096V1993L315 1963.5L325 1968.5Z" fill="#EFF1F5" fill-opacity="0.3"/>
<path d="M330 1958V1966L266 1998L256 1993V1985L320 1953L330 1958Z" fill="#11111B"/>
<path d="M330 1925V1958L266 1990L256 1985V1952L320 1920L330 1925Z" fill="#04A5E5"/>
<path opacity="0.4" d="M330 2117L266 2149V1957L330 1925V2117Z" fill="#11111B"/>
<path opacity="0.2" d="M256 2144L266 2149V1957L256 1952V2144Z" fill="#11111B"/>
<defs>
<clipPath id="clip0_0_1">
<rect width="128" height="128" fill="white"/>
</clipPath>
<clipPath id="clip1_0_1">
<rect width="128" height="128" fill="white" transform="translate(128)"/>
</clipPath>
<clipPath id="clip2_0_1">
<rect width="128" height="128" fill="white" transform="translate(256)"/>
</clipPath>
<clipPath id="clip3_0_1">
<rect width="1152" height="256" fill="white" transform="translate(0 128)"/>
</clipPath>
<clipPath id="clip4_0_1">
<rect width="768" height="256" fill="white" transform="translate(0 384)"/>
</clipPath>
<clipPath id="clip5_0_1">
<rect width="768" height="256" fill="white" transform="translate(0 640)"/>
</clipPath>
<clipPath id="clip6_0_1">
<rect width="768" height="256" fill="white" transform="translate(0 896)"/>
</clipPath>
<clipPath id="clip7_0_1">
<rect width="768" height="256" fill="white" transform="translate(0 1152)"/>
</clipPath>
<clipPath id="clip8_0_1">
<rect width="768" height="256" fill="white" transform="translate(0 1664)"/>
</clipPath>
<clipPath id="clip9_0_1">
<rect width="128" height="256" fill="white" transform="translate(0 1664)"/>
</clipPath>
<clipPath id="clip10_0_1">
<rect width="128" height="256" fill="white" transform="translate(128 1664)"/>
</clipPath>
<clipPath id="clip11_0_1">
<rect width="128" height="256" fill="white" transform="translate(256 1664)"/>
</clipPath>
<clipPath id="clip12_0_1">
<rect width="128" height="256" fill="white" transform="translate(384 1664)"/>
</clipPath>
<clipPath id="clip13_0_1">
<rect width="128" height="256" fill="white" transform="translate(512 1664)"/>
</clipPath>
<clipPath id="clip14_0_1">
<rect width="128" height="256" fill="white" transform="translate(640 1664)"/>
</clipPath>
</defs>
</svg>
